/* XPM */
static char *Blue_orb1737634712[] = {
/* columns rows colors chars-per-pixel */
"70 70 183 2 ",
"   c #13162D",
".  c #14182E",
"X  c #131F36",
"o  c #142136",
"O  c #142238",
"+  c #162A3F",
"@  c #152D44",
"#  c #153246",
"$  c #16354A",
"%  c #16394E",
"&  c #163D52",
"*  c #183E52",
"=  c #174256",
"-  c #184357",
";  c #174358",
":  c #19455A",
">  c #194A5E",
",  c #1A4F63",
"<  c #1A5266",
"1  c #1A5568",
"2  c #1B5B6E",
"3  c #1B5F72",
"4  c #1B6174",
"5  c #1C6679",
"6  c #1C697B",
"7  c #226273",
"8  c #1D6F82",
"9  c #1E7385",
"0  c #1E7688",
"q  c #1E798B",
"w  c #1C7A92",
"e  c #267686",
"r  c #1E8093",
"t  c #1E889F",
"y  c #208697",
"u  c #208698",
"i  c #208A9A",
"p  c #2D8695",
"a  c #308291",
"s  c #38929F",
"d  c #1D89A1",
"f  c #1C8FAB",
"g  c #1C86A0",
"h  c #1E91A7",
"j  c #1D93AD",
"k  c #1C97B3",
"l  c #1B9BB8",
"z  c #1B99B7",
"x  c #218FA0",
"c  c #2193A4",
"v  c #229DAE",
"b  c #3298A6",
"n  c #219EB1",
"m  c #1EA3BC",
"M  c #1FA0B7",
"N  c #3EA3AE",
"B  c #23A1B2",
"V  c #25AEBD",
"C  c #25A1B4",
"Z  c #37AAB7",
"A  c #419FAA",
"S  c #4BADB5",
"D  c #44B3BD",
"F  c #56B8BF",
"G  c #1A9FC0",
"H  c #1BA5C4",
"J  c #19A6CA",
"K  c #1EB1CD",
"L  c #16A9D2",
"P  c #19AED3",
"I  c #15ADDB",
"U  c #1BB0D1",
"Y  c #18B6DF",
"T  c #1DBCDD",
"R  c #25B3C2",
"E  c #21B1C9",
"W  c #2CB5C3",
"Q  c #3CBCC7",
"!  c #0095E9",
"~  c #0198E9",
"^  c #0B99E8",
"/  c #149DE8",
"(  c #0AA6E7",
")  c #0EAAE5",
"_  c #05A0EA",
"`  c #0AA9EB",
"'  c #11ADE2",
"]  c #1CA1E8",
"[  c #12A9EB",
"{  c #0EB1EC",
"}  c #14B2E1",
"|  c #14B6EA",
" . c #13BAED",
".. c #19B9E7",
"X. c #24A5E8",
"o. c #2FA8E8",
"O. c #25AEEA",
"+. c #35ABE8",
"@. c #3BAEE8",
"#. c #27B9EC",
"$. c #3BB4E9",
"%. c #38BDEB",
"&. c #52BCC3",
"*. c #44B2E8",
"=. c #49B4E8",
"-. c #53BAE8",
";. c #5EBDE8",
":. c #26C0CE",
">. c #27C6D5",
",. c #27C9D7",
"<. c #23C4D9",
"1. c #2FCAD7",
"2. c #17C2EF",
"3. c #1CC5EB",
"4. c #1FCCEA",
"5. c #1BCAF0",
"6. c #25C8ED",
"7. c #34CBEE",
"8. c #37C3EC",
"9. c #29D5E3",
"0. c #23D2EA",
"q. c #2ADDEB",
"w. c #27D8E9",
"e. c #38D8EC",
"r. c #25CEF0",
"t. c #20D2F1",
"y. c #24DAF2",
"u. c #2DDCF2",
"i. c #29D6F1",
"p. c #37D9F1",
"a. c #29E3F3",
"s. c #31E4F3",
"d. c #3CE5F2",
"f. c #34E8F3",
"g. c #4BC3CB",
"h. c #41CED8",
"j. c #5BCAD0",
"k. c #52D4DA",
"l. c #66C8CB",
"z. c #67D5D8",
"x. c #78DADA",
"c. c #4DC3EB",
"v. c #45CCED",
"b. c #5DCDEB",
"n. c #4CD6EE",
"m. c #58D7ED",
"M. c #47DDF0",
"N. c #66C0E8",
"B. c #69C3E8",
"V. c #64C9E9",
"C. c #75C7E8",
"Z. c #6AD9EC",
"A. c #77D8EB",
"S. c #46E0E9",
"D. c #5CE2EC",
"F. c #44E2F1",
"G. c #45E9F2",
"H. c #4EE6F1",
"J. c #57E7F1",
"K. c #6BE6EC",
"L. c #7FEDEB",
"P. c #76E8EE",
"I. c #69EBF0",
"U. c #8AE0DC",
"Y. c #83CEE8",
"T. c #86D7E9",
"R. c #9AD9E8",
"E. c #97D5E8",
"W. c #86E6E8",
"Q. c #94EDEA",
"!. c #97E6E5",
"~. c #92F1ED",
"^. c #A8E8E8",
"/. c #B1E3E8",
"(. c #B6EDE9",
"). c #A5F2EA",
"_. c #B8F4E9",
"`. c #BBF2E6",
"'. c #C7ECE8",
"]. c #CCF7E9",
"[. c #DEF9E8",
"{. c #DDF4E8",
"}. c None",
/* pixels */
"}.}.}.}.}.}.}.}.}.}.}.}.}.}.}.}.}.}.}.}.. .       . . . . . . . . . . . . . . . . . . . . .         }.}.}.}.}.}.}.}.}.}.}.}.}.}.}.}.}.}.}.}.",
"}.}.}.}.}.}.}.}.}.}.}.}.}.}.}.}.}.}.}.}.          . . . . . . . . . . . . . . . . . . . . .   .     }.}.}.}.}.}.}.}.}.}.}.}.}.}.}.}.}.}.}.}.",
"}.}.}.}.}.}.}.}.}.}.}.}.}.}.}.}.}.}.}.}.          . . . . . . . . . . . . . . . . . . . . .         }.}.}.}.}.}.}.}.}.}.}.}.}.}.}.}.}.}.}.}.",
"}.}.}.}.}.}.}.}.}.}.}.}.}.}.}.}.}.}.}.}.          . . . . . . . . . . . . . . . . . . . . .   .     }.}.}.}.}.}.}.}.}.}.}.}.}.}.}.}.}.}.}.}.",
"}.}.}.}.}.}.}.}.}.}.}.}.}.}.}.}.}.}.}.}.        . . . . . . . . . . . . . . . . . . . . .           }.}.}.}.}.}.}.}.}.}.}.}.}.}.}.}.}.}.}.}.",
"}.}.}.}.}.}.}.}.}.}.}.}.}.}.}.}.}.}.}.}.o o o o o o o o o o o o o o o o o o o o o o o o o o o X X X }.}.}.}.}.}.}.}.}.}.}.}.}.}.}.}.}.}.}.}.",
"}.}.}.}.}.}.}.}.}.}.}.}.}.}.}.}.}.}.}.+ + $ $ $ $ $ $ # $ $ $ $ $ $ $ $ $ # $ $ $ $ $ $ $ $ $ $ # # @ }.}.}.}.}.}.}.}.}.}.}.}.}.}.}.}.}.}.}.",
"}.}.}.}.}.}.}.}.}.}.}.}.}.}.}.}.}.}.% = - - - > > > > > > > > > > > > > > > > > > > : > > : > > : = & % }.}.}.}.}.}.}.}.}.}.}.}.}.}.}.}.}.}.",
"}.}.}.}.}.}.}.}.}.}.}.}.}.}.}.}.}.= - > , < 2 3 3 4 4 2 3 4 3 3 3 3 3 3 3 3 3 3 3 5 4 3 2 4 2 2 1 , > - % }.}.}.}.}.}.}.}.}.}.}.}.}.}.}.}.}.",
"}.}.}.}.}.}.}.}.}.}.}.}.}.}.}.}.+ = : < 2 4 6 6 9 9 9 9 9 9 9 9 e 9 9 9 9 9 0 9 0 6 6 0 9 9 6 6 4 2 1 > * # }.}.}.}.}.}.}.}.}.}.}.}.}.}.}.}.",
"}.}.}.}.}.}.}.}.}.}.}.}.}.}.  X # - < 2 6 6 e r y i i i i i t i i y t t i i t t i i x i i y r q 9 5 3 , = # o   }.}.}.}.}.}.}.}.}.}.}.}.}.}.",
"}.}.}.}.}.}.}.}.}.}.}.}.}.    o # - < 5 6 r t x v v v v v v v v v v v v v v v B v v v v v v x r q 8 4 1 : $ O     }.}.}.}.}.}.}.}.}.}.}.}.}.",
"}.}.}.}.}.}.}.}.}.}.}.}.      o # : 2 6 e i c B V R R R R R R R V V V V R R V V V V V R R V B v u 9 6 2 : $ O       }.}.}.}.}.}.}.}.}.}.}.}.",
"}.}.}.}.}.}.}.}.}.}.}.        o $ : 2 6 r c B V W ,.>.,.,.<.>.>.,.,.,.,.,.,.>.,.,.,.>.,.,.:.R C c y 8 2 , # o         }.}.}.}.}.}.}.}.}.}.}.",
"}.}.}.}.}.}.}.}.}.}.          O # > 3 e r v V :.9.q.q.q.q.q.q.u.q.q.q.q.q.q.q.q.q.q.q.q.q.9.:.V v u 9 4 , $ O           }.}.}.}.}.}.}.}.}.}.",
"}.}.}.}.}.}.}.}.}.}.X o X o X @ = < 5 e x B V 1.e.f.f.a.f.f.a.s.f.a.a.a.a.a.a.a.a.a.a.a.a.q.,.R B i q 5 < & @ O O X o X }.}.}.}.}.}.}.}.}.}.",
"}.}.}.}.}.}.}.}.}.# # # # $ $ * , 7 6 a b Z &.1.H.G.G.d.d.d.s.p.u.u.y.y.y.a.y.u.y.y.y.y.y.0.<.E C h r 9 3 , & # # # # # # }.}.}.}.}.}.}.}.}.",
"}.}.}.}.}.}.}.}.$ = - - > > > < 7 6 a s S D g.k.D.J.J.H.F.F.p.p.u.i.i.t.t.t.t.t.t.y.t.t.t.0.T K m k g w 8 3 < , : , ; = & & }.}.}.}.}.}.}.}.",
"}.}.}.}.}.}.}.% - > , 1 1 3 3 6 e a s A S g.j.z.I.I.I.I.H.H.M.e.i.r.t.5.5.5.5.5.5.5.4.5.5.3.T U H l f g w 9 6 4 2 2 1 , > - & }.}.}.}.}.}.}.",
"}.}.}.}.}.}.# * > < 2 5 6 6 9 e s s A S F l.z.x.W.P.K.I.m.m.n.e.7.7.2.2.2.2.2.2.2.2.2.2.2. .} P J G z f t r q 6 8 6 4 2 1 > * # }.}.}.}.}.}.",
"          X # = , 2 5 6 0 r p x b N S F l.l.x.U.~.~.W.P.Z.m.n.v.7.6. . . . . . . . . . . .| } I L J l l k h x i r q 9 5 2 , ; # o           ",
"          o # = 1 4 6 r y x v B Z D &.l.l.U.U.!.).).~.W.A.Z.m.v.8.#.| { { { { { { { { | { { } I L L J H m M k v c r q 9 4 1 : $ o           ",
"          o $ : 2 6 0 y c B V V Q g.j.z.x.U.!.^._._.^.Q.W.Z.b.c.%.#.[ [ ` ` ` ` ` ` ` ` ` ` ) I I I L P K K V V B c y e 6 2 : $ o           ",
"          o # > 3 6 r x B V :.1.1.k.z.x.U.!.^.`.].].(.^.T.C.V.c.$.O.[ _ _ _ _ _ _ _ _ _ _ _ ( ) ) } Y T T <.<.:.R B c w 8 2 , $ o           ",
"        . X $ : 7 9 y v V :.9.e.S.D.K.W.~.).(.].[.[.'./.E.Y.B.-.@.X.^ ~ ~ ~ ~ ~ ~ ~ ~ ~ ~ ~ _ ` )  .2.2.4.0.w.9.:.V v y 0 3 > $ O . .     . ",
". . . . . o $ > 3 9 y v R ,.q.f.H.J.I.L.~.)._.].[.{.'./.E.Y.B.-.@.X.^ ! ! ! ! ! ! ! ! ! ~ ~ _ ` { } 2.5.0.y.a.a.,.R B t 0 3 > % O . . . . . ",
". . . . . o $ > 4 9 u v V ,.q.f.G.J.I.L.W.Q.^.(.'.'./.E.Y.C.;.*.+.] ^ ! ! ! ! ! ! ! ! ! ! ~ _ ` {  .2.5.t.y.a.q.,.R B i 0 3 > % O . . . . . ",
". . . . . X $ > 3 e u v V >.q.f.d.G.J.I.P.W.Q.^././.R.Y.C.N.-.*.o.] ^ ! ! ! ! ! ! ! ! ! ! ~ _ ` {  .2.5.t.y.a.q.,.R B i 0 5 > $ O . . . . . ",
". . . . . o $ > 3 9 t v V >.q.f.d.G.J.m.K.A.T.W.R.E.Y.C.B.-.=.@.X.] ^ ! ! ! ! ! ! ! ! ! ~ ~ _ ` {  .2.5.t.y.a.q.,.R v i 0 4 > % O . . . . . ",
". . . . . o $ > 4 9 i v V >.q.a.f.S.M.m.m.Z.C.A.Y.Y.C.;.-.=.@.o.X./ ~ ! ! ! ! ! ! ! ! ! ~ ~ _ ` {  .2.5.t.y.a.q.,.V v i 0 3 > $ O . . . . . ",
". . . . . o $ > 3 9 t v R ,.q.f.f.d.M.n.n.m.b.V.B.B.;.-.=.@.+.o./ / ~ ! ! ! ! ! ! ! ! ! ! ~ _ ` `  .2.5.t.y.a.q.,.R B t 0 4 , $ O . . . . . ",
". . . . . o $ > 4 9 i v R ,.q.a.s.e.e.e.v.v.c.c.-.-.=.*.@.o.X./ / ^ ! ! ! ! ! ! ! ! ! ! ! ~ _ ` {  .2.5.0.a.a.a.,.R B i 0 3 , $ O . . . . . ",
". . . . . o $ > 3 9 y v V ,.q.a.u.u.i.7.7.8.%.$.@.+.+.o.o.X./ / / ^ ! ! ! ! ! ! ! ! ! ! ! ~ _ ` {  .2.5.t.y.a.q.,.E B t 6 4 > $ O . . . . . ",
". . . . . o $ : 3 0 i v V ,.q.f.u.i.7.r.#.#.#.O.X.X.X./ / / / ^ ^ ! ! ! ! ! ! ! ! ! ! ! ! ~ _ ` {  .2.5.t.y.a.q.,.R B i r 4 , $ O . . . . . ",
". . . . . o $ > 3 0 t v R ,.q.a.y.t.r.2. .| { [ / ^ ^ ^ ^ ! ~ ~ ! ! ! ! ! ! ! ! ! ! ! ! ! ~ _ ` `  .2.5.t.y.a.q.,.R M i 0 3 > $ O . . . . . ",
". . . . . o $ > 5 6 t B V ,.q.a.y.t.r.2. .| ` _ ~ ! ! ! ! ! ! ! ! ! ! ! ! ! ! ! ! ! ! ! ! ! _ ` {  .2.5.t.y.a.q.,.R B t 0 3 : = O . . . . . ",
". . . . . o $ > 4 e x v R ,.q.a.y.t.t. . .{ ` _ ~ ! ! ! ! ! ! ! ! ! ! ! ! ! ! ! ! ! ! ! ~ ~ ~ ` {  .2.5.t.y.a.q.,.R B i 0 4 > = O . . . . . ",
". . . . . o $ > 4 6 t v R ,.q.a.y.t.t.2. .{ ` _ ~ ! ! ! ! ! ! ! ! ! ! ! ! ! ! ! ! ! ! ! ! ~ _ ` {  .2.5.t.y.a.q.,.V B i 0 4 , + O . . . . . ",
". . . . . o $ > 3 r t v V ,.q.a.y.t.5.2. .| ` _ ~ ! ! ! ! ! ! ! ! ! ! ! ! ! ! ! ! ! ! ! ! ~ _ ` {  .2.5.t.y.a.y.,.R v i r 4 > = O . . . . . ",
". . . . . o $ > 3 6 y v V ,.q.a.y.t.5.2. .{ ` _ ~ ! ! ! ! ! ! ! ! ! ! ! ! ! ! ! ! ! ! ! ! ~ _ ` {  .2.5.t.y.a.y.,.R B i 6 4 , + O . . . . . ",
". . . . . o $ > 4 0 i v V ,.q.a.y.t.5.2. .{ ` ` ~ ~ ! ! ! ! ! ! ! ! ! ! ! ! ! ! ! ! ! ! ! ~ _ ` { { 2.5.t.y.a.q.,.R B i 6 4 > = O . . . . . ",
". . . . . o $ > 5 6 i v V ,.q.a.y.t.5.2. .{ ` _ ~ ! ! ! ! ! ! ! ! ! ! ! ! ! ! ! ! ! ! ! ! ~ _ ` { 2.2.5.t.y.a.q.,.R B i r 4 > + O . . . . . ",
". . . .   o $ > 4 0 y v V ,.q.a.u.t.5.2. .{ ` _ ~ ! ! ! ! ! ! ! ! ! ! ! ! ! ! ! ! ! ! ! ! ! _ ` { 2.2.5.t.y.a.q.,.V B i 0 4 > = O . . . . . ",
". . . . . o $ > 5 6 i B V ,.q.a.y.t.5.2. .{ ` _ ~ ! ! ! ! ! ! ! ! ! ! ! ! ! ! ! ! ! ! ! ! ~ _ ` { { 2.5.t.y.a.q.,.:.B i 0 4 < + o . . . . . ",
". . . . . o $ > 3 0 t v V >.q.a.y.t.4.2. .{ ` _ ~ ! ! ! ! ! ~ ~ ! ! ! ! ! ! ! ! ! ! ! ! ! ~ _ ` {  .2.5.t.y.a.q.,.V B i 0 4 > = O . . . . . ",
"          o # > 4 e t c V T 9.q.0.0.3. . .{ ` _ ~ ~ ~ ~ ~ ~ ~ ~ ! ! ! ! ~ ~ ~ ! ~ ! ! ~ ~ ~ _ ` {  .2.2.4.0.w.9.:.V v i 0 4 > + o . . .     ",
"        . o $ > 2 6 r c B V >.>.<.T T Y } ' [ ( ( _ ~ _ _ _ _ _ _ _ _ _ _ _ _ _ _ _ _ _ _ _ ` ) ' } Y T T <.,.:.R B x r 6 2 > = O           ",
"    .   . o $ - 2 6 e i c C V E E K U P I I ' [ ` ` ` ` ` ` ` ` ` ` ` ` ` ` ` ` ` ` ` ` ` ` ) ' I I L U K :.V V B v i r 6 2 > + o       .   ",
"          X # : 1 4 8 q u i v B m m H J L L ' ' { { { { ` { { { { { { { { { { { { { { { { { ' I I L J H m m n v x t r 6 6 1 ; $ O           ",
"          o # = < 2 5 9 q y u i f k z H J L L Y  . . . . . . . .2.{ 2.{  . . . . . . . . . .} I L m m l f f d t r 0 6 5 4 < = $ o           ",
"}.}.}.}.}.}.@ = > < 2 4 6 8 9 q r g f z l J L Y  .2.2.2.2.2.2.2.2.2.2.2.2.2.2.2.2.2.2.2.2. .Y P L G l f g g w 9 6 6 4 3 1 , = + }.}.}.}.}.}.",
"}.}.}.}.}.}.}.* - > < 1 2 3 4 5 8 w t f l H P Y 3.5.5.5.5.5.5.5.5.2.5.5.5.5.5.5.5.5.5.5.4.3.T U H l f g w 9 5 4 4 2 1 < > - = }.}.}.}.}.}.}.",
"}.}.}.}.}.}.}.}.% & ; ; : > > 1 3 6 r d j m K T 4.0.t.t.t.5.0.t.t.t.t.t.t.t.t.t.5.t.t.t.t.4.T K m k d r 8 4 < > > : : - = = }.}.}.}.}.}.}.}.",
"}.}.}.}.}.}.}.}.}.# $ $ $ $ % & , 3 9 r h M K <.0.y.y.y.y.y.y.y.y.y.y.y.y.y.y.y.y.y.y.y.y.w.<.K m h r 9 4 < = % $ $ $ # + }.}.}.}.}.}.}.}.}.",
"}.}.}.}.}.}.}.}.}.}.X o o o o + = , 5 r x v V ,.w.a.a.a.a.a.a.a.a.a.a.a.a.a.a.a.a.a.a.a.a.q.,.:.n d r 6 1 & @ O O O O O }.}.}.}.}.}.}.}.}.}.",
"}.}.}.}.}.}.}.}.}.}.    .   . o $ > 3 6 t j V >.9.q.q.q.q.q.a.q.q.q.q.y.q.q.w.a.q.q.q.q.q.9.:.V v r 6 5 > % X       . . }.}.}.}.}.}.}.}.}.}.",
"}.}.}.}.}.}.}.}.}.}.}.        O $ > 2 6 r c B V >.,.,.,.,.,.,.,.,.,.,.,.,.,.,.,.,.,.,.,.,.,.V B h r 8 3 , $ o   .   . }.}.}.}.}.}.}.}.}.}.}.",
"}.}.}.}.}.}.}.}.}.}.}.}.      X $ : 2 6 0 y h B V R R R R R R R K V R R R R :.R V V R R V V B c t q 6 2 : $ o       }.}.}.}.}.}.}.}.}.}.}.}.",
"}.}.}.}.}.}.}.}.}.}.}.}.}.    O # - 1 3 6 r y c v v B v B B v v B v B v v v v v B B B v B v c t e 9 4 1 : $ o .   }.}.}.}.}.}.}.}.}.}.}.}.}.",
"}.}.}.}.}.}.}.}.}.}.}.}.}.}.  X # - , 3 6 9 e r i i i i i i i i i i i i i i i i i i t t x i r 0 9 6 3 , ; # o   }.}.}.}.}.}.}.}.}.}.}.}.}.}.",
"}.}.}.}.}.}.}.}.}.}.}.}.}.}.}.}.# - > 1 2 4 6 6 9 0 0 0 q 0 0 0 q 9 9 9 r 9 9 9 0 0 0 0 0 9 9 6 4 3 1 > * # }.}.}.}.}.}.}.}.}.}.}.}.}.}.}.}.",
"}.}.}.}.}.}.}.}.}.}.}.}.}.}.}.}.}.= - > < 2 2 2 4 4 4 4 4 4 4 4 4 4 4 3 3 4 4 4 4 4 4 4 4 4 2 2 1 , > ; & }.}.}.}.}.}.}.}.}.}.}.}.}.}.}.}.}.",
"}.}.}.}.}.}.}.}.}.}.}.}.}.}.}.}.}.}.% = = - > > > > > > > > > ; > > > > > ; , , , > , > > > > : : - = % }.}.}.}.}.}.}.}.}.}.}.}.}.}.}.}.}.}.",
"}.}.}.}.}.}.}.}.}.}.}.}.}.}.}.}.}.}.}.# # % # # % % % % + = $ = # = = + = = + = $ $ $ $ % $ $ $ $ # # }.}.}.}.}.}.}.}.}.}.}.}.}.}.}.}.}.}.}.",
"}.}.}.}.}.}.}.}.}.}.}.}.}.}.}.}.}.}.}.}.o o O o O O o o O O O O O O O O O O O O O O O O o o O o O O }.}.}.}.}.}.}.}.}.}.}.}.}.}.}.}.}.}.}.}.",
"}.}.}.}.}.}.}.}.}.}.}.}.}.}.}.}.}.}.}.}.            . . . . . . . . . . . . . . . . . . .   .       }.}.}.}.}.}.}.}.}.}.}.}.}.}.}.}.}.}.}.}.",
"}.}.}.}.}.}.}.}.}.}.}.}.}.}.}.}.}.}.}.}.            . . . . . . . . . . . . . . . . . . .           }.}.}.}.}.}.}.}.}.}.}.}.}.}.}.}.}.}.}.}.",
"}.}.}.}.}.}.}.}.}.}.}.}.}.}.}.}.}.}.}.}.          X . . . . . . . . . . . . . . . . . . . .         }.}.}.}.}.}.}.}.}.}.}.}.}.}.}.}.}.}.}.}.",
"}.}.}.}.}.}.}.}.}.}.}.}.}.}.}.}.}.}.}.}.          . . . . . . . . . . . . . . . . . . . . .   .     }.}.}.}.}.}.}.}.}.}.}.}.}.}.}.}.}.}.}.}.",
"}.}.}.}.}.}.}.}.}.}.}.}.}.}.}.}.}.}.}.}.          . . . . . . . . . . . . . . . . . . . .     .     }.}.}.}.}.}.}.}.}.}.}.}.}.}.}.}.}.}.}.}."
};
