/* XPM */
static char *_737907555[] = {
/* columns rows colors chars-per-pixel */
"70 70 221 2 ",
"   c #32171D",
".  c #0D0C23",
"X  c #060823",
"o  c #0F1025",
"O  c #191524",
"+  c #181525",
"@  c #110D22",
"#  c #201724",
"$  c #211925",
"%  c #281E26",
"&  c #301D22",
"*  c #2D2226",
"=  c #332526",
"-  c #3C2C27",
";  c #392726",
":  c #3E352C",
">  c #542318",
",  c #762A11",
"<  c #662F1A",
"1  c #412624",
"2  c #412E27",
"3  c #4C2A22",
"4  c #413027",
"5  c #443228",
"6  c #4E3A2A",
"7  c #49372A",
"8  c #563E29",
"9  c #723B24",
"0  c #643722",
"q  c #5E4429",
"w  c #624529",
"e  c #6A4B2A",
"r  c #65492A",
"t  c #774827",
"y  c #72512B",
"u  c #79562B",
"i  c #705C35",
"p  c #78673A",
"a  c #3A4466",
"s  c #8B2A05",
"d  c #8A2D0B",
"f  c #8E310C",
"g  c #91310C",
"h  c #803716",
"j  c #953C12",
"k  c #9B3D12",
"l  c #923710",
"z  c #A03F12",
"x  c #974015",
"c  c #974119",
"v  c #9B4716",
"b  c #A54213",
"n  c #AA4513",
"m  c #A64D19",
"M  c #B34B15",
"N  c #B44B15",
"B  c #A4551D",
"V  c #A9591E",
"C  c #A7581E",
"Z  c #BD5116",
"A  c #BF5518",
"S  c #AD621F",
"D  c #964A20",
"F  c #835C2C",
"G  c #8C5329",
"H  c #935121",
"J  c #A95423",
"K  c #A85B22",
"L  c #A65627",
"P  c #A85F35",
"I  c #A65B34",
"U  c #8C622C",
"Y  c #96692D",
"T  c #986A2D",
"R  c #95662D",
"E  c #957237",
"W  c #AA6629",
"Q  c #B26B27",
"!  c #AB752E",
"~  c #AA772E",
"^  c #BD7D2E",
"/  c #B8742C",
"(  c #AC7A33",
")  c #BD7E30",
"_  c #AB653E",
"`  c #C25316",
"'  c #C35518",
"]  c #CC5C1A",
"[  c #C95819",
"{  c #D55C17",
"}  c #D6621C",
"|  c #DA621B",
" . c #DC6D1E",
".. c #CE621C",
"X. c #E66B1F",
"o. c #EA6C1E",
"O. c #E6661A",
"+. c #F06E1C",
"@. c #F6711E",
"#. c #EE701F",
"$. c #D66621",
"%. c #D76923",
"&. c #DB7324",
"*. c #C77F2C",
"=. c #EA6E20",
"-. c #EC7221",
";. c #ED7C24",
":. c #E07122",
">. c #F67521",
",. c #FA7521",
"<. c #F67A23",
"1. c #F77A29",
"2. c #B27147",
"3. c #BA7F54",
"4. c #BF832F",
"5. c #BF8131",
"6. c #BF823C",
"7. c #A9853B",
"8. c #D88A2D",
"9. c #C18331",
"0. c #CC8D30",
"q. c #C58933",
"w. c #D88D33",
"e. c #CB943A",
"r. c #CD993D",
"t. c #DC9731",
"y. c #DE9A32",
"u. c #D29131",
"i. c #D38C2F",
"p. c #E88429",
"a. c #FA8526",
"s. c #FD8927",
"d. c #F38D2A",
"f. c #FA8C2A",
"g. c #F68427",
"h. c #FC942B",
"j. c #FD9C2D",
"k. c #F4982D",
"l. c #F68330",
"z. c #E89932",
"x. c #F99534",
"c. c #F79B36",
"v. c #D9A33C",
"b. c #FEA22F",
"n. c #E7A032",
"m. c #F3A532",
"M. c #FDA530",
"N. c #FDAC33",
"B. c #F8A737",
"V. c #FFB334",
"C. c #FDB73B",
"Z. c #FFC13F",
"A. c #BF8548",
"S. c #BE8658",
"D. c #AC9546",
"F. c #B9A049",
"G. c #C0895C",
"H. c #CD9E5F",
"J. c #FA984D",
"K. c #C9A346",
"L. c #D5A542",
"P. c #D9AC45",
"I. c #D6A84A",
"U. c #DFB54A",
"Y. c #DCB94C",
"T. c #DAB058",
"R. c #FAAE42",
"E. c #F6A841",
"W. c #FBB947",
"Q. c #FBA952",
"!. c #EAB34B",
"~. c #C49367",
"^. c #DAB678",
"/. c #D1A878",
"(. c #FCB875",
"). c #E0BD6E",
"_. c #DEC655",
"`. c #FFCD4A",
"'. c #FBC44B",
"]. c #ECCB54",
"[. c #E8C957",
"{. c #FDC855",
"}. c #EFD257",
"|. c #F1D356",
" X c #FCD255",
".X c #FCDC5C",
"XX c #F8D858",
"oX c #FDE35E",
"OX c #FFE95F",
"+X c #FDC473",
"@X c #F6D976",
"#X c #F8D269",
"$X c #FDE661",
"%X c #FFEB62",
"&X c #FEE76C",
"*X c #FFF065",
"=X c #FEED73",
"-X c #FEE97A",
";X c #DAB98B",
":X c #DCBD90",
">X c #DFC18D",
",X c #F7DE8B",
"<X c #FEDA99",
"1X c #EBD492",
"2X c #FEEA85",
"3X c #FFF28C",
"4X c #FCEB96",
"5X c #ECD9A6",
"6X c #FDD7A0",
"7X c #FAEAA8",
"8X c #FFF6A5",
"9X c #F5E9B6",
"0X c #FDF1BD",
"qX c #FDF7B6",
"wX c #EFE1AE",
"eX c #FEFBC3",
"rX c #FEFCCC",
"tX c #FEF1C1",
"yX c #FFFFD2",
"uX c #FFFFDA",
"iX c None",
/* pixels */
"iXiXiXiXiXiXiXiXiXiXiXiXiXiXiXiXiXiXiXiXiXiXiXiXiXiXiXiXiXiXiXiXiXiXiXiXiXiXiXiXiXiXiXiXiXiXiXiXiXiXiXiXiXiXiXiXiXiXiXiXiXiXiXiXiXiXiXiXiXiX",
"iXiXiXiXiXiXiXiXiXiXiXiXiXiXiXiXiXiXiXiXiXiXiXiXiXiXiXiXiXiXiXiXiXiXiXiXiXiXiXiXiXiXiXiXiXiXiXiXiXiXiXiXiXiXiXiXiXiXiXiXiXiXiXiXiXiXiXiXiXiX",
"iXiXiXiXiXiXiXiXiXiXiXiXiXiXiXiXiXiXiXiXiXiXiXiXiXiXiXiXiXiXiXiXiXiXiXiXiXiXiXiXiXiXiXiXiXiXiXiXiXiXiXiXiXiXiXiXiXiXiXiXiXiXiXiXiXiXiXiXiXiX",
"iXiXiXiXiXiXiXiXiXiXiXiXiXiXiXiXiXiXiXiXiXiXiXiXiXiXiXiXiXiXiXiXiXiXiXiXiXiXiXiXiXiXiXiXiXiXiXiXiXiXiXiXiXiXiXiXiXiXiXiXiXiXiXiXiXiXiXiXiXiX",
"iXiXiXiXiXiXiXiXiXiXiXiXiXiXiXiXiXiXiXiXiXiXiXiXiXiXiXiXiXd d d d d d s s s s s s iXiXiXiXiXiXiXiXiXiXiXiXiXiXiXiXiXiXiXiXiXiXiXiXiXiXiXiXiX",
"iXiXiXiXiXiXiXiXiXiXiXiXiXiXiXiXiXiXiXiXiXiXiXiXiXiXiXf f f f f d f f f f f f f f f f iXiXiXiXiXiXiXiXiXiXiXiXiXiXiXiXiXiXiXiXiXiXiXiXiXiXiX",
"iXiXiXiXiXiXiXiXiXiXiXiXiXiXiXiXiXiXiXiXiXiXiXiXiXiXj j x x x x k x j c c c x x c c c j iXiXiXiXiXiXiXiXiXiXiXiXiXiXiXiXiXiXiXiXiXiXiXiXiXiX",
"iXiXiXiXiXiXiXiXiXiXiXiXiXiXiXiXiXiXiXiXiXiXiXiXiXiXJ K K K V K K K W L P P P P P P P I iXiXiXiXiXiXiXiXiXiXiXiXiXiXiXiXiXiXiXiXiXiXiXiXiXiX",
"iXiXiXiXiXiXiXiXiXiXiXiXiXiXiXiXiXiXiXiXiXiXiXiXiXB Q / 4.4.4.4.5.6.A.A.G.G.G.G.G.S.3.2.I iXiXiXiXiXiXiXiXiXiXiXiXiXiXiXiXiXiXiXiXiXiXiXiXiX",
"iXiXiXiXiXiXiXiXiXiXiXiXiXiXiXiXiXiXiXiXiXiXiXd x W ^ r.L.U.Y.v.P.T.T.^.^.;X:X:X:X;X/.S.2.c d iXiXiXiXiXiXiXiXiXiXiXiXiXiXiXiXiXiXiXiXiXiXiX",
"iXiXiXiXiXiXiXiXiXiXiXiXiXiXiXiXiXiXiXiXiXiXf l m Q e.U.].|.|.|.}.}.@X1X5X9X9X9X9X5X:X~.2.L j s iXiXiXiXiXiXiXiXiXiXiXiXiXiXiXiXiXiXiXiXiXiX",
"iXiXiXiXiXiXiXiXiXiXiXiXiXiXiXiXiXiXiXiXiXiXv B W ^ r.[.oX%XOXOX%X=X2X8XqXeXyXyXyX9X5X;XS.W m v iXiXiXiXiXiXiXiXiXiXiXiXiXiXiXiXiXiXiXiXiXiX",
"iXiXiXiXiXiXiXiXiXiXiXiXiXiXiXiXiXiXiXiXiXB W Q ^ r.U.|.oX*X*X%X*X-X3X8XeXyXuXuXuXrXwX>XH.6.Q S B iXiXiXiXiXiXiXiXiXiXiXiXiXiXiXiXiXiXiXiXiX",
"iXiXiXiXiXiXiXiXiXiXiXiXiXiXiXiXiXiXiXj B Q ^ e.L.U.]..X%X%XOX%X*X=X3X8XeXyXuXuXyXrX9X1X).I.e.^ Q m j iXiXiXiXiXiXiXiXiXiXiXiXiXiXiXiXiXiXiX",
"iXiXiXiXiXiXiXiXiXiXiXiXiXiXiXiXiXiXf j B / e.U.[.}..XoX%XOXOXOX&X=X3X8XqXrXyXyXrXeXqX4X@X[.Y.e./ B j f iXiXiXiXiXiXiXiXiXiXiXiXiXiXiXiXiXiX",
"iXiXiXiXiXiXiXiXiXiXiXiXiXiXiXiXiXiXf j B ^ v.[..X%X%X$XoXOXoXoX%X&X2X4X8X0X0XtXtX9X7X4X-X&X[.L.^ C j f iXiXiXiXiXiXiXiXiXiXiXiXiXiXiXiXiXiX",
"iXiXiXiXiXiXiXiXiXiXiXiXiXiXiXiXiXiXg x V ) P.}.$X*X%X%X$X%XOXOX$X&X-X,X<X<X6X<X<X<X<X4X=X&X|.P.^ C k f iXiXiXiXiXiXiXiXiXiXiXiXiXiXiXiXiXiX",
"iXiXiXiXiXiXiXiXiXiXiXiXiXiXiXiXiXiXg x V *.P.}.%X*X*X%X$X$X%X%X%X$X#X@X(.(.(.(.(.(.+X@X&X&X|.P.4.V x g iXiXiXiXiXiXiXiXiXiXiXiXiXiXiXiXiXiX",
"iXiXiXiXiXiXiXiXiXiXiXiXiXiXiXiXiXiXg j C ) P.].%X%X%X%X$X%X%X%X$X.X{.Q.Q.J.J.J.J.Q.Q.{..X.X}.I.5.K k g iXiXiXiXiXiXiXiXiXiXiXiXiXiXiXiXiXiX",
"iXiXiXiXiXiXiXiXiXiXiXiXiXiXiXiXiXiXd j L ) L.].$X%X%X%XoX%XoXOX$X XW.E.x.1.1.,.1.l.x.R.{. X].L.^ B j f iXiXiXiXiXiXiXiXiXiXiXiXiXiXiXiXiXiX",
"iXiXiXiXiXiXiXiXiXiXiXiXiXiXiXiXiXiX, , H ( L.].$X%X%X%X$X$XoX.X X'.R.x.g.@.#.O.O.X.;.c.!.W.!.K.! H h , iXiXiXiXiXiXiXiXiXiXiXiXiXiXiXiXiXiX",
"iXiXiXiXiXiXiXiXiXiXiXiXiXiXiXiXiXiX> < t E K.].$X*X*X%XoX.X X{.W.R.c.f.g.@.O.| { { %.p.E.E.P.q.R t < > iXiXiXiXiXiXiXiXiXiXiXiXiXiXiXiXiXiX",
"iXiXiXiXiXiXiXiXiXiXiXiXiXiXiXiXiXiX  3 q E F._.$X*X*X%XoX.X'.R.E.x.f.a.@.@.| { ` Z A &.p.x.w./ G 9 3   iXiXiXiXiXiXiXiXiXiXiXiXiXiXiXiXiXiX",
"iXiXiXiXiXiXiXiXiXiXiXiXiXiXiXiXiXiXO * q p F._.$X%X*X%X.X XW.B.f.a.1.,.@.+.| ` M n m ..:.1.&.L 9 3   # iXiXiXiXiXiXiXiXiXiXiXiXiXiXiXiXiXiX",
"iXiXiXiXiXiXiXiXiXiXiXiXiXiXiXiXiXiXO $ 7 p D.Y..XOXOXOX.X'.R.x.1.1.,.,.,.-.} Z n z n ` O.=.$.L 9 1 $ o iXiXiXiXiXiXiXiXiXiXiXiXiXiXiXiXiXiX",
"iXiXiXiXiXiXiXiXiXiXiXiXiXiXiXiXiXiXo + : i D.Y.|.XXoX X`.W.B.x.<.,.@.,.,.>.} Z z k z ` { =.} J 9 1 O o iXiXiXiXiXiXiXiXiXiXiXiXiXiXiXiXiXiX",
"iXiXiXiXiXiXiXiXiXiXiXiXiXiXiXiXiXiX. + : i 7.P.Z.`.`.`.W.C.b.d.1.,.@.,.,.=.| A z z z ` { =.} J 9 1 O . iXiXiXiXiXiXiXiXiXiXiXiXiXiXiXiXiXiX",
"iXiXiXiXiXiXiXiXiXiXiXiXiXiXiXiXiXiXo $ : u ( v.C.Z.Z.C.C.N.k.a.,.,.,.,.,.>.} Z n z z ` | =.$.J 9 1 # O iXiXiXiXiXiXiXiXiXiXiXiXiXiXiXiXiXiX",
"iXiXiXiXiXiXiXiXiXiXiXiXiXiXiXiXiXiXo $ 2 y ! y.V.C.V.V.N.M.h.g.1.,.>.>.>.=.{ Z z k z ` { =.%.J 9 1 # . iXiXiXiXiXiXiXiXiXiXiXiXiXiXiXiXiXiX",
"iXiXiXiXiXiXiXiXiXiXiXiXiXiXiXiXiXiXo $ 2 y ! t.m.V.V.N.M.b.h.a.>.#.=.=. .{ ' n z k n ` | =.$.J 9 1 # o iXiXiXiXiXiXiXiXiXiXiXiXiXiXiXiXiXiX",
"iXiXiXiXiXiXiXiXiXiXiXiXiXiXiXiXiXiXo $ 2 y ! t.N.V.V.V.M.b.h.a.>.>.=.{ [ ' M b j k b ` | =.$.J 9 1 # o iXiXiXiXiXiXiXiXiXiXiXiXiXiXiXiXiXiX",
"iXiXiXiXiXiXiXiXiXiXiXiXiXiXiXiXiXiXo $ 4 y ! t.m.V.V.V.N.b.h.a.>.=.| [ Z n k j l j b ' { =.$.J 9 1 $ o iXiXiXiXiXiXiXiXiXiXiXiXiXiXiXiXiXiX",
"iXiXiXiXiXiXiXiXiXiXiXiXiXiXiXiXiXiXo $ 2 y ~ t.N.V.V.V.N.b.h.s.1.=.} Z n x j g g k n ' O.X.$.J 9 ; # @ iXiXiXiXiXiXiXiXiXiXiXiXiXiXiXiXiXiX",
"iXiXiXiXiXiXiXiXiXiXiXiXiXiXiXiXiXiXo $ 4 y ~ y.N.V.V.V.N.b.j.s.g.=.| ` M b z k k b Z ..X.;.&.K t ; $ o iXiXiXiXiXiXiXiXiXiXiXiXiXiXiXiXiXiX",
"iXiXiXiXiXiXiXiXiXiXiXiXiXiXiXiXiXiX@ O 4 y ~ y.V.V.V.V.N.M.b.k.d.;.:...Z N M M N Z ]  .p.g.&.Q t 2 # o iXiXiXiXiXiXiXiXiXiXiXiXiXiXiXiXiXiX",
"iXiXiXiXiXiXiXiXiXiXiXiXiXiXiXiXiXiX@ $ 4 y ~ y.V.V.V.N.N.N.M.b.k.d.p.:.} { [ [ [ .. .;.s.k.8.Q t 2 $ @ iXiXiXiXiXiXiXiXiXiXiXiXiXiXiXiXiXiX",
"iXiXiXiXiXiXiXiXiXiXiXiXiXiXiXiXiXiXo $ 4 y ! t.N.V.V.V.N.N.N.M.b.j.d.p.-.X.X.O.X.X.;.a.h.k.t.! y 2 $ o iXiXiXiXiXiXiXiXiXiXiXiXiXiXiXiXiXiX",
"iXiXiXiXiXiXiXiXiXiXiXiXiXiXiXiXiXiXo $ 4 e ! 0.z.m.m.N.N.N.V.V.N.b.j.s.g.<.1.>.<.<.g.d.k.z.0.T e - $ o iXiXiXiXiXiXiXiXiXiXiXiXiXiXiXiXiXiX",
"iXiXiXiXiXiXiXiXiXiXiXiXiXiXiXiXiXiX. $ - w F ~ 4.u.v.m.V.V.V.V.V.N.b.j.h.s.s.s.s.s.d.p.8.^ ! U r - $ . iXiXiXiXiXiXiXiXiXiXiXiXiXiXiXiXiXiX",
"iXiXiXiXiXiXiXiXiXiXiXiXiXiXiXiXiXiXiXiX= 6 r u U ~ 0.n.V.V.C.V.V.N.N.M.j.j.j.j.b.k.p.*.! F u r 8 = iXiXiXiXiXiXiXiXiXiXiXiXiXiXiXiXiXiXiXiX",
"iXiXiXiXiXiXiXiXiXiXiXiXiXiXiXiXiXiXiXiXiX; - 7 w F ~ t.m.V.V.V.V.N.N.N.M.M.M.M.M.b.8.! F w 7 2 ; iXiXiXiXiXiXiXiXiXiXiXiXiXiXiXiXiXiXiXiXiX",
"iXiXiXiXiXiXiXiXiXiXiXiXiXiXiXiXiXiXiXiXiXiX+ * 2 r T 0.n.N.N.m.m.m.m.m.m.m.m.N.m.n.0.T e - % O iXiXiXiXiXiXiXiXiXiXiXiXiXiXiXiXiXiXiXiXiXiX",
"iXiXiXiXiXiXiXiXiXiXiXiXiXiXiXiXiXiXiXiXiXiXX O = 8 F ! q.u.u.u.0.0.0.0.0.0.0.u.0.q.! u 8 * + X iXiXiXiXiXiXiXiXiXiXiXiXiXiXiXiXiXiXiXiXiXiX",
"iXiXiXiXiXiXiXiXiXiXiXiXiXiXiXiXiXiXiXiXiXiXiXiX$ 5 r F U Y Y R Y Y Y Y Y T T T T Y F e 7 $ iXiXiXiXiXiXiXiXiXiXiXiXiXiXiXiXiXiXiXiXiXiXiXiX",
"iXiXiXiXiXiXiXiXiXiXiXiXiXiXiXiXiXiXiXiXiXiXiXiXiX- 7 8 q q q w q q q q q q q w q q q 7 ; iXiXiXiXiXiXiXiXiXiXiXiXiXiXiXiXiXiXiXiXiXiXiXiXiX",
"iXiXiXiXiXiXiXiXiXiXiXiXiXiXiXiXiXiXiXiXiXiXiXiXiXiX= = = = = = = = = = = = ; & = = = = iXiXiXiXiXiXiXiXiXiXiXiXiXiXiXiXiXiXiXiXiXiXiXiXiXiX",
"iXiXiXiXiXiXiXiXiXiXiXiXiXiXiXiXiXiXiXiXiXiXiXiXiXiXiXO O O + + O O O O O O O O O O O iXiXiXiXiXiXiXiXiXiXiXiXiXiXiXiXiXiXiXiXiXiXiXiXiXiXiX",
"iXiXiXiXiXiXiXiXiXiXiXiXiXiXiXiXiXiXiXiXiXiXiXiXiXiXiXiX. X X . X X X . . . X X . X iXiXiXiXiXiXiXiXiXiXiXiXiXiXiXiXiXiXiXiXiXiXiXiXiXiXiXiX",
"iXiXiXiXiXiXiXiXiXiXiXiXiXiXiXiXiXiXiXiXiXiXiXiXiXiXiXiXiXiXiXiXiXiXiXiXiXiXiXiXiXiXiXiXiXiXiXiXiXiXiXiXiXiXiXiXiXiXiXiXiXiXiXiXiXiXiXiXiXiX",
"iXiXiXiXiXiXiXiXiXiXiXiXiXiXiXiXiXiXiXiXiXiXiXiXiXiXiXiXiXiXiXiXiXiXiXiXiXiXiXiXiXiXiXiXiXiXiXiXiXiXiXiXiXiXiXiXiXiXiXiXiXiXiXiXiXiXiXiXiXiX",
"iXiXiXiXiXiXiXiXiXiXiXiXiXiXiXiXiXiXiXiXiXiXiXiXiXiXiXiXiXiXiXiXiXiXiXiXiXiXiXiXiXiXiXiXiXiXiXiXiXiXiXiXiXiXiXiXiXiXiXiXiXiXiXiXiXiXiXiXiXiX",
"iXiXiXiXiXiXiXiXiXiXiXiXiXiXiXiXiXiXiXiXiXiXiXiXiXiXiXiXiXiXiXiXiXiXiXiXiXiXiXiXiXiXiXiXiXiXiXiXiXiXiXiXiXiXiXiXiXiXiXiXiXiXiXiXiXiXiXiXiXiX",
"iXiXiXiXiXiXiXiXiXiXiXiXiXiXiXiXiXiXiXiXiXiXiXiXiXa iXiXiXiXiXiXiXiXiXiXiXiXiXiXiXiXiXiXa iXiXiXiXiXiXiXiXiXiXiXiXiXiXiXiXiXiXiXiXiXiXiXiXiX",
"iXiXiXiXiXiXiXiXiXiXiXiXiXiXiXiXiXiXiXiXiXiXiXa a a a a a a a a a a a a a a a a a a a a a a a iXiXiXiXiXiXiXiXiXiXiXiXiXiXiXiXiXiXiXiXiXiXiX",
"iXiXiXiXiXiXiXiXiXiXiXiXiXiXiXiXiXiXiXiXiXiXa a a a a a a a a a a a a a a a a a a a a a a a a a iXiXiXiXiXiXiXiXiXiXiXiXiXiXiXiXiXiXiXiXiXiX",
"iXiXiXiXiXiXiXiXiXiXiXiXiXiXiXiXiXiXiXiXiXa a a a a a a a a a a a a a a a a a a a a a a a a a a a iXiXiXiXiXiXiXiXiXiXiXiXiXiXiXiXiXiXiXiXiX",
"iXiXiXiXiXiXiXiXiXiXiXiXiXiXiXiXiXiXiXiXa a a a a a a a a a a a a a a a a a a a a a a a a a a a a a iXiXiXiXiXiXiXiXiXiXiXiXiXiXiXiXiXiXiXiX",
"iXiXiXiXiXiXiXiXiXiXiXiXiXiXiXiXiXiXiXa a a a a a a a a a a a a a a a a a a a a a a a a a a a a a a a iXiXiXiXiXiXiXiXiXiXiXiXiXiXiXiXiXiXiX",
"iXiXiXiXiXiXiXiXiXiXiXiXiXiXiXiXiXiXa a a a a a a a a a a a a a a a a a a a a a a a a a a a a a a a a a iXiXiXiXiXiXiXiXiXiXiXiXiXiXiXiXiXiX",
"iXiXiXiXiXiXiXiXiXiXiXiXiXiXiXiXiXiXa a a a a a a a a a a a a a a a a a a a a a a a a a a a a a a a a a iXiXiXiXiXiXiXiXiXiXiXiXiXiXiXiXiXiX",
"iXiXiXiXiXiXiXiXiXiXiXiXiXiXiXiXiXiXa a a a a a a a a a a a a a a a a a a a a a a a a a a a a a a a a a iXiXiXiXiXiXiXiXiXiXiXiXiXiXiXiXiXiX",
"iXiXiXiXiXiXiXiXiXiXiXiXiXiXiXiXiXiXiXiXa a a a a a a a a a a a a a a a a a a a a a a a a a a a a a iXiXiXiXiXiXiXiXiXiXiXiXiXiXiXiXiXiXiXiX",
"iXiXiXiXiXiXiXiXiXiXiXiXiXiXiXiXiXiXiXiXiXa a a a a a a a a a a a a a a a a a a a a a a a a a a a iXiXiXiXiXiXiXiXiXiXiXiXiXiXiXiXiXiXiXiXiX",
"iXiXiXiXiXiXiXiXiXiXiXiXiXiXiXiXiXiXiXiXiXiXa a a a a a a a a a a a a a a a a a a a a a a a a a iXiXiXiXiXiXiXiXiXiXiXiXiXiXiXiXiXiXiXiXiXiX",
"iXiXiXiXiXiXiXiXiXiXiXiXiXiXiXiXiXiXiXiXiXiXiXa a a a a a a a a a a a a a a a a a a a a a a a iXiXiXiXiXiXiXiXiXiXiXiXiXiXiXiXiXiXiXiXiXiXiX",
"iXiXiXiXiXiXiXiXiXiXiXiXiXiXiXiXiXiXiXiXiXiXiXiXa a a a a a a a a a a a a a a a a a a a a a iXiXiXiXiXiXiXiXiXiXiXiXiXiXiXiXiXiXiXiXiXiXiXiX",
"iXiXiXiXiXiXiXiXiXiXiXiXiXiXiXiXiXiXiXiXiXiXiXiXiXiXiXiXiXiXiXiXiXiXiXiXiXiXiXiXiXiXiXiXiXiXiXiXiXiXiXiXiXiXiXiXiXiXiXiXiXiXiXiXiXiXiXiXiXiX",
"iXiXiXiXiXiXiXiXiXiXiXiXiXiXiXiXiXiXiXiXiXiXiXiXiXiXiXiXiXiXiXiXiXiXiXiXiXiXiXiXiXiXiXiXiXiXiXiXiXiXiXiXiXiXiXiXiXiXiXiXiXiXiXiXiXiXiXiXiXiX",
"iXiXiXiXiXiXiXiXiXiXiXiXiXiXiXiXiXiXiXiXiXiXiXiXiXiXiXiXiXiXiXiXiXiXiXiXiXiXiXiXiXiXiXiXiXiXiXiXiXiXiXiXiXiXiXiXiXiXiXiXiXiXiXiXiXiXiXiXiXiX",
"iXiXiXiXiXiXiXiXiXiXiXiXiXiXiXiXiXiXiXiXiXiXiXiXiXiXiXiXiXiXiXiXiXiXiXiXiXiXiXiXiXiXiXiXiXiXiXiXiXiXiXiXiXiXiXiXiXiXiXiXiXiXiXiXiXiXiXiXiXiX"
};
