/* XPM */
static char *Doors1737883620[] = {
/* columns rows colors chars-per-pixel */
"70 70 87 1 ",
"  c #6E455E",
". c #70475F",
"X c #744B5F",
"o c #784F5F",
"O c #7C515E",
"+ c #744B60",
"@ c #7D5460",
"# c #82565E",
"$ c #85595D",
"% c #8B5D5C",
"& c #8F615C",
"* c #9F6E57",
"= c #92645C",
"- c #96685D",
"; c #9B6C5A",
": c #9F705B",
"> c #A06F57",
", c #A47357",
"< c #A97757",
"1 c #AA7957",
"2 c #A47359",
"3 c #A87758",
"4 c #A6785F",
"5 c #AA7958",
"6 c #805762",
"7 c #845B62",
"8 c #895F61",
"9 c #8C6363",
"0 c #926661",
"q c #946963",
"w c #996E63",
"e c #926A6A",
"r c #9D7365",
"t c #9E7468",
"y c #A17564",
"u c #A57A64",
"i c #AA7E64",
"p c #A0766A",
"a c #A47B6D",
"s c #AE8365",
"d c #AE8469",
"f c #B38663",
"g c #B48967",
"h c #B18768",
"j c #B38969",
"k c #B98E68",
"l c #BD926A",
"z c #A78172",
"x c #AA8372",
"c c #B28B75",
"v c #B88F74",
"b c #B38D79",
"n c #BA9274",
"m c #B7927D",
"M c #BB9579",
"N c #BF9A7A",
"B c #C0966C",
"V c #C49A6B",
"C c #C89E6C",
"Z c #C59D74",
"A c #C19C7C",
"S c #CAA273",
"D c #C5A07F",
"F c #CCA47A",
"G c #CFA97A",
"H c #D1AB7C",
"J c #BD9A82",
"K c #C19E83",
"L c #C4A285",
"P c #CAA786",
"I c #CEAA83",
"U c #C4A288",
"Y c #C8A689",
"T c #CBAB8A",
"R c #D3AF82",
"E c #D6B182",
"W c #D9B584",
"Q c #D1B18E",
"! c #CEAF90",
"~ c #D3B493",
"^ c #D6B996",
"/ c #DABC96",
"( c #DABD98",
") c #DEC29B",
"_ c #E3C89F",
"` c #E3C8A0",
"' c None",
/* pixels */
"++++..+.+''''''''''''''''''''''''''''''''''''''''''''''''''''+++++++++",
"@@@@@@@@@''''''''''''''''''''''''''''''''''''''''''''''''''''@@@@@@+@@",
"898999999@''''''''''''''''''''''''''''''''''''''''''''''''''@9999%9999",
"rrrrrrwwe7@''''''''''''''''''''''''''''''''''''''''''''''''@9qwwrrrtrr",
"dddhhhsuw9@@''''''''''''''''''''''''''''''''''''''''''''''+@9wtdhhfsff",
"llllllksr9@+X''''''''''''''''''''''''''''''''''''''''''''X+@9whlBBlllk",
"VVVVCCljt9@+.''''''''''''''''''''''''''''''''''''''''''''X@@9rhlVCVVBV",
"VVVCCCVgy9@+.''''''''''''''''''''''''''''''''''''''''''''.+@9rklCCVCVV",
"CllCCCljt0@@.''''''................................''''''.+@erklVCVVVV",
"CCCCCCljt9@+.'''''oX+oXoo+O+oXXoo+XoooXXXoX+oooXXoXX'''''.+@9tklVVVVVV",
"lClClCljt9O+.''''@OO@@@@@@@O@@6@@@@@OOOO@@@@@@@O@@O@@''''.X@9rjlVVVVVV",
"ClCClCljt0@o..'''99999909999999999999e099999990909999'''..X@0rjlVVVBVV",
"lCVlVVljr9@o. .XO9wrttytyypyyypyyytttyttz:rrrtrrttrw9@+. .X@9rklVVVVVB",
"ClVCCllgre@+. .o9qzsgjjshhhhhghhhhfdfjhhhjhhjjhhjjszq9@X .X@9rjlVVVVBV",
"VVCCCClju9@+..o@9rsglllllllllkkkllklllklllklllllllgsr9@O..X@9rjlCCCCVV",
"SSSCFSSjue@+oO@9qtsgkllkgkkkkkkglkkkkkkkkkkkkkkklkfsrq9@+o@O9zkSFSZFCC",
"GGHHHHGNze@@@99wrusssfsssfsssssfssssssssssfsssssssssutw99@@@eznFHHHGGG",
"EHHEWHHNze@@@erszsurr::uy22r2yyy44yr4y:2:4rru:4::rurussrq@@9ezNGEWEEEH",
"WWWWWWRAxe@@9wshss:;=0=;=-=-0--0=---=-=;;0;==;---=;rssfsw9@@ezNQWWWEWW",
"RRRRWEGNze7@9rdjfuw=&&&&======&=&&=&=&==&&&&&&&&&&=:uhhsr9@@ezNGEEERER",
"FFFFFGScae@@9wussu;&&%%&%&%%&%%=&%&%&%&%&&%&&%&%&&=wrssuq9@@eamZFGFFFF",
"lBBVNlldw9@@$&ru:r==&&%%%&&&&&%%%&%&%%%&&&&%&&$&%&&-::ur07@@9wsvBVBBBl",
"fffffgsuq&@oO&=;--=&&&&&%&%&&%&%=%=%&&&&&&&%&&&&&&&&;;q0&@@O8;usffffhf",
"5111s55:=$oo@$%===&&&&&&&==&&=&&%&&=&&&&&&&&&=&&&&&&9=&&$OO+$=:15f5555",
"1<<11<<;=$OoO#$%&&&&=======&=&&&=&=8=&&&&=&======&&&&&&$OOoO$&*,1<1<<<",
"<<<<1<,;&$OoO#%%&&&&==-;*;==&&9==&==&&&&&&=--*;-===&&&&$$OoO$&*,<<<<<<",
"<<<<11,*&$OoO#$%&&&&=-;;:;;==&&&%==%&&&&&==-***;;=&&&&&$$ooo$=*,5533<<",
"333155,;=$OoO$%&&&&==;:2,**==&&&=%&=0&&&&&-;*:,:;=&&&&&&$@oO$&:2353333",
",3,<3,<;&$ooO$%&&&&==*:3<:;==&&&&&0&&&&9&=-::,<:;==&&&&$OOoO$&*:<<,32,",
";;2;2;;=&OOoO$$&&&&==;:322;-=&&&&&&&&&&&&&=:2,<:;==&&&&$&OooO&=*>>>>>;",
";;;;;;==$OOoO$$&&&&&=;:,32;-=&&&&&&0&&&&&==:25<:*=&&&&&&OOooO&==*--;;-",
"=======&$OOoO$%&&&&=-*:<2:;==&&&&&&&9&&&&==;:2,*;==&&&&&$OooO$&==-==-=",
"=&=&0&&%###.##%&&&&=-;;32>;-0&&&0&0&&&&&&=-;>222--&&&&&%#OooO#%&=====-",
"----=>=&##.###%&&&&&--2232;-&&&&&&&&&&&&&==*>32;;-&&&&&%#OooO%%*-=;==-",
">-->>>>&$#+++##&&&&==;2222;-&&&&&&&&&&&&&==;>222;-=&&&%%##oo#%&*;;;;*;",
">2222>>0&##+##%&&&&==;;23;---&&&&&0&&&==&&-;2222;-&&&&%%#Ooo#&=*:222>,",
"33335<2>&$#X###%&&&=--2322--=&&&&&&&=&&&&==;222>--&&&&%%##X##&*,33<333",
"3333552>=$#X##%&&&&&-;>222;-=&&&&&0&&9&&&=-*>23>-=&&&&%%##XX$=*,511533",
"555555,>=##.X#%&&&&==;222;;==&&&&&0&&&&&&=-;>2,>;&%&&&%%##o#$=*<551111",
"5555552>=##X##%%&&&&=-2322*-0&&&&&&&&9&&&==;>2>>;&&%&&&%#XX#$&*<555511",
"5555555>=##X##%&=&&&=;>>22-==&&&&&&&&&&&&==*>222;-&&%=%%##o##=*,555555",
"5555552>=##+##%%&&&=;;>,22;-=&&&&0&&&&&&&&->4iii4twq-0&%#Xoo#&><555155",
"<<55552>=#ooX##&&&&&=;>33>;-=&&&&&0&&&&&%&-4ivBvibpptq&%##Xo$&>,155111",
"5<15552>=##o##%&&&&=--2222--=&&&&&0&&&&%=-taBKPIYUKKat&%#XX#$=>,555111",
"5555555>=##oO#%&&&&&-;>322---&&&&&&&&&&%%-tcKQ(((^!Kcp07#X.#$=>25515<<",
"2525552;=#ooO#%&&&&&=;2222;-&&&&&&&0&&&&%-pbY~)```^YKa0%##oo$=>,3333<<",
"22222220%#OoO#%&&&&&=;>222--&&&&&&0&&==%%&pvKQ/))(~Kvp=%#.+##&->33,3,,",
">>;:>>>=%#ooO#%&=&&&-;>222;--&&&&&&&&&%%&-taKKIIYKKKat=###+6#%&>;:;:;;",
"0=>----&$#oo##%&&&&&-*2222--==%&9&=&&&%&&&wpiBvAKibay-=%##+###%=;-;--;",
"-=-&--=&$ooXo$%&&&&==->232;==%=%&&&0&&&&&&>:iiiittwt-==%##.###%&-=====",
"&&&=-&&&$#Xo##$&&&&=-;>22>;-0=&&&&&&&&&&&0=>2322*-0&&&%%##++#$&&======",
">-->---&$#ooo#%&&&&&=*>232--&&&&&&==&&&&&&-->2,>-=%%&%%%#++##%&---;-=;",
"->>>>;>&%#ooo#%&&&&=-;;222--=&&&&&0&&&&&&==>>22>;&&%&&%%##oo#$=>;;:;;;",
"222>222-&#oo##$&&&=&--2222;-=&&=&&&&&&&=&==>222>*=&&&&%%##+o#%->22,233",
"2255352;&$oX#$%&&&%=-;;322--=&%%&&=&&&&&===>:22>;=&&&&&%#o+#$&>>553533",
"5555553:=$#Xo#$&&&=&=;2222;-=&&=&&&9&&&&&==0232>;=&&&&&%##+#$=>25111<1",
"5155554;=$oo##%&&&&==*222>*==&&&&&&&&&&&&=;*>>32;-=&&&&%#oo##=>2555555",
"5555553>&$ooo$$&&&=&=*>33>*-==&&0&&&&&0&&=-*,2y:;-&&&&&$##Xo$=>2555155",
"3515553;=$ooo#%&&&&==->222*=&&&&&&&&&&&&&&&;,22>;=&&&&&%##X#$=>2515555",
"1555554;=$#o##%&&&&&=*>22;;==&&&&====&&&&&=*>>2>;=&&&&%%#ooo$0>2555515",
"5555555>=$#oo$%&=&&==-;*2;-==&&&&==&&&&&&&--*>**-==&&=&%$ooO$=>2555151",
"1155553>=#oXo$%&&==&==-;--==&==&=&&&==&=&&&;---;-=&&&&&%$#oo$=>5511111",
"335535,*=$#o##$&&&&&&==-=====&&&%=&&&&&&&&&&==&=&&&&&&%%#ooo$&>2555311",
"33,<3,,*&$oXo#$&%&&&%&%&&&&&%&%&%%&%&%&&%&&&&&&&&&&&&&%%$o@+$0;2232323",
";;;;;;;=&OoooO$&$$&$%$%%$%%$%%$%$%$%$$$$%$$%$$$$%$$$%$%$#o.##$=*;;>*;;",
"&=&===&&$OoooOOO$$O$$OO#O@###6#O########################oooo##%&&&=&&&",
"#$#$$$O$OooXoooOOOOOOOOOOOOOOooOo#Oo@o##o#oo#o#o##o#o#+##+o+.##$#$$#$$",
"oooooooooXXXXXoXooooXoXX++ooooXooXoXXXXXo+o+XXXX+.o.XXX++o.oXo.ooooooo",
"XXXXXXXXXXXX.XXX.XXXXXXXXX.X+XXX.XX.XXX.XXXXXX.Xo.X..XXX.o+.o.o.XXXXXX",
".... ....XX.XX..X.X.++++++++++++++++++++++++++++++++++++++.o.+.. ....."
};
