/* XPM */
static char *player1737537738[] = {
/* columns rows colors chars-per-pixel */
"70 70 226 2 ",
"   c #0F132A",
".  c #12162C",
"X  c #15182E",
"o  c #1A1A2E",
"O  c #161A31",
"+  c #1B1D32",
"@  c #1B1F39",
"#  c #221D31",
"$  c #291F33",
"%  c #201C2F",
"&  c #1E223A",
"*  c #1D2135",
"=  c #242234",
"-  c #2B2335",
";  c #21253D",
":  c #2E2A3B",
">  c #2B2738",
",  c #332536",
"<  c #332D3B",
"1  c #3C2B3A",
"2  c #382737",
"3  c #3A323E",
"4  c #37313E",
"5  c #442D3C",
"6  c #4A2E3D",
"7  c #4C323E",
"8  c #42323E",
"9  c #51343F",
"0  c #1F354B",
"q  c #272B45",
"w  c #2A2E48",
"e  c #272942",
"r  c #312E43",
"t  c #2D324E",
"y  c #24384D",
"u  c #3C3441",
"i  c #383449",
"p  c #2F3450",
"a  c #313652",
"s  c #373B5A",
"d  c #3A3F5E",
"f  c #383A54",
"g  c #433644",
"h  c #443A44",
"j  c #4A3C46",
"k  c #433C4C",
"l  c #4A3441",
"z  c #553542",
"x  c #5C3642",
"c  c #5B3A43",
"v  c #583B48",
"b  c #4B3C50",
"n  c #653C46",
"m  c #6B3C49",
"M  c #693C47",
"N  c #713F4B",
"B  c #3E415E",
"V  c #3C4152",
"C  c #30566A",
"Z  c #4D4149",
"A  c #53444C",
"S  c #5A464C",
"D  c #42425D",
"F  c #484457",
"G  c #5B4B52",
"H  c #564957",
"J  c #6B4249",
"K  c #664349",
"L  c #75424B",
"P  c #7B434E",
"I  c #784A4D",
"U  c #674B55",
"Y  c #794B53",
"T  c #655254",
"R  c #6A5556",
"E  c #6B5659",
"W  c #68545A",
"Q  c #735B5B",
"!  c #79565A",
"~  c #7B615E",
"^  c #454560",
"/  c #4B4962",
"(  c #474A62",
")  c #524D63",
"_  c #5E4F62",
"`  c #5B5365",
"'  c #5D5569",
"]  c #555568",
"[  c #4C5A71",
"{  c #655B6B",
"}  c #665867",
"|  c #765B63",
" . c #5C6B7E",
".. c #6D616E",
"X. c #7D6362",
"o. c #73636C",
"O. c #7B656B",
"+. c #6A6777",
"@. c #766772",
"#. c #864A53",
"$. c #894B55",
"%. c #844852",
"&. c #8C5454",
"*. c #855658",
"=. c #955758",
"-. c #834C4F",
";. c #A15C5B",
":. c #9D625E",
">. c #AA625D",
",. c #A4605C",
"<. c #885D64",
"1. c #945963",
"2. c #826463",
"3. c #8A6C66",
"4. c #8A6D6C",
"5. c #846869",
"6. c #9D6363",
"7. c #966667",
"8. c #95746C",
"9. c #9C796E",
"0. c #99756C",
"q. c #846C74",
"w. c #897277",
"e. c #897378",
"r. c #9C7A71",
"t. c #93797A",
"y. c #977A78",
"u. c #91706D",
"i. c #A76764",
"p. c #B56C65",
"a. c #B8766C",
"s. c #A27D72",
"d. c #AA7974",
"f. c #AF7570",
"g. c #A15C60",
"h. c #C4756A",
"j. c #C4776B",
"k. c #C37C72",
"l. c #9E817F",
"z. c #AB857C",
"x. c #A98477",
"c. c #B28A7B",
"v. c #B88577",
"b. c #BD917F",
"n. c #CC8374",
"m. c #CC8B7A",
"M. c #C68878",
"N. c #D28877",
"B. c #C8917F",
"V. c #D1907E",
"C. c #3B7589",
"Z. c #546B82",
"A. c #4F768B",
"S. c #6C7B90",
"D. c #857A87",
"F. c #957885",
"G. c #A67982",
"H. c #B07F85",
"J. c #51869B",
"K. c #4893A7",
"L. c #5993A7",
"P. c #61A8B9",
"I. c #7BA5B6",
"U. c #7390A3",
"Y. c #9A8186",
"T. c #99949D",
"R. c #8F8792",
"E. c #A98786",
"W. c #B48D84",
"Q. c #B88F81",
"!. c #B98486",
"~. c #B69087",
"^. c #BC9283",
"/. c #BE968A",
"(. c #AF9698",
"). c #9296A3",
"_. c #B89AA4",
"`. c #A49BA6",
"'. c #BCA3AC",
"]. c #B4B0B8",
"[. c #96ABBA",
"{. c #C39683",
"}. c #CB9B85",
"|. c #CD9E8B",
" X c #C69788",
".X c #DB9681",
"XX c #DD9983",
"oX c #D49A86",
"OX c #C6958F",
"+X c #E39E87",
"@X c #D4A38C",
"#X c #DAA38C",
"$X c #DDA88F",
"%X c #DDAB93",
"&X c #D8A892",
"*X c #CFA28E",
"=X c #E4A58C",
"-X c #EAA98F",
";X c #E7A78E",
":X c #E3AD94",
">X c #EDAC91",
",X c #E6B097",
"<X c #EAB196",
"1X c #ECB499",
"2X c #F2B396",
"3X c #F4B699",
"4X c #F4BA9B",
"5X c #FABE9E",
"6X c #F0AF93",
"7X c #CAB9B9",
"8X c #D1B0AC",
"9X c #E1B6A6",
"0X c #FFC2A1",
"qX c #81B6C5",
"wX c #9CB9C6",
"eX c #B7B9C3",
"rX c #C9BCC4",
"tX c #A7C5D2",
"yX c #CEC4CD",
"uX c #D5C5CA",
"iX c #D8D6DE",
"pX c #C2D1DB",
"aX c #DCDDE5",
"sX c #D6D8E0",
"dX c #DFE0E8",
"fX c None",
/* pixels */
"fXfXfXfXfXfXfXfXfXfXfXfXfXfXfXfXfXfXfXfXfXfX  . O . O . X X . . O X X . O X X . . O . O . .     fXfXfXfXfXfXfXfXfXfXfXfXfXfXfXfXfXfXfXfXfXfX",
"fXfXfXfXfXfXfXfXfXfXfXfXfXfXfXfXfXfXfXfXfXfX. . . O . O X X X X O . X X . X . O O . O . . O     fXfXfXfXfXfXfXfXfXfXfXfXfXfXfXfXfXfXfXfXfXfX",
"fXfXfXfXfXfXfXfXfXfXfXfXfXfXfXfXfXfXfXfXfXO O O O X O O O O O O O O O X O O O O . O O O O O .   fXfXfXfXfXfXfXfXfXfXfXfXfXfXfXfXfXfXfXfXfXfX",
"fXfXfXfXfXfXfXfXfXfXfXfXfXfXfXfXfXfXfXfXfX@ @ @ @ @ e @ & & @ & & & & & & & & & @ @ e @ e @ @ @ fXfXfXfXfXfXfXfXfXfXfXfXfXfXfXfXfXfXfXfXfXfX",
"fXfXfXfXfXfXfXfXfXfXfXfXfXfXfXfXfXfXfX. @ @ ; q q q q q q q q q q q q q q q q q q q q q q q q @ @ O fXfXfXfXfXfXfXfXfXfXfXfXfXfXfXfXfXfXfXfX",
"fXfXfXfXfXfXfXfXfXfXfXfXfXfXfXfXfXfX. O @ ; q t p p p p p p p p p p p p a t p p p p p p t t q q @ O . fXfXfXfXfXfXfXfXfXfXfXfXfXfXfXfXfXfXfX",
"fXfXfXfXfXfXfXfXfXfXfXfXfXfXfXfXfXO   O @ ; t a s s s s s s s s s s s s s s s s s s s s s s t q @ O     fXfXfXfXfXfXfXfXfXfXfXfXfXfXfXfXfXfX",
"fXfXfXfXfXfXfXfXfXfXfXfXfXfXfXfXfX@ @ @ ; 0 t s d d s d d d d d d d d d s d d d d s d d s s a w q @ @ O fXfXfXfXfXfXfXfXfXfXfXfXfXfXfXfXfXfX",
"fXfXfXfXfXfXfXfXfXfXfXfXfXfXfXfX@ & ; ; w t a s d d d d B d d d d d d d d d B d d d d d d d a t q q e @ @ O fXfXfXfXfXfXfXfXfXfXfXfXfXfXfXfX",
"fXfXfXfXfXfXfXfXfXfXfXfXfXfX. O @ ; q t t a s s d d B d d d d d d d B d d d d d d d d d d s s a p t q q @ O X fXfXfXfXfXfXfXfXfXfXfXfXfXfXfX",
"fXfXfXfXfXfXfXfXfXfXfXfXfX  . O & q t s s s s s s d d d d d d d d d d d d d d d d d d B d s d s s a t q e .     fXfXfXfXfXfXfXfXfXfXfXfXfXfX",
"fXfXfXfXfXfXfXfXfXfXfXfXfX  . O & q t s s d d d d d d d d d d d d d d d d d d d d d d d d d d d s s a q e O O   fXfXfXfXfXfXfXfXfXfXfXfXfXfX",
"fXfXfXfXfXfXfXfXfXfXfXfXfX. . O & w p s d d d B d d d B d d d d d d d d d B d B d d d d d d d d d s a t @ O . . fXfXfXfXfXfXfXfXfXfXfXfXfXfX",
"fXfXfXfXfXfXfXfXfXfXfXfXfX. X O & q p s d d d B d d d d d d B d d d d d d d d d d d d d d d d d d s a 0 e O . . fXfXfXfXfXfXfXfXfXfXfXfXfXfX",
"fXfXfXfXfXfXfXfXfXfXfXfXfX. X O ; q y s d d B B d d d d d d d d B d d d d d d d d d d d d d d d d s a w e O X . fXfXfXfXfXfXfXfXfXfXfXfXfXfX",
"fXfXfXfXfXfXfXfXfXfXfXfXfX. X O & 0 a s d B B B B B B d d d d d d d d d d d d d d B B B B ( ^ B d d a w e O   O fXfXfXfXfXfXfXfXfXfXfXfXfXfX",
"fXfXfXfXfXfXfXfXfXfXfXfXfX. X O & q t B B ) ' { { ] / D B B d B d d d d d d d d B B D ] ' ..' ) ^ B a w @ O . . fXfXfXfXfXfXfXfXfXfXfXfXfXfX",
"fXfXfXfXfXfXfXfXfXfXfXfXfX. X O & q t B / { @.e.e.@.' D d B d d d d B d d B d d B D ' ..@.t.q...) B a w e O .   fXfXfXfXfXfXfXfXfXfXfXfXfXfX",
"fXfXfXfXfXfXfXfXfXfXfXfXfX. X O & q a B ` @.l.~.W.e.../ d B B d d d B d d d B B B ( ..@.z.~.Y.q.{ ^ a t e O . . fXfXfXfXfXfXfXfXfXfXfXfXfXfX",
"fXfXfXfXfXfXfXfXfXfXfXfXfX. X X & w a B { e.~.&X*XE.q.] B B B B B B B B B B B B B / @.l.|.%X Xt.{ ^ a w e O . . fXfXfXfXfXfXfXfXfXfXfXfXfXfX",
"fXfXfXfXfXfXfXfXfXfXfXfXfX. . O ; q a D { t./.,X:X/.l...} ' ' ' [ ' ' ' ' ' ' ' ' ..e.~.&X,X|.Y.@./ a w e O . . fXfXfXfXfXfXfXfXfXfXfXfXfXfX",
"fXfXfXfXfXfXfXfXfXfXfXfXfX. . O & q p D ..t./.,X<X*XW.l.e.e.e.e.e.w.w.w.e.e.e.e.e.t.E.*X,X1X*XY.../ a w e O . . fXfXfXfXfXfXfXfXfXfXfXfXfXfX",
"fXfXfXfXfXfXfXfXfXfXfXfXfXX . O & q p D { t./.,X1X,X*X/.~.~.~.~.~.~.~.~.~.~.~.~.~./.*X%X1X1X|.x.@.( a w & O X . fXfXfXfXfXfXfXfXfXfXfXfXfXfX",
"fXfXfXfXfXfXfXfXfXfXfXfXfXX . * ; q a D { t./.,X4X1X<X,X%X%X%X%X%X:X%X%X%X%X%X%X%X:X<X1X4X1XOXY.| ^ s w e O X X fXfXfXfXfXfXfXfXfXfXfXfXfXfX",
"fXfXfXfXfXfXfXfXfXfXfXfXfX: : > r t a D } w.W.@X:X:X:X:X,X<X1X4X5X5X5X0X5X4X1X1X:X:X:X:X:X&X^.t...( V i w : > > fXfXfXfXfXfXfXfXfXfXfXfXfXfX",
"fXfXfXfXfXfXfXfXfXfXfXfXu Z G G H F D D ) o.e.z.Q.Q.Q.Q.^.|.%X1X5X0X0X0X5X1X:X*X{.^.Q.Q.Q.c.t.O.] B V F F G G A k fXfXfXfXfXfXfXfXfXfXfXfXfX",
"fXfXfXfXfXfXfXfXfXfXfX< A ~ 5.3.X.} F D / ` | 5.4.4.4.4.8.z. X:X5X0X0X0X5X,X*XW.t.4.4.4.4.5.o.} / D F ` X.5.3.~ U u + fXfXfXfXfXfXfXfXfXfXfX",
"fXfXfXfXfXfXfXfXfX. X 4 T 3.c.b.y.O.` D B F F H H H H H } 4.c.#X4X0X0X0X5X:XQ.8.X.H H G H H H D D B ( ..l.c.c.9.E g + . fXfXfXfXfXfXfXfXfXfX",
"fXfXfXfXfXfXfXfXfX. o 3 R r.|.$X~.e.{ D s f f f f i i i k | y.@X4X0X0X0X5X&Xz.2.F i i i g f f f f B ` q.W.*X@Xx.~ 8 + . fXfXfXfXfXfXfXfXfXfX",
"fXfXfXfXfXfXfXfXfX. X 3 E s.@X,X Xt.{ ^ D F H H G b i r i W r.|.4X0X0X0X4X&Xx.| k r r k H H H F D D ] w.~.%X$Xc.~ h + . . fXfXfXfXfXfXfXfXfX",
"fXfXfXfXfXfXfXfXfX. o 3 E s.@X:X/.t...( / ` X.O.X.T k r r W 8.}.4X0X0X0X4X#Xs.| g r k H | O.O.} / ^ ' w.~.%X$Xc.~ h # . . fXfXfXfXfXfXfXfXfX",
"fXfXfXfXfXfXfXfXfX. X 3 E s.@X,X/.t.' ( ` o.t.x.r.X.H r 4 G 8.}.1X0X0X0X4X@Xx.E i : Z Q r.x.r.@.} F ] w.~.%X$Xc.~ h o . . fXfXfXfXfXfXfXfXfX",
"fXfXfXfXfXfXfXfXfXX X 3 E s.@X:X/.t.} / { e.c.@Xb.8.T 3 < G 8.B.1X5X5X5X4X#Xs.R 3 < A 3.b.@X/.t.../ ' e.W.&X&Xc.~ h o X fXfXfXfXfXfXfXfXfXfX",
"fXfXfXfXfXfXfXfXfX. X 4 T 8.Q.{.z.w.| _ o.l.}.,X@Xx.R 3 > S 3.v.;X2X2X2X>X}.0.U < < G 8.B.$X*Xz.O.} } q.x.{.^.9.Q h * . fXfXfXfXfXfXfXfXfXfX",
"fXfXfXfXfXfXfXfXfXfXX 4 S X.8.0.u.2.| | 3.x.@X<X@Xx.R 3 > A 2.v..X=X+X+X=Xv.:.S < > S 8.}.,X@Xc.u.| Q <.3.9.9.2.T 3 o fXfXfXfXfXfXfXfXfXfXfX",
"fXfXfXfXfXfXfXfXfXfXfXfXj G R Q ! ! | =.0.b.V.2XB.x.R 3 > 9 ! i.n.N.N.N.n.a.*.A < < G 8.}.<X$XB.d.7.*.! ! Q R G Z < fXfXfXfXfXfXfXfXfXfXfXfX",
"fXfXfXfXfXfXfXfXfXfXfXfXfX4 3 h v I *.i.v.n.V.3X$Xx.E 3 - 7 I :.h.j.j.j.h.>.*.9 , < G 8.B.<X;XV.a.i.=.I S j 3 3 < fXfXfXfXfXfXfXfXfXfXfXfXfX",
"fXfXfXfXfXfXfXfXfXfXfXfXfXX o = l n &.=.p.n.V.3XB.x.~ Z 1 S ! ,.h.h.j.j.p.>.*.K 5 8 R 0.}.;X=XN.a.i.&.L 7 - o X fXfXfXfXfXfXfXfXfXfXfXfXfXfX",
"fXfXfXfXfXfXfXfXfXfXfXfXfX. X o 2 9 J &.:.v.V.V.N.x.3.R U ! 1.a.j.N.N.N.n.a.:.2.T T 2.s.B.XXV.v.i.&.L 9 1 # o . fXfXfXfXfXfXfXfXfXfXfXfXfXfX",
"fXfXfXfXfXfXfXfXfXfXfXfXfX. X o - 1 7 n I :.v.n.n.v.x.x.0.d.v.{.V.N.V.V.V.N.v.x.0.0.s.v.m.m.v.,.$.J z 5 , o . . fXfXfXfXfXfXfXfXfXfXfXfXfXfX",
"fXfXfXfXfXfXfXfXfXfXfXfXfX. X X o - < 5 S ! ,.a.k.m.M.{.{.}.oX=X6X6XV.2X-X=X+XoXOX{.M.M.M.a.>.*.K 7 , - % X . . fXfXfXfXfXfXfXfXfXfXfXfXfXfX",
"fXfXfXfXfXfXfXfXfXfXfXfXfX* X * + # = - 5 J &.>.h.n..X=X>X<X2X2X2X3X5X5X3X3X1X1X>X=XoXN.j.p.=.I 7 < = = * * + + fXfXfXfXfXfXfXfXfXfXfXfXfXfX",
"fXfXfXfXfXfXfXfXfXfXfXfX4 u h h k Z V F H U &.:.p.a.{.oX;X=X;X;X2X3X>X>X>X>X;X=X:XXX.Xa.p.,.&.Y G Z V V Z V h 3 3 fXfXfXfXfXfXfXfXfXfXfXfXfX",
"fXfXfXfXfXfXfXfXfXfXfX: Z T E X.o.o.+.+.@.X.*.&.=.i.p.k.{..X.X.XV.V.V.V..X.X.XoX XM.a.i.=.&.<.| @.+.+.o.o.~ Q T A 3 fXfXfXfXfXfXfXfXfXfXfXfX",
"fXfXfXfXfXfXfXfXfXfXX 4 G ~ l.z.E.(.T.).R.w.| Y %.$.g.i.f.k.k.n.N.N.N.n.N.k.k.k.a.i.g.=.%.Y ! q.R.T.T.T.E.E.l.3.R u o fXfXfXfXfXfXfXfXfXfXfX",
"fXfXfXfXfXfXfXfXfXX + 3 R 9.b.&X9X7X7XrX`.R.O.J m N $.1.g.g.p.p.h.n.h.h.h.h.p.g.g.=.$.N m K | D.`.].rX8X8X%X|.x.~ h = X fXfXfXfXfXfXfXfXfXfX",
"fXfXfXfXfXfXfXfX> < 1 Z ~ x.@X<X9X8X7X].`.D.| S x m N %.$.g.g.a.h.j.k.j.h.p.p.g.=.%.P m x v } D.T.].7X7X9X1X#Xv.3.S 3 < : fXfXfXfXfXfXfXfXfX",
"fXfXfXfXfXfXfXfXZ A T ~ 8.v.V.#X*X(.`.T.D.@.} v x m N %.1.g.f.!.V.}.OXOXOXH.f.i.1.%.P m x v U | l.T.`.(.|.oXoXv.0.X.R G A u fXfXfXfXfXfXfXfX",
"fXfXfXfXfXfX* h T ~ 8.x.x.v.m.m.v.y.e.+.{ _ A z x M N %.1.7.H.OX'.8X8X8X8X'.H.G.1.$.N m x z v ) ] ..@.l.x.v.m.v.v.s.l.2.R Z = fXfXfXfXfXfXfX",
"fXfXfXfXfX  o h Q s.^.V.m.n.n.a.6.Q H V f g 7 9 x n L %.$.G._.'.uXuXuXuXrXrXH.G.1.$.P m x z l l V V F R :.a.n.n.m.V.B.x.~ A = X fXfXfXfXfXfX",
"fXfXfXfX. . + j ~ c.:X>XV.N.j.p.&.K 8 = - , 5 9 n N N $.1.G._.rXiXiXaXaXaXrX'.H.1.$.P N x z 6 , - = < S *.>.j.N.V.-X-Xb.3.A > X . fXfXfXfXfX",
"fXfXfXfX  . = j ~ c.:X2X2XV.N.a.:.K 1 + # 2 7 9 M N N $.1.G._.rXiXdXdXdXdXuX].G.1.$.P N m x 6 2 = % , c &.p.N.V.-X2X<XB.3.A = X . fXfXfXfXfX",
"fXfXfXfX. . = h ~ c.:X4X2XV.V.V.0.I 3 = $ , z M N N %.$.1.G._.rXiXdXdXdXaXyX'.H.7.$.%.P N m x 6 - % < K 3.M.V.-X>X4X4Xb.3.A > . . fXfXfXfXfX",
"fXfXfXfX. . * j ~ c.:X5X5X6X2XV.d.! 8 = $ g x N P %.$.$.1.G._.rXiXdXdXdXaXyX'.H.7.1.%.%.%.N x 6 , # 1 T 0.m.;X<X3X5X1XB.3.G = X . fXfXfXfXfX",
"fXfXfXfX  . * j ~ c.,X5X4X5X5XV.d.| g $ $ l n N %.$.$.$.1.G._.rXiXiXaXaXsXyX'.H.F.$.$.$.$.P m 6 , # 3 R 9.V.<X2X4X4X<Xb.3.A > . . fXfXfXfXfX",
"fXfXfXfXfX. % h Q x.b.B.@XV.$XB.u.U g $ $ 2 z m N %.Y Y <.F.`.eXpXpXpXiXpXtX`.F.<.$.P %.N m x 6 - # < G 3.c.}.@XB.B.B.x.X.A = . fXfXfXfXfXfX",
"fXfXfXfXfXfX* h T ~ l.x.3.x.3.3.E A < * # , 5 z v m U } o.S.).[.wXtXtXtXtXqX).S.q.} U N v v l , $ o > Z T 3.9.9.x.x.x.~ T Z = fXfXfXfXfXfXfX",
"fXfXfXfXfXfXfXfXZ G T T T T T G Z 4 = o o # , 2 g b H ' +.S.U.I.qXqXqXqXqXqXI.S.Z.' _ b l i , $ % X * < Z S T T T T T G Z 3 fXfXfXfXfXfXfXfX",
"fXfXfXfXfXfXfXfX> 4 4 4 4 4 4 < - = o X o o # $ r a ^ [ Z.A.J.L.P.P.P.P.P.P.S.A.Z.[ ( k w $ # % X X X = = : 4 4 < 4 4 < 4 fXfXfXfXfXfXfXfXfX",
"fXfXfXfXfXfXfXfXfXo . X o X X . X . . X X o % = r k / [ Z.A.A.J.A.K.K.K.K.K.A.A.Z. .( f r $ # o X X . . X X X X X X X X fXfXfXfXfXfXfXfXfXfX",
"fXfXfXfXfXfXfXfXfXfXX X   X . . . . . X % - 2 5 l b } ..+.Z.Z.A.C.C.C.C.C.C.Z.Z.+...' H Z 7 1 - % o . . . X   . . X O fXfXfXfXfXfXfXfXfXfXfX",
"fXfXfXfXfXfXfXfXfXfXfXfXfXfXfXfX  .   X - 1 9 M N ! <.<.O...] [ C C C C C.d [ ' O.5.| ! I J 9 5 - o . . X X fXfXfXfXfXfXfXfXfXfXfXfXfXfXfXfX",
"fXfXfXfXfXfXfXfXfXfXfXfXfXfXfXfXfX. . o , 7 N -.=.=.1.1.7.! H V 0 0 0 0 t f ) Y =.:.:.;.=.&.I 9 2 % . . fXfXfXfXfXfXfXfXfXfXfXfXfXfXfXfXfXfX",
"fXfXfXfXfXfXfXfXfXfXfXfXfXfXfXfXfX  . o 2 c -.=.>.>.>.p.:.#.v r & O O O + r b N =.>.>.>.>.,.-.K 1 % .   fXfXfXfXfXfXfXfXfXfXfXfXfXfXfXfXfXfX",
"fXfXfXfXfXfXfXfXfXfXfXfXfXfXfXfXfXfX. o , 9 I &.&.&.=.&.-.L 9 2 o .   . X - 7 J -.&.&.=.&.&.I x 5 % X fXfXfXfXfXfXfXfXfXfXfXfXfXfXfXfXfXfXfX",
"fXfXfXfXfXfXfXfXfXfXfXfXfXfXfXfXfXfXfXo , 7 9 J N J J J J x 7 - o       . $ 5 9 n J J M J J x 9 2 o fXfXfXfXfXfXfXfXfXfXfXfXfXfXfXfXfXfXfXfX",
"fXfXfXfXfXfXfXfXfXfXfXfXfXfXfXfXfXfXfXfXfX2 1 5 6 5 5 5 5 5 2 fXfXfXfXfXfXfX2 5 5 5 6 6 7 5 5 2 - fXfXfXfXfXfXfXfXfXfXfXfXfXfXfXfXfXfXfXfXfX",
"fXfXfXfXfXfXfXfXfXfXfXfXfXfXfXfXfXfXfXfXfXo % # % % % $ # # fXfXfXfXfXfXfXfXfXo # # % % # % % o fXfXfXfXfXfXfXfXfXfXfXfXfXfXfXfXfXfXfXfXfXfX",
"fXfXfXfXfXfXfXfXfXfXfXfXfXfXfXfXfXfXfXfXfXfX. . X X X X X . fXfXfXfXfXfXfXfXfX. . o . X X . . . fXfXfXfXfXfXfXfXfXfXfXfXfXfXfXfXfXfXfXfXfXfX",
"fXfXfXfXfXfXfXfXfXfXfXfXfXfXfXfXfXfXfXfXfXfX. X . X X X . . fXfXfXfXfXfXfXfXfX. . . . o X X .   fXfXfXfXfXfXfXfXfXfXfXfXfXfXfXfXfXfXfXfXfXfX"
};
