/* XPM */
static char *rock1737646640[] = {
/* columns rows colors chars-per-pixel */
"75 75 5 1 ",
"  c #181425",
". c #404973",
"X c #686F99",
"o c #A3A7C2",
"O c None",
/* pixels */
"OOOOOOOOOOOOOOOOOOOO                                   OOOOOOOOOOOOOOOOOOOO",
"OOOOOOOOOOOOOOOOOOOO                                   OOOOOOOOOOOOOOOOOOOO",
"OOOOOOOOOOOOOOOOOOOO                                   OOOOOOOOOOOOOOOOOOOO",
"OOOOOOOOOOOOOOOOOOOO                                   OOOOOOOOOOOOOOOOOOOO",
"OOOOOOOOOOOOOOOOOOOO                                   OOOOOOOOOOOOOOOOOOOO",
"OOOOOOOOOOOOOOO     XXXXXoooooooooooooooooooooooooXXXXX     OOOOOOOOOOOOOOO",
"OOOOOOOOOOOOOOO     XXXXXoooooooooooooooooooooooooXXXXX     OOOOOOOOOOOOOOO",
"OOOOOOOOOOOOOOO     XXXXXoooooooooooooooooooooooooXXXXX     OOOOOOOOOOOOOOO",
"OOOOOOOOOOOOOOO     XXXXXoooooooooooooooooooooooooXXXXX     OOOOOOOOOOOOOOO",
"OOOOOOOOOOOOOOO     XXXXXoooooooooooooooooooooooooXXXXX     OOOOOOOOOOOOOOO",
"OOOOOOOOOO     XXXXXoooooooooooooooooooooooooooooooooooXXXXX     OOOOOOOOOO",
"OOOOOOOOOO     XXXXXoooooooooooooooooooooooooooooooooooXXXXX     OOOOOOOOOO",
"OOOOOOOOOO     XXXXXoooooooooooooooooooooooooooooooooooXXXXX     OOOOOOOOOO",
"OOOOOOOOOO     XXXXXoooooooooooooooooooooooooooooooooooXXXXX     OOOOOOOOOO",
"OOOOOOOOOO     XXXXXoooooooooooooooooooooooooooooooooooXXXXX     OOOOOOOOOO",
"OOOOO     XXXXXoooooooooooooooooooooooooooooooooooooooooooooXXXXX     OOOOO",
"OOOOO     XXXXXoooooooooooooooooooooooooooooooooooooooooooooXXXXX     OOOOO",
"OOOOO     XXXXXoooooooooooooooooooooooooooooooooooooooooooooXXXXX     OOOOO",
"OOOOO     XXXXXoooooooooooooooooooooooooooooooooooooooooooooXXXXX     OOOOO",
"OOOOO     XXXXXoooooooooooooooooooooooooooooooooooooooooooooXXXXX     OOOOO",
"     XXXXXoooooooooooooooooooooooooooooooooooooooooooooooooooooooXXXXX     ",
"     XXXXXoooooooooooooooooooooooooooooooooooooooooooooooooooooooXXXXX     ",
"     XXXXXoooooooooooooooooooooooooooooooooooooooooooooooooooooooXXXXX     ",
"     XXXXXoooooooooooooooooooooooooooooooooooooooooooooooooooooooXXXXX     ",
"     XXXXXoooooooooooooooooooooooooooooooooooooooooooooooooooooooXXXXX     ",
"     XXXXXoooooooooooooooooooooooooooooooooooooooooooooooooooooooXXXXX     ",
"     XXXXXoooooooooooooooooooooooooooooooooooooooooooooooooooooooXXXXX     ",
"     XXXXXoooooooooooooooooooooooooooooooooooooooooooooooooooooooXXXXX     ",
"     XXXXXoooooooooooooooooooooooooooooooooooooooooooooooooooooooXXXXX     ",
"     XXXXXoooooooooooooooooooooooooooooooooooooooooooooooooooooooXXXXX     ",
"     .....XXXXXoooooooooooooooooooooooooooooooooooooooooooooXXXXX.....     ",
"     .....XXXXXoooooooooooooooooooooooooooooooooooooooooooooXXXXX.....     ",
"     .....XXXXXoooooooooooooooooooooooooooooooooooooooooooooXXXXX.....     ",
"     .....XXXXXoooooooooooooooooooooooooooooooooooooooooooooXXXXX.....     ",
"     .....XXXXXoooooooooooooooooooooooooooooooooooooooooooooXXXXX.....     ",
"     ..........XXXXXoooooooooooooooooooooooooooooooooooXXXXX..........     ",
"     ..........XXXXXoooooooooooooooooooooooooooooooooooXXXXX..........     ",
"     ..........XXXXXoooooooooooooooooooooooooooooooooooXXXXX..........     ",
"     ..........XXXXXoooooooooooooooooooooooooooooooooooXXXXX..........     ",
"     ..........XXXXXoooooooooooooooooooooooooooooooooooXXXXX..........     ",
"     ...............XXXXXoooooooooooooooooooooooooXXXXX...............     ",
"     ...............XXXXXoooooooooooooooooooooooooXXXXX...............     ",
"     ...............XXXXXoooooooooooooooooooooooooXXXXX...............     ",
"     ...............XXXXXoooooooooooooooooooooooooXXXXX...............     ",
"     ...............XXXXXoooooooooooooooooooooooooXXXXX...............     ",
"     ....................XXXXXXXXXXXXXXXXXXXXXXXXX....................     ",
"     ....................XXXXXXXXXXXXXXXXXXXXXXXXX....................     ",
"     ....................XXXXXXXXXXXXXXXXXXXXXXXXX....................     ",
"     ....................XXXXXXXXXXXXXXXXXXXXXXXXX....................     ",
"     ....................XXXXXXXXXXXXXXXXXXXXXXXXX....................     ",
"     ....................XXXXXXXXXXXXXXXXXXXXXXXXX....................     ",
"     ....................XXXXXXXXXXXXXXXXXXXXXXXXX....................     ",
"     ....................XXXXXXXXXXXXXXXXXXXXXXXXX....................     ",
"     ....................XXXXXXXXXXXXXXXXXXXXXXXXX....................     ",
"     ....................XXXXXXXXXXXXXXXXXXXXXXXXX....................     ",
"OOOOO     ...............XXXXXXXXXXXXXXXXXXXXXXXXX...............     OOOOO",
"OOOOO     ...............XXXXXXXXXXXXXXXXXXXXXXXXX...............     OOOOO",
"OOOOO     ...............XXXXXXXXXXXXXXXXXXXXXXXXX...............     OOOOO",
"OOOOO     ...............XXXXXXXXXXXXXXXXXXXXXXXXX...............     OOOOO",
"OOOOO     ...............XXXXXXXXXXXXXXXXXXXXXXXXX...............     OOOOO",
"OOOOOOOOOO     ..........XXXXXXXXXXXXXXXXXXXXXXXXX..........     OOOOOOOOOO",
"OOOOOOOOOO     ..........XXXXXXXXXXXXXXXXXXXXXXXXX..........     OOOOOOOOOO",
"OOOOOOOOOO     ..........XXXXXXXXXXXXXXXXXXXXXXXXX..........     OOOOOOOOOO",
"OOOOOOOOOO     ..........XXXXXXXXXXXXXXXXXXXXXXXXX..........     OOOOOOOOOO",
"OOOOOOOOOO     ..........XXXXXXXXXXXXXXXXXXXXXXXXX..........     OOOOOOOOOO",
"OOOOOOOOOOOOOOO     .....XXXXXXXXXXXXXXXXXXXXXXXXX.....     OOOOOOOOOOOOOOO",
"OOOOOOOOOOOOOOO     .....XXXXXXXXXXXXXXXXXXXXXXXXX.....     OOOOOOOOOOOOOOO",
"OOOOOOOOOOOOOOO     .....XXXXXXXXXXXXXXXXXXXXXXXXX.....     OOOOOOOOOOOOOOO",
"OOOOOOOOOOOOOOO     .....XXXXXXXXXXXXXXXXXXXXXXXXX.....     OOOOOOOOOOOOOOO",
"OOOOOOOOOOOOOOO     .....XXXXXXXXXXXXXXXXXXXXXXXXX.....     OOOOOOOOOOOOOOO",
"OOOOOOOOOOOOOOOOOOOO                                   OOOOOOOOOOOOOOOOOOOO",
"OOOOOOOOOOOOOOOOOOOO                                   OOOOOOOOOOOOOOOOOOOO",
"OOOOOOOOOOOOOOOOOOOO                                   OOOOOOOOOOOOOOOOOOOO",
"OOOOOOOOOOOOOOOOOOOO                                   OOOOOOOOOOOOOOOOOOOO",
"OOOOOOOOOOOOOOOOOOOO                                   OOOOOOOOOOOOOOOOOOOO"
};
