/* XPM */
static char *result[] = {
/* columns rows colors chars-per-pixel */
"28 28 6 1 ",
"  c black",
". c #00C0C0",
"X c cyan",
"o c #808080",
"O c white",
"+ c None",
/* pixels */
"                         +++",
" OOOOOOOOOOOOOOOOOOOOOOX  ++",
" OXXXXXXXXXX XXXXXXXXXX. o +",
" OXXXXXXXXX   XXXXXXXXX. oo ",
" OXXXXXXXX  .  XXXXXXXX. oo ",
" OXXXXXXX  ...  XXXXXXX. oo ",
" OXXXXXX  .....  XXXXXX. oo ",
" OXXXXXXX ..... XXXXXXX. oo ",
" OXXXX XX ..... XX XXXX. oo ",
" OXXX     .....     XXX. oo ",
" OXX  .............  XX. oo ",
" OX  ...............  X. oo ",
" O  .................  . oo ",
" OX  ...............  X. oo ",
" OXX  .............  XX. oo ",
" OXXX     .....     XXX. oo ",
" OXXXX XX ..... XX XXXX. oo ",
" OXXXXXXX ..... XXXXXXX. oo ",
" OXXXXXX  .....  XXXXXX. oo ",
" OXXXXXXX  ...  XXXXXXX. oo ",
" OXXXXXXXX  .  XXXXXXXX. oo ",
" OXXXXXXXXX   XXXXXXXXX. oo ",
" OXXXXXXXXXX XXXXXXXXXX. oo ",
" X...................... oo ",
"                         oo ",
"+ ooooooooooooooooooooooo o ",
"++ ooooooooooooooooooooooo  ",
"+++                         "
};
