/* XPM */
static char *result[] = {
/* columns rows colors chars-per-pixel */
"30 30 4 1 ",
"  c black",
". c #808080",
"X c #C0C0C0",
"o c white",
/* pixels */
".............................X",
".                            o",
". .......................... o",
". .XXXXXXXXXXXXXXXXXXXXXXXXX o",
". .XXXXXXXXXXXXXXXXXXXXXXXXX o",
". .XXXXXXXXXXXXXXXXXXXXXXXXX o",
". .XXXXXXXXXXXXXXXXXXXXXXXXX o",
". .XXXXXXXXXXXXXXXXXXXXXXXXX o",
". .XXXXXXXXXXXXXXXXXXXXXXXXX o",
". .XXXXXXXXXXXXXXXXXXXXXXXXX o",
". .XXXXX   oXXXX   oXXXXXXXX o",
". .XXXXXX   oXXXX   oXXXXXXX o",
". .XXXXXXX   oXXXX   oXXXXXX o",
". .XXXXXXXX   oXXXX   oXXXXX o",
". .XXXXXXXXX   oXXXX   oXXXX o",
". .XXXXXXXXXX   oXXXX   oXXX o",
". .XXXXXXXXXX   oXXXX   oXXX o",
". .XXXXXXXXX   oXXXX   oXXXX o",
". .XXXXXXXX   oXXXX   oXXXXX o",
". .XXXXXXX   oXXXX   oXXXXXX o",
". .XXXXXX   oXXXX   oXXXXXXX o",
". .XXXXX   oXXXX   oXXXXXXXX o",
". .XXXXXXXXXXXXXXXXXXXXXXXXX o",
". .XXXXXXXXXXXXXXXXXXXXXXXXX o",
". .XXXXXXXXXXXXXXXXXXXXXXXXX o",
". .XXXXXXXXXXXXXXXXXXXXXXXXX o",
". .XXXXXXXXXXXXXXXXXXXXXXXXX o",
". .XXXXXXXXXXXXXXXXXXXXXXXXX o",
".                            o",
"Xooooooooooooooooooooooooooooo"
};
