/* XPM */
static char *result[] = {
/* columns rows colors chars-per-pixel */
"71 71 5 1 ",
"  c black",
". c #C0C000",
"X c yellow",
"o c white",
"O c None",
/* pixels */
"OOOOOOOOOOOOOOOOOOOOOOOOOOOOOOOOOOOOOOOOOOOOOOOOOOOOOOOOOOOOOOOOOOOOOOO",
"OOOOOOOOOOOOOOOOOOOOOOOOOOOOOOOOOOOOOOOOOOOOOOOOOOOOOOOOOOOOOOOOOOOOOOO",
"OOOOOOOOOOOOOOOOOOOOOOOOOOOOOOOOOOOOOOOOOOOOOOOOOOOOOOOOOOOOOOOOOOOOOOO",
"OOOOOOOOOOOOOOOOOOOOOOOOOOOOOOOOOOOOOOOOOOOOOOOOOOOOOOOOOOOOOOOOOOOOOOO",
"OOOOOOOOOOOOOOOOOOOOOOOOOOOOOOOOOOOOOOOOOOOOOOOOOOOOOOOOOOOOOOOOOOOOOOO",
"OOOOOOOOOOOOOOOOOOOOOOOOOOOOOOOOOOOOOOOOOOOOOOOOOOOOOOOOOOOOOOOOOOOOOOO",
"OOOOOOOOOOOOOOOOOOOOOOOOOOOOOOOOOOOOOOOOOOOOOOOOOOOOOOOOOOOOOOOOOOOOOOO",
"OOOOOOOOOOOOOOOOOOOOOOOOOOOOOOOOOOOOOOOOOOOOOOOOOOOOOOOOOOOOOOOOOOOOOOO",
"OOOOOOOOOOOOOOOOOOOOOOOOOOOOOOOOOOOOOOOOOOOOOOOOOooooooOOOOOOOOOOOOOOOO",
"OOOOOOoooooooOOOOOooooOOOOOOOOOOOOOOOOOOOOOOOOOOoXXXXXXXOOOOOOOOOOOOOOO",
"OOOOOoXXXXXXXXOOOoXXXXXOOOOOOOOOOOOOOOOOOOOOOOOoXXXXXXXX.OOOOOOOOOOOOOO",
"OOOOoXXXXXXXXX.OoXXXXXX.OOOOOOOOOOOOOOOOOOOOOOOoXXXXXXXX. OOOOOOOOOOOOO",
"OOOOoXXXXXXXXX. oXXXXXX. OOOOOOOOOOOOOOOOOOOOOOoXXXXXXXX.  OOOOOOOOOOOO",
"OOOOoXXXXXXXXX. oXXXXXX.  OOOOOOOOOOOOOOOOOOOOOOXXXXXXX.   OOOOOOOOOOOO",
"OOOOOXXXXXXXX.  oXXXXX.   OOOOOOOOOOOOOOOOOOOOOO.XXXXX.    OOOOOOOOOOOO",
"OOOOOOXXXXXXXX.  oXXX.    OOOOOOOOOOOOOOOOOOOOOOOoXXXX.   OOOOOOOOOOOOO",
"OOOOOOOXXXXXXX. oXXX.    OOOOOOOOOOOOOOOOOOOOOOOOoXXXX.  OoooOOOOOOOOOO",
"OOOOOOO.XXXXXXXoXXX.    oooooOOOOOOOOOOOOOOOOOOOOoXXXX.  oXXXXOOOOOOOOO",
"OOOOOOOOXXXXXXXXXXX.   oXXXXXXOOOOOOOOoooooOOOOOOoXXXX. oXXXXX.OOOOOOOO",
"OOOOOOOOOXXXXXXXXX.   oXXXXXXXXOOOOOOoXXXXXXOOOOOoXXXXXoXXXXXXXOOOOOOOO",
"OOOOOOOOOXXXXXXXXX.   oXXXXXXXXXOOOOoXXXXXXXXOOOOoXXXXXXXXXXXXX.OOOOOOO",
"OOOOOOOOO.XXXXXXX.   oXXXXXXXXXX.OOoXXXXXXXXXXOOOoXXXXXXXXXXXXX. OOOOOO",
"OOOOOOOOOOoXXXXXX.   oXXXX..XXXX.OoXXXX.XXXXXX.OOoXXXXXXXXXXXXX.  OOOOO",
"OOOOOOOOOOoXXXXX.   oXXXX.  oXXX. oXXX. oXXXXX. OoXXXXX..XXXXXX.  OOOOO",
"OOOOOOOOOOoXXXXX.   oXXXX.  oXXX. oXXX. oXXXXX.  oXXXX.  oXXXXX.  OOOOO",
"OOOOOOOOOOoXXXXX.  OoXXXXXooXXXX. oXXX. oXXXXX.  oXXXX.  oXXXXX.  OOOOO",
"OOOOOOOOOOoXXXXX.  OoXXXXXXXXXXX.  ...  oXXXXX.  oXXXX.  oXXXXX.  OOOOO",
"OOOOOOOOOOoXXXXX.  OoXXXXXXXXXXX.  O    oXXXXX.  oXXXX.  oXXXXX.  OOOOO",
"OOOOOOOOOOoXXXXX.  OoXXXXXXXXXX.   OoooooXXXXX.  oXXXX.  oXXXXX.  OOOOO",
"OOOOOOOOOOoXXXXX.  OoXXXXX.....    oXXXXXXXXXX.  oXXXX.  oXXXXX.  OOOOO",
"OOOOOOOOOOoXXXXX.  OoXXXX.        oXXXXXXXXXXX.  oXXXX.  oXXXXX.  OOOOO",
"OOOOOOOOOOoXXXXX.  OoXXXX.       OoXXXXXXXXXXX.  oXXXX.  oXXXXX.  OOOOO",
"OOOOOOOOOOoXXXXX.  OoXXXXX  OoXOOoXXXXX..XXXXX.  oXXXX.  oXXXXX.  OOOOO",
"OOOOOOOOOOoXXXXX.  OoXXXXXXooXX.OoXXXX.  oXXXX.  oXXXX.  oXXXXX.  OOOOO",
"OOOOOOOOOOoXXXXXX. OOXXXXXXXXXX. oXXXX.  oXXXX.  oXXXXX. oXXXXX.  OOOOO",
"OOOOOOOOOoXXXXXXX. OO.XXXXXXXXX. oXXXXXooXXXXX. oXXXXXX. oXXXXXX. OOOOO",
"OOOOOOOOoXXXXXXXXX. OOXXXXXXXXX. oXXXXXXXXXXXX. oXXXXXX. oXXXXXX. OOOOO",
"OOOOOOOOoXXXXXXXXX. OOOXXXXXXX.  oXXXXXXXXXXXX. oXXXXX.   XXXXX.   OOOO",
"OOOOOOOOoXXXXXXXXX.  OOOXXXXX.    XXXXXXXXXXXX.  .....    OO...    OOOO",
"OOOOOOOOO.XXXXXXXX.  OOOO....    OOXXXXX..XXX.   O       OOOO     OOOOO",
"OOOOOOOOOOO.......   OOOOO      OOOO....  ...    OO     OOOOOO   OOOOOO",
"OOOOOOOOOOO          OOOOOO    OOOOOO           OOOOOOOOOOOOOOOOOOOOOOO",
"OOOOOOOOOOOOO      OOOOOOOOOOOOOOOOOOO    OO   OOOOOOOOOOOOOOOOOOOOOOOO",
"OOOOOOOOOOOOOOOOOOOOOOOOOOOOOOOOOOOOOOOOOOOOOOOOOOOOOOOOOOOOOOOOOOOOOOO",
"OOOOOOOOOOOOOOOOOOOOOOOOOOOOOOOOOOOOOOOOOOOOOOOOOOOOOOOOOOOOOOOOOOOOOOO",
"OOOOOOOOOOOOOOOOOOOOOOOOOOOOOOOOOOOOOOOOOOOOOOOOOOOOOOOOOOOOOOOOOOOOOOO",
"OOOOOOOOOOOOOOOOOOOOOOOOOOOOOOOOOOOOOOOOOOOOOOOOOOOOOOOOOOOOOOOOOOOOOOO",
"OOOOOOOOOOOOOOOOOOOOOOOOOOOOOOOOOOOOOOOOOOOOOOOOOOOOOOOOOOOOOOOOOOOOOOO",
"OOOOOOOOOOOOOOOOOOOOOOOOOOOOOOOOOOOOOOOOOOOOOOOOOOOOOOOOOOOOOOOOOOOOOOO",
"OOOOOOOOOOOOOOOOOOOOOOOOOOOOOOOOOOOOOOOOOOOOOOOOOOOOOOOOOOOOOOOOOOOOOOO",
"OOOOOOOOOOOOOOOOOOOOOOOOOOOOOOOOOOOOOOOOOOOOOOOOOOOOOOOOOOOOOOOOOOOOOOO",
"OOOOOOOOOOOOOOOOOOOOOOOOOOOOOOOOOOOOOOOOOOOOOOOOOOOOOOOOOOOOOOOOOOOOOOO",
"OOOOOOOOOOOOOOOOOOOOOOOOOOOOOOOOOOOOOOOOOOOOOOOOOOOOOOOOOOOOOOOOOOOOOOO",
"OOOOOOOOOOOOOOOOOOOOOOOOOOOOOOOOOOOOOOOOOOOOOOOOOOOOOOOOOOOOOOOOOOOOOOO",
"OOOOOOOOOOOOOOOOOOOOOOOOOOOOOOOOOOOOOOOOOOOOOOOOOOOOOOOOOOOOOOOOOOOOOOO",
"OOOOOOOOOOOOOOOOOOOOOOOOOOOOOOOOOOOOOOOOOOOOOOOOOOOOOOOOOOOOOOOOOOOOOOO",
"OOOOOOOOOOOOOOOOOOOOOOOOOOOOOOOOOOOOOOOOOOOOOOOOOOOOOOOOOOOOOOOOOOOOOOO",
"OOOOOOOOOOOOOOOOOOOOOOOOOOOOOOOOOOOOOOOOOOOOOOOOOOOOOOOOOOOOOOOOOOOOOOO",
"OOOOOOOOOOOOOOOOOOOOOOOOOOOOOOOOOOOOOOOOOOOOOOOOOOOOOOOOOOOOOOOOOOOOOOO",
"OOOOOOOOOOOOOOOOOOOOOOOOOOOOOOOOOOOOOOOOOOOOOOOOOOOOOOOOOOOOOOOOOOOOOOO",
"OOOOOOOOOOOOOOOOOOOOOOOOOOOOOOOOOOOOOOOOOOOOOOOOOOOOOOOOOOOOOOOOOOOOOOO",
"OOOOOOOOOOOOOOOOOOOOOOOOOOOOOOOOOOOOOOOOOOOOOOOOOOOOOOOOOOOOOOOOOOOOOOO",
"OOOOOOOOOOOOOOOOOOOOOOOOOOOOOOOOOOOOOOOOOOOOOOOOOOOOOOOOOOOOOOOOOOOOOOO",
"OOOOOOOOOOOOOOOOOOOOOOOOOOOOOOOOOOOOOOOOOOOOOOOOOOOOOOOOOOOOOOOOOOOOOOO",
"OOOOOOOOOOOOOOOOOOOOOOOOOOOOOOOOOOOOOOOOOOOOOOOOOOOOOOOOOOOOOOOOOOOOOOO",
"OOOOOOOOOOOOOOOOOOOOOOOOOOOOOOOOOOOOOOOOOOOOOOOOOOOOOOOOOOOOOOOOOOOOOOO",
"OOOOOOOOOOOOOOOOOOOOOOOOOOOOOOOOOOOOOOOOOOOOOOOOOOOOOOOOOOOOOOOOOOOOOOO",
"OOOOOOOOOOOOOOOOOOOOOOOOOOOOOOOOOOOOOOOOOOOOOOOOOOOOOOOOOOOOOOOOOOOOOOO",
"OOOOOOOOOOOOOOOOOOOOOOOOOOOOOOOOOOOOOOOOOOOOOOOOOOOOOOOOOOOOOOOOOOOOOOO",
"OOOOOOOOOOOOOOOOOOOOOOOOOOOOOOOOOOOOOOOOOOOOOOOOOOOOOOOOOOOOOOOOOOOOOOO",
"OOOOOOOOOOOOOOOOOOOOOOOOOOOOOOOOOOOOOOOOOOOOOOOOOOOOOOOOOOOOOOOOOOOOOOO"
};
