/* XPM */
static char *result[] = {
/* columns rows colors chars-per-pixel */
"28 28 6 1 ",
"  c black",
". c red",
"X c #808080",
"o c #C0C0C0",
"O c white",
"+ c None",
/* pixels */
"                         +++",
" OOOOOOOOOOOOOOOOOOOOOOo  ++",
" O........oooooooooooooX X +",
" O........oooooooooooooX XX ",
" O...OO...oooooooooooooX XX ",
" O.OOOO...oooooooooooooX XX ",
" O...OO...oooooooooooooX XX ",
" O...OO...oooooooooooooX XX ",
" O...OO...oooooooooooooX XX ",
" O...OO...oooooooooooooX XX ",
" O...OO...oooooooooooooX XX ",
" O...OO...oooooooooooooX XX ",
" O...OO...oooooooooooooX XX ",
" O........oooooooooooooX XX ",
" O........oooooooooooooX XX ",
" OoooooooooooooooooooooX XX ",
" Oooooo...oooooooooooooX XX ",
" Ooooo.OO.........oooooX XX ",
" Ooooo.O...........ooooX XX ",
" Ooooo.....      ...oooX XX ",
" OooooX...  XooooX.XoooX XX ",
" Oooooo    XooooooXXoooX XX ",
" OooooooXXXooooooooooooX XX ",
" oXXXXXXXXXXXXXXXXXXXXXX XX ",
"                         XX ",
"+ XXXXXXXXXXXXXXXXXXXXXXX X ",
"++ XXXXXXXXXXXXXXXXXXXXXXX  ",
"+++                         "
};
