/* XPM */
static char *result[] = {
/* columns rows colors chars-per-pixel */
"30 30 4 1 ",
"  c black",
". c #808080",
"X c #C0C0C0",
"o c white",
/* pixels */
".............................X",
".                            o",
". oooooooooooooooooooooooooX o",
". oXXXXXXXXXXXXXXXXXXXXXXXX. o",
". oXXXXXXXXXXXXXXXXXXXXXXXX. o",
". oXXXXXXXXXXXXXXXXXXXXXXXX. o",
". oXXXXXXXXXXXXXXXXXXXXXXXX. o",
". oXXXXXXXXXXXXXXXXXXXXXXXX. o",
". oXXXXXXXXXXXXXXXXXXXXXXXX. o",
". oXXXX...oXXXX...oXXXXXXXX. o",
". oXXXXX...oXXXX...oXXXXXXX. o",
". oXXXXXX...oXXXX...oXXXXXX. o",
". oXXXXXXX...oXXXX...oXXXXX. o",
". oXXXXXXXX...oXXXX...oXXXX. o",
". oXXXXXXXXX...oXXXX...oXXX. o",
". oXXXXXXXXX...oXXXX...oXXX. o",
". oXXXXXXXX...oXXXX...oXXXX. o",
". oXXXXXXX...oXXXX...oXXXXX. o",
". oXXXXXX...oXXXX...oXXXXXX. o",
". oXXXXX...oXXXX...oXXXXXXX. o",
". oXXXX...oXXXX...oXXXXXXXX. o",
". oXXXXXXXXXXXXXXXXXXXXXXXX. o",
". oXXXXXXXXXXXXXXXXXXXXXXXX. o",
". oXXXXXXXXXXXXXXXXXXXXXXXX. o",
". oXXXXXXXXXXXXXXXXXXXXXXXX. o",
". oXXXXXXXXXXXXXXXXXXXXXXXX. o",
". oXXXXXXXXXXXXXXXXXXXXXXXX. o",
". X......................... o",
".                            o",
"Xooooooooooooooooooooooooooooo"
};
