/* XPM */
static char *result[] = {
/* columns rows colors chars-per-pixel */
"71 71 8 1 ",
"  c black",
". c #C00000",
"X c red",
"o c #00C000",
"O c green",
"+ c #C0C000",
"@ c yellow",
"# c None",
/* pixels */
"#######################################################################",
"#######################################################################",
"#######################################################################",
"#######################################################################",
"#######################################################################",
"#######################################################################",
"#######################################################################",
"#######################################################################",
"##############O#######################O################################",
"#############OOO#####################OO######O#########################",
"#############OOOO#####O#############OOO#####OO##########O#########O####",
"#############OOOOO####OO###########OOOO####OOO#########OO########OO####",
"############OOOOOOO##OOOOO######O#OOOOO###OOOOO#######OOO#######OOO####",
"#O#######OOOOOOOOOOOOOOOOOOO###OOOOOOOOO##OOOOOO####OOOOOO#O##OOOOOO###",
"##OOOOOOOOOOOOOOOOOOOOOOOOOOOOOOOOOOOOOOO#OOOOOOOOOOOOOOOOOOOOOOOOO####",
"#...........................OooX......XooOOO...........................",
"#.X@@@@@@@.@@@@@@@.X.@@@@@@..X..+@@@@@+...OO.@@@@@@@.@@@@@@@.X.@@@@@@@.",
"#.XX@@@@.....@@@@..XX..@@@.XX.+@@@+++@@@+..O.X@@@@.XXXX@@@@.XX...@@@...",
"#.XXX@@@+.XX.+@@@.XXXX.@@.XX.@@@@XXXXX@@@@...XX@@@+.XXX+@@@.XXXX.@@...#",
"#.XXX+@@@.XXXX@@@.XXXX+@+.XX+@@@XXXXXXX@@@+..XX+@@@.XXXX@@@.XXXX+@+.###",
"#..XXX@@@.XXXX@@@+XXXX@@.XX.@@@+XXXXXXX+@@@..XXX@@@.XXXX@@@+XXXX@@..###",
"# .XXX+@@+.XXX@@@@.XXX@+.XX+@@@.XoXXXXXX@@@+.XXX+@@+.XXX@@@@.XXX@+.O###",
"##.XXXX@@@.XX+@@@@.X.+@..XX@@@@.oooXXXXX@@@@.XXXX@@@.XX+@@@@.X.+@..OO##",
"##..XXX@@@+X.@@@@@+X.@@.XXX@@@@.OOooXXXX@@@@.XXXX@@@+XX@@@@@+X.@@.OO###",
"##o.XXX+@@@.+@@@@@@.+@+.XXX@@@@.OOOooXXX@@@@.XXXX+@@@.+@@@@@@.+@+.O####",
"#Oo..XXX@@@.@@XX@@@.@@..XXX@@@@.OOOOoXXX@@@@.o.XXX@@@.@@XX@@@.@@..#####",
"OOoo.XXX@@@@@@XX@@@@@@..XXX+@@@.OOOOoXXX@@@+.o.XXX@@@@@@XX@@@@@@..#####",
"#OOo..XX+@@@@+X.+@@@@+.oXXXX@@@+XOOOoXX+@@@..ooXXX+@@@@+XX@@@@@+.######",
"##Ooo.XXX@@@@X.XX@@@@X.o.XXX+@@@XXOOoXX@@@+.Ooo.XXX@@@@XXXX@@@@..######",
"####o..XX@@@+X.XX+@@+X.o.XXXX@@@@XXXXX@@@@..OOooXXX@@@+XXXX@@@+.OO#####",
"####oo.XX+@@X..XXX@@XXOoo..XXX+@@@+++@@@+..OOOoo.XX+@@X..X.X@@..OOO####",
"#####o.XXX@+....XX@+XOOoo...XXX.+@@@@@+....OOOOo..XX@+X...XX@+.OOOOO###",
"######..XXXX.O..XXXXXOOOo...XXXX........X.OOO#Oo..XXX..o..XXXX.OOOO####",
"#####o....X..o......XOOO#oo...XXXXXXXXXX.OOO####o......o.......O#######",
"####Ooo....oOoO#....OOO###ooo...........OOO######o...ooOOO....O########",
"###OOO#ooooo#######OOOO###Oooo#......OOOOOO######ooooooOo##ooOOO#######",
"##OO###oooo#########OOO###OOO#########OOOOO#######OooOO######OOOO######",
"#######OOoo##########OO####O###########OOO#########OOO#########OOO#####",
"#######OO#############O#################OO##########OO##########OO#####",
"#######O################################OO###########O###########O#####",
"########################################O############O#################",
"#####################################################O#################",
"#######################################################################",
"#######################################################################",
"#######################################################################",
"#######################################################################",
"#######################################################################",
"#######################################################################",
"#######################################################################",
"#######################################################################",
"#######################################################################",
"#######################################################################",
"#######################################################################",
"#######################################################################",
"#######################################################################",
"#######################################################################",
"#######################################################################",
"#######################################################################",
"#######################################################################",
"#######################################################################",
"#######################################################################",
"#######################################################################",
"#######################################################################",
"#######################################################################",
"#######################################################################",
"#######################################################################",
"#######################################################################",
"#######################################################################",
"#######################################################################",
"#######################################################################",
"#######################################################################"
};
