/* XPM */
static char *result[] = {
/* columns rows colors chars-per-pixel */
"28 28 10 1 ",
"  c black",
". c #C00000",
"X c red",
"o c #C0C000",
"O c yellow",
"+ c #00C0C0",
"@ c #808080",
"# c #C0C0C0",
"$ c white",
"% c None",
/* pixels */
"%%%%%%%%%%%%%%%%%%%%%%%%%%%%",
"%%%%%%%%%%%$$++++++++%%%%%%%",
"%%%%%%%%%%$+++++++++++%%%%%%",
"%%%%%%%%%%++++++++++++%%%%%%",
"%%%%%%+++++++ooooXXX++%%%%%%",
"%%%%%++++OOOOOOOooXXo@%%%%%%",
"%%%%%%%%OOOOOOOo$$XOo$@%%%%%",
"%%%%%%%O$OOOOOo$$$$O$$$%%%%%",
"%%%%%%o$$OOOOOo$@ $O$@ @%%%%",
"%%%%%%O$OOOOOOo$@ $O$@ o%%%%",
"%%%%%%OOOOOOOOOOOOO##OOo%%%%",
"%%%%%%OOOOOXXOOOOO@#$#Oo%%%%",
"%%%%%%OOOOOXXOOOOO@@##Oo%%%%",
"%%%%%%OOOOOOo.OOOOo@@Ooo%%%%",
"%%%%%%oOOOOOOo.OOOOOOOo@%%o%",
"%%%%%%%OOOOOOOo.......@%%oo%",
"%%%%%%%%OOOOOOOo$$$$$$+++oO%",
"%%%%%%%%%OOOOOOo.....@@@@OO%",
"%%%%%%%%%%oOOOOOooooo++++OO%",
"%%%%%%%%%%%ooOOOOOOo+++++OO%",
"%%%%%%%%%%%%+++oooo+       %",
"%%%%%%%%%%%++++  ++++      %",
"%%%%%%%%%%+++  %  +++      %",
"%%%%%%%%%%    ##%     ## %%%",
"%%%%%%%%%%@@@@@@%%@@@@@@%%%%",
"%%%%%%%%%%%%%%%%%%%%%%%%%%%%",
"%%%%%%%%%%%%%%%%%%%%%%%%%%%%",
"%%%%%%%%%%%%%%%%%%%%%%%%%%%%"
};
