/* XPM */
static char *result[] = {
/* columns rows colors chars-per-pixel */
"28 28 6 1 ",
"  c black",
". c red",
"X c #808080",
"o c #C0C0C0",
"O c white",
"+ c None",
/* pixels */
"                         +++",
" OOOOOOOOOOOOOOOOOOOOOOo  ++",
" OoooooooooooooooooooooX X +",
" OoooooooooooooooooooooX XX ",
" Oooooooooo...oooooooooX XX ",
" Ooooooooo.OO..ooooooooX XX ",
" Ooooooooo.O...ooX XoooX XX ",
" Ooooooooo.....oX   oooX XX ",
" Oooooooooo...oo   XoooX XX ",
" Ooooooooooo ooo  XooooX XX ",
" Ooooooooooo ooXoooooooX XX ",
" Ooooooooooo oXooooooooX XX ",
" Ooooooooooo XoooooooooX XX ",
" Ooooooooooo ooooooooooX XX ",
" OoooooooooooooooooooooX XX ",
" OoooooooooooooooooooooX XX ",
" OoooooooooooooooooooooX XX ",
" OoooooooooooooooooooooX XX ",
" OoooooooooooooooooooooX XX ",
" OoooooooooooooooooooooX XX ",
" OoooooooooooooooooooooX XX ",
" OoooooooooooooooooooooX XX ",
" OoooooooooooooooooooooX XX ",
" oXXXXXXXXXXXXXXXXXXXXXX XX ",
"                         XX ",
"+ XXXXXXXXXXXXXXXXXXXXXXX X ",
"++ XXXXXXXXXXXXXXXXXXXXXXX  ",
"+++                         "
};
