/* XPM */
static char *result[] = {
/* columns rows colors chars-per-pixel */
"28 28 10 1 ",
"  c black",
". c #C00000",
"X c red",
"o c #C0C000",
"O c yellow",
"+ c #00C0C0",
"@ c #808080",
"# c #C0C0C0",
"$ c white",
"% c None",
/* pixels */
"%%%%%%%%%%%%%%%%%%%%%%%%%%%%",
"%%%%%%%%%%$$+++++++%%%%%%%%%",
"%%%%%%%%%$++++++++++%%%%%%%%",
"%%%%%%%%%+++++++++++%%%%%%%%",
"%%%%%++++++X.......+%%%%%%%%",
"%%%%++++...XXX..X..XX%%%%%%%",
"%%%%%%%X.XX$XXX.$XX.X %%%%%%",
"%%%%%%X..X$$$XXo$$XX..%%%%%%",
"%%%%%XX.X$  $OX$  $XO..%%%%%",
"%%%%%X..X$  $OX$  $XOoX%%%%%",
"%%%%%XXXXX.OO##OOOXXOoo%%%%%",
"%%%%%XXXXXOO#$##OOXOOOo%%%%%",
"%%%%%X.XXXOO##@oOOXOOOo%%%%%",
"%%%%%XOOXOOOOooOOOOOOOo%%%%%",
"%%%%%.OOXO........OOOo@%%%%%",
"%%%%%%OOX..$$$$$$..Ooo  %%%%",
"%%%%%%+OXX$$XXXX$$.Oo+  XX%%",
"%%%%%+++OX$......$.o+++XX %%",
"%%  OOO XXX.@@@@...  OOO  %%",
"%   O OXXXoOOOOOOoXXXO OX XX",
"%% XOXXXX+++ooooo++XXXXOXXX%",
"%%%XXXXX+++XXXXXX+++XXXXXX %",
"%%%%%XX@  @XXXXXX@  @XXXX   ",
"%%%%%%@##@XXXXX%XX@##@XXXX%%",
"%%%%%%@@@XXXXXX%%%X@@@%XXX%%",
"%%%%%%%%%XXX%XX%%%%%%%%% X%%",
"%%%%%%%%XXX%%%%%%%%%%%%%%%%%",
"%%%%%%%% X%%%%%%%%%%%%%%%%%%"
};
