/* XPM */
static char *result[] = {
/* columns rows colors chars-per-pixel */
"28 28 6 1 ",
"  c black",
". c #C0C000",
"X c #00C0C0",
"o c cyan",
"O c #808080",
"+ c None",
/* pixels */
"                         +++",
" ooooooooooooooooooooooX  ++",
" oXXXXXXXXXXXXXXXXXXXXXO O +",
" oXXXXXXXXXXXXXXXXXXXXXO OO ",
" oXXXXXXXXXX XXXXXXXXXXO OO ",
" oXXXXXXXXX   XXXXXXXXXO OO ",
" oXXXXXXXX  .  XXXXXXXXO OO ",
" oXXXXXXX  ...  XXXXXXXO OO ",
" oXXXXXX  .....  XXXXXXO OO ",
" oXXXXX  .......  XXXXXO OO ",
" oXXXX  .........  XXXXO OO ",
" oXXX  ...........  XXXO OO ",
" oXX  .............  XXO OO ",
" oXXX  ...........  XXXO OO ",
" oXXXX  .........  XXXXO OO ",
" oXXXXX  .......  XXXXXO OO ",
" oXXXXXX  .....  XXXXXXO OO ",
" oXXXXXXX  ...  XXXXXXXO OO ",
" oXXXXXXXX  .  XXXXXXXXO OO ",
" oXXXXXXXXX   XXXXXXXXXO OO ",
" oXXXXXXXXXX XXXXXXXXXXO OO ",
" oXXXXXXXXXXXXXXXXXXXXXO OO ",
" oXXXXXXXXXXXXXXXXXXXXXO OO ",
" XOOOOOOOOOOOOOOOOOOOOOO OO ",
"                         OO ",
"+ OOOOOOOOOOOOOOOOOOOOOOO O ",
"++ OOOOOOOOOOOOOOOOOOOOOOO  ",
"+++                         "
};
