/* XPM */
static char *result[] = {
/* columns rows colors chars-per-pixel */
"28 28 10 1 ",
"  c black",
". c #C00000",
"X c red",
"o c #C0C000",
"O c yellow",
"+ c #00C0C0",
"@ c #808080",
"# c #C0C0C0",
"$ c white",
"% c None",
/* pixels */
"%%%%%%%%%%%%%%%%%%%%%%%%%%%%",
"%%%%%%%%%%%$$+++++++%%%%%%%%",
"%%%%%%%%%%$++++++++++%%%%%%%",
"%%%%%%%%%%+++++++++++%%%%%%%",
"%%%%%%+++++++ooooooo+%%%%%%%",
"%%%%%++++oXXXoOOOOOoo@%%%%%%",
"%%%%%%%o$oXX$$oOOOOOoo%%%%%%",
"%%%%%%%$$$oX$$$oOOOOOoo%%%%%",
"%%%%%%# @$oX @$oOOOOOoo@%%%%",
"%%%%%%$ @$o$ @$oOOOOOOoo%%%%",
"%%%%%%OOO##OOOOOOOOOOOoo%%%%",
"%%%%%%OO#$#@OOOOOXXOOOoo%%%%",
"%%%%%%OO##@@OOOOOXXOOOoo%%%%",
"%%%%%%OOO@@oOOOO.oOOOOoo%%%%",
"%%%%%%oOOOOOOOO.oOOOOoo@%%%%",
"%%%%%%%@.......oOOOOOoo%%%%%",
"%%%%%%%%$$$$$$oOOOOOOo%%%%%%",
"%%%%%%%%@.....oOOOOO+%%%%%%%",
"%%%%%%%%%oooooOOOOo+++ %%%%%",
"%%%%%%%%%%oOOOOOOo  ++   %%%",
"%%%%%%%%%%+oooo+++  OO     %",
"%%%%%%%%%++++  ++++ OO     %",
"%%%%%%%%%+++  %%%+++ OO    %",
"%%%%%%##     %##         %%%",
"%%%%%%@@@@@@ %@@@@@@   %%%%%",
"%%%%%%%%%%%%%%%%%%%%%%%%%%%%",
"%%%%%%%%%%%%%%%%%%%%%%%%%%%%",
"%%%%%%%%%%%%%%%%%%%%%%%%%%%%"
};
