/* XPM */
static char *result[] = {
/* columns rows colors chars-per-pixel */
"28 28 10 1 ",
"  c black",
". c #C00000",
"X c red",
"o c #C0C000",
"O c yellow",
"+ c #00C0C0",
"@ c #808080",
"# c #C0C0C0",
"$ c white",
"% c None",
/* pixels */
"%%%%%%%%%%%%%%%%%%%%%%%%%%%%",
"%%%%%%%%%%%$$+++++++%%%%%%%%",
"%%%%%%%%%%$++++++++++%%%%%%%",
"%%%%%%%%%%+++++++++++%%%%%%%",
"%%%%%%+++++++oXXXooo+%%%%%%%",
"%%%%%++++oOooOOoXOOOo@%%%%%%",
"%%%%%%%%O$o$$OOOX$$OOo%%%%%%",
"%%%%%%%O$o$$$$OXo$$$Ooo%%%%%",
"%%%%%%oO$o$  $OO$  $OOo@%%%%",
"%%%%%%O$OO$  $OO$  $OOoo%%%%",
"%%%%%%OOOOOOOO##OOOOOOoo%%%%",
"%%%%%%OXXOOOO#$##OOOOXXo%%%%",
"%%%%%%OXXOOOO##@oOOOOXXo%%%%",
"%%%%%%OOO.OOOOooOOOO.oOo%%%%",
"%%%%%%oOOo.OOOOOOOO.oOo@%%%%",
"%%%%%%%OOOo........oOoo%%%%%",
"%%%%%%++OOOo$$$$$$oOOo+%%%%%",
"%%%%%OOo%OOO......oOo+++%%%%",
"%%%%%Oo%%%OOOoooooOo  OOo%%%",
"%%%%%O@@%%+oOOOOOOo    Oo %%",
"%%%%%%@@@++++ooooo++   Oo  %",
"%%%%%%@@@+++      +++      %",
"%%%%%%@@@ +@      @  @     %",
"%%%%%%%@@@%%%%     @##@  %%%",
"%%%%%%%@@@%%%%%%    @@@%%%%%",
"%%%%%%%%%%%%%%%%%%%%%%%%%%%%",
"%%%%%%%%%%%%%%%%%%%%%%%%%%%%",
"%%%%%%%%%%%%%%%%%%%%%%%%%%%%"
};
