/* XPM */
static char *_ea179a10a114a7c95c9184348a1ad58T8pawnle88i5sNBn[] = {
/* columns rows colors chars-per-pixel */
"71 71 6 1 ",
"  c None",
". c #C00000",
"X c red",
"o c #C0C000",
"O c yellow",
"+ c white",
/* pixels */
"                                                                       ",
"                                                                       ",
"                                                                       ",
"                                                                       ",
"                                                                       ",
"                                                                       ",
"                                                                       ",
"       X X X X           XX                  X                         ",
"        XXX X X           XX                X               X X        ",
"         XXXXX X                         X XXX             XXXXX       ",
"            XXXXX                       XXX .       X     XXXXXXX      ",
"                                 X X X XXX XXX     XXX   XXXXXXX       ",
"                                  X X X XXXX.       XXX XXXXXXX        ",
"     X                         X X XXXXXXXXX..           XXX           ",
"          X X X X X X X X X X X XXXXXXX XX....          X X           X",
"           XXX X X X X X X X X XXXXXXXXXXX...X                       XX",
"        X XXXXXXXXXXXXXXXXXXXXXXX X X X X X .                       XX ",
" X X X X X XXX X X X X X X X X XOOOOOOOOOX X.X X ooo       X       XXX ",
"X X X X XXXXXXX ooooooooooo X XOOOOOOOOOOOO .XX Xoooo     X       XXXX ",
" XXX X X XXXXX ooooooooooooo XOOOOOOOOOOOOOX X X oooo.   X X     X XXX ",
"  X XXXXXXXXXXoooooooooooooo.OOOOOOXXXOOOOX XXX Xoooo.X X X     XXXXO  ",
"   XXXXXXX XXXoooooooooooooooOOOOOXXXXXXXXXX XXX oooo. X X X   XXXXXOO ",
"  X X X XXXXXXooooo.....oooooOOOOXXXXXXXXXX.XXX Xoooo.X X X   X XXXOOOX",
" X X X X XXXXXoooo......oooooOOOOXXX..XXXX.. X Xooooo. X X  XXXXXX OOOX",
"  X X X X X XXoooo......oooooOOOOXX.........XXX ooooo.X X XXXXXXX XOOOX",
" X X OOXXXXXXXoooo.XXX ooooooOOOOX...XXXXXXXXX Xoooo.. X XXXXX XXX OOOX",
"X OOOOOOOOXXX oooo. X oooooooOOOOX..X X X X X X oooo..X X XXXXXXX OOOOX",
" XOOOOOOOOOOXXoooooooooooooo.OOOOX.. X X X XXX ooooo.X X XXXXX X OOOOOX",
"XXOOOOOOOOOOO .ooooooooooo...OOOOX..XOOOO X X Xoooo.. X XXX X X XOOOOXX",
"XOOOOOOOOOOOOOOooooooooooo...OOOOX.XOOOOOOOX Xooooo. XXX X X X X OOOXXX",
"XOOOOOXXXOOOOOOoooooooooooo.XOOOOX. OOOOOOOOX ooooo.XXX X X X X OOOOXXX",
"XOOOOXXXXXOOOOOOooo...ooooooXOOOOX.XXXOOOOOOXXoooo.. X X X X XXXOOOOXX ",
"XOOOO XXXXXOOOOOooo....oooooXOOOOO. XXXXOOOOXoooo.. X X X X XXXOOOOXX X",
"XOOOOX...XXOOOOOOOo.....ooooooOOOO..XXXXXOOOXoooo..XXXXXXXXXXX OOOOX X ",
"XOOOOOX.. OOOOOOOOO X ...oooooOOOOO.....XOOOXoooo.XXX...XXX X XOOOXXX X",
"XOOOOOOXOOOOOOOOOOOOOX ...ooooooOOOOO...XOOOXooo.. XX... X X XOOOOXX.. ",
"XXOOOOOOOOOOOOXXOOOOO X ...ooooooOOOOOOOOOOOXooo. XXX..XXXXXX OOOOX .  ",
" XOOOOOOOOOOOXXXOOOOOOOX ...oooooOOOOOOOOOOOXooooooX X..XXXX OOOOXXX.  ",
"XXXOOOOOOOOXXXXXXXOOOOO X ...ooo.OOOOOOOOOOXXoooooooooX.XXX XOOOOX..   ",
" XXOOOOOOOXXXX.oXXOOOOOOOX ......XXOOOOOOXXX...ooooooooo.XXX XOOX..X   ",
"X XXOOOOOXXXX..oXXXXOOOOO X .....XXXXXXXXXXX....oooooooo.XXXXXXX...    ",
" X XOOOOOXXX...oooXXOOOOOX X ...XXXXXXXXXX........oooooo..XXXXXXX.     ",
"  XXXOOOOXX...X.ooXXXXXXX XXXXXXX.XXXXXXX.. X X.....ooo.. X X XX.XX    ",
"   XXOOOOO ... ....XXXXXXXXXXXXXX..........XXX.X.........X OOO XXX     ",
"    XXOOOOX.XXX.... XXXXX XXXXX X...XX..... X..XX ......X OOOOXXXXX    ",
"   X XOOOOOX X X.........XXXXXXXXXXX XX...XXX..XXX X...X XOOOOXXXX X   ",
"    XXXOOOO XXX XXXXXXXXXX..XXXXXX..XXXXXXXX...XXXX X X X XXOOX XXX X X",
"   X XXOOOOO XXXXXXXXXX............  X.XXXX... XXXXXXX X XXXXXXXXX     ",
"    X XXOOOOX XXXXXXXX...   .....     ...XX..   XXXXXXX X XXXXX X      ",
"   XXX XOOOO X X XXXX....    ...       .....     X X XXX X XXX X X     ",
"    X XXXXXXX.XXXXXXXX.                .....          X X X X X X      ",
"   XX..XXXXX .XXXX XXX..                               XXX X X XXX     ",
"  X XX..XXX....XXXXXXX...                               XXX X.X XXX    ",
" XXXXXX........X XXXXXX..                                XXXXXXX XXX   ",
"XXXX.........   X XXXXX..X                             XXXXXXXXXX XXX  ",
" X.......        XXXXXXX.X                            XXXXXXXXXXXX XX  ",
"XX......          XXXXX..                             X XXX.XXXXXXX X  ",
"....             XXXXXX.X                             X  X ..XXXXXXX X ",
".X      XXXXX   X XXX ...                              X    X.XXXXXXX  ",
"XX     XX        XXXXX...                                    X.XXXXXXX ",
"XX    XX        XXXXXX...                                     ...XXXXXX",
"XX   XXX         XXXXXX.                                       ..XXXXX ",
"XXX XX          XXXXXXX.                                  X    ....XXX+",
" XXXX        X   XXXXX..                                 X X     ....X.",
"X X X       XXX X XXX..                                   X X     .....",
"           XXXX    XX..                                  X X X         ",
"           XXXX   XXXX.                                  XX XXX        ",
"           XXX     XX..                                  XXXXX X       ",
"            X       X.X                                   ..XXX.X      ",
"                                                           .....       ",
"                                                                       "
};
