/* XPM */
static char *_d0e6f4d13a54014acfede780672ffddB29mzEzolrKd8ErQ[] = {
/* columns rows colors chars-per-pixel */
"67 37 6 1 ",
"  c black",
". c #C00000",
"X c red",
"o c #808080",
"O c #C0C0C0",
"+ c white",
/* pixels */
"ooooooooooooooooooooooooooooooooooooooooooooooooooooooooooooooooooO",
"o                                                                 +",
"o ++++++++++++++++++++++++++++++++++++++++++++++++++++++++++++++O +",
"o +OOOOOOOOOOOOOOOOOOOOOOOOOOOOOOOOOOOOOOOOOOOOOOOOOOOOOOOOOOOOOo +",
"o +OOOOOOOOOOOOOOOOOOOOOOOOOOOOOOOOOOOOOOOOOOOOOOOOOOOOOOOOOOOOOo +",
"o +OOOOOOOOOOOOOOOOOOOOOOOOOOOOOOOOOOOOOOOOOOOOOOOOOOOOOOOOOOOOOo +",
"o +OOOOOOOOOOOOOOOOOOOOOOOOOOOOOOOOOOOOOOOOOOOOOOOOOOOOOOOOOOOOOo +",
"o +OOOOOOOOOOOOOOOOOOOXXOOOOOOOOOOOOOOOOOOOOOOOOOOOOOOOOOOOOOOOOo +",
"o +OOOOOOXXXOOOOOOOOOXX..OOOOOOOOOOOOOOOOOOOOOOOOOOOOOOOOOOOOOOOo +",
"o +OOOOOX... OOOOOOOXX....OOOOOOOOOOOOOOOOOOOOOOOOOOOOOOOOOOOOOOo +",
"o +OOOOX.... oOOOOOXX.... oOOOOOOOOOOOOOOOOOOOOOOOOOOOOOOOOOOOOOo +",
"o +OOOOX..... oOOOXX....  ooOOOOOOOOOOOOOOOOOOOOOOOOOOOOOOOOOOOOo +",
"o +OOOOX..... oOOXX....  oooOOOOOOOOOOOOOOOOOOOOOOOOOOOOOOOOOOOOo +",
"o +OOOOOX..... oXX....  ooooOOOOOOOOOOOOOOOOOOOOOOOOOOOOOOOOOOOOo +",
"o +OOOOOOX.....XX....  ooooOOOOOOOOOOOOOOOOOOOOOOOOOOOOOOOOOOOOOo +",
"o +OOOOOOOX.........  ooooOOOOOOOOOOOO OOOOO OOOOOOOOOOOOOOOOOOOo +",
"o +OOOOOOOX........  ooooOOOOOOOOOOOOO  OOOO OOOOOOOOOOOOOOOOOOOo +",
"o +OOOOOOOOX......  ooooOOOOOOOOOOOOOO O OOO OOO    OOOOOOOOOOOOo +",
"o +OOOOOOOOX...... ooooOOOOOOOOOOOOOOO OO OO OO OOOO OOOOOOOOOOOo +",
"o +OOOOOOOXX...... oooOOOOOOOOOOOOOOOO OO OO OO OOOO OOOOOOOOOOOo +",
"o +OOOOOOXX........ oOOOOOOOOOOOOOOOOO OOO O OO OOOO OOOOOOOOOOOo +",
"o +OOOOOXX.......... OOOOOOOOOOOOOOOOO OOO O OO OOOO OOOOOOOOOOOo +",
"o +OOOOXX............ OOOOOOOOOOOOOOOO OOOO  OO OOOO OOOOOOOOOOOo +",
"o +OOOXX.....  ....... OOOOOOOOOOOOOOO OOOOO OOO    OOOOOOOOOOOOo +",
"o +OOXX.....  oX......  OOOOOOOOOOOOOOOOOOOOOOOOOOOOOOOOOOOOOOOOo +",
"o +OOX.....  oooX....  ooOOOOOOOOOOOOOOOOOOOOOOOOOOOOOOOOOOOOOOOo +",
"o +OOX....  ooooOX..  ooooOOOOOOOOOOOOOOOOOOOOOOOOOOOOOOOOOOOOOOo +",
"o +OOOX..  ooooOOX.  ooooOOOOOOOOOOOOOOOOOOOOOOOOOOOOOOOOOOOOOOOo +",
"o +OOOX.  ooooOOOO  ooooOOOOOOOOOOOOOOOOOOOOOOOOOOOOOOOOOOOOOOOOo +",
"o +OOOO  ooooOOOOOOooooOOOOOOOOOOOOOOOOOOOOOOOOOOOOOOOOOOOOOOOOOo +",
"o +OOOOOooooOOOOOOOOooOOOOOOOOOOOOOOOOOOOOOOOOOOOOOOOOOOOOOOOOOOo +",
"o +OOOOOOooOOOOOOOOOOOOOOOOOOOOOOOOOOOOOOOOOOOOOOOOOOOOOOOOOOOOOo +",
"o +OOOOOOOOOOOOOOOOOOOOOOOOOOOOOOOOOOOOOOOOOOOOOOOOOOOOOOOOOOOOOo +",
"o +OOOOOOOOOOOOOOOOOOOOOOOOOOOOOOOOOOOOOOOOOOOOOOOOOOOOOOOOOOOOOo +",
"o Ooooooooooooooooooooooooooooooooooooooooooooooooooooooooooooooo +",
"o                                                                 +",
"O++++++++++++++++++++++++++++++++++++++++++++++++++++++++++++++++++"
};
