/* XPM */
static char *btn_o_down1737359964[] = {
/* columns rows colors chars-per-pixel */
"67 37 7 1 ",
"  c black",
". c #00C000",
"X c green",
"o c #0000C0",
"O c #808080",
"+ c #C0C0C0",
"@ c white",
/* pixels */
"OOOOOOOOOOOOOOOOOOOOOOOOOOOOOOOOOOOOOOOOOOOOOOOOOOOOOOOOOOOOOOOOOO+",
"O                                                                 @",
"O OOOOOOOOOOOOOOOOOOOOOOOOOOOOOOOOOOOOOOOOOOOOOOOOOOOOOOOOOOOOOOO @",
"O O++++++++++++++++++++++++++++++++++++++++++++++++++++++++++++++ @",
"O O++++++++++++++++++++++++++++++++++++++++++++++++++++++++++++++ @",
"O O++++++++++++++++++++++++++++++++++++++++++++++++++++++++++++++ @",
"O O+++++++++++++++++++++++XXX++++++++++++++++++++++++++++++++++++ @",
"O O++++++++++++++++++++++XX...+++++++++++++++++++++++++++++++++++ @",
"O O+++++++++++++++++++++XX.....++++++++++++++++++++++++++++++++++ @",
"O O++++++++++++++++++++XX.....oO+++++++++++++++++++++++++++++++++ @",
"O O+++++++++++++++++++XX.....ooOO++++++++++++++++++++++++++++++++ @",
"O O++++++++++++++++++XX.....ooOOOO+++++++++++++++++++++++++++++++ @",
"O O+++++++++++++++++XX.....ooOOOOO+++++++++++++++++++++++++++++++ @",
"O O+++++++XXXX+++++XX.....ooOOOOOO+++++++++++++++++++++++++++++++ @",
"O O++++++XX...o+++XX.....ooOOOOOO++++++++++++++++++++++++++++++++ @",
"O O++++++X....oO+XX.....ooOOOOOO+++++++++++++++++++++++++++++++++ @",
"O O++++++X....oOXX.....ooOOOOOO+++++++++++++    +++ +++ +++++++++ @",
"O O++++++X....oXX.....ooOOOOOO+++++++++++++ ++++ ++ ++ ++++++++++ @",
"O O++++++X....XX.....ooOOOOOO+++++++++++++ ++++++ + + +++++++++++ @",
"O O++++++X..........ooOOOOOO++++++++++++++ ++++++ + + +++++++++++ @",
"O O++++++X.........ooOOOOOO+++++++++++++++ ++++++ +  ++++++++++++ @",
"O O++++++X........ooOOOOOO++++++++++++++++ ++++++ + + +++++++++++ @",
"O O++++++X.......ooOOOOOO+++++++++++++++++ ++++++ + ++ ++++++++++ @",
"O O++++++X......ooOOOOOO+++++++++++++++++++ ++++ ++ +++ +++++++++ @",
"O O++++++X.....ooOOOOOO+++++++++++++++++++++    +++ +++ +++++++++ @",
"O O++++++X....ooOOOOOO+++++++++++++++++++++++++++++++++++++++++++ @",
"O O++++++X...ooOOOOOO++++++++++++++++++++++++++++++++++++++++++++ @",
"O O+++++++..ooOOOOOO+++++++++++++++++++++++++++++++++++++++++++++ @",
"O O++++++++ooOOOOOO++++++++++++++++++++++++++++++++++++++++++++++ @",
"O O+++++++++OOOOOO+++++++++++++++++++++++++++++++++++++++++++++++ @",
"O O++++++++++OOOO++++++++++++++++++++++++++++++++++++++++++++++++ @",
"O O+++++++++++OO+++++++++++++++++++++++++++++++++++++++++++++++++ @",
"O O++++++++++++++++++++++++++++++++++++++++++++++++++++++++++++++ @",
"O O++++++++++++++++++++++++++++++++++++++++++++++++++++++++++++++ @",
"O O++++++++++++++++++++++++++++++++++++++++++++++++++++++++++++++ @",
"O                                                                 @",
"+@@@@@@@@@@@@@@@@@@@@@@@@@@@@@@@@@@@@@@@@@@@@@@@@@@@@@@@@@@@@@@@@@@"
};
