/* XPM */
static char *btn_o_up1737359963[] = {
/* columns rows colors chars-per-pixel */
"67 37 7 1 ",
"  c black",
". c #00C000",
"X c green",
"o c #0000C0",
"O c #808080",
"+ c #C0C0C0",
"@ c white",
/* pixels */
"OOOOOOOOOOOOOOOOOOOOOOOOOOOOOOOOOOOOOOOOOOOOOOOOOOOOOOOOOOOOOOOOOO+",
"O                                                                 @",
"O @@@@@@@@@@@@@@@@@@@@@@@@@@@@@@@@@@@@@@@@@@@@@@@@@@@@@@@@@@@@@@+ @",
"O @+++++++++++++++++++++++++++++++++++++++++++++++++++++++++++++O @",
"O @+++++++++++++++++++++++++++++++++++++++++++++++++++++++++++++O @",
"O @+++++++++++++++++++++++++++++++++++++++++++++++++++++++++++++O @",
"O @+++++++++++++++++++++++XXX+++++++++++++++++++++++++++++++++++O @",
"O @++++++++++++++++++++++XX...++++++++++++++++++++++++++++++++++O @",
"O @+++++++++++++++++++++XX.....+++++++++++++++++++++++++++++++++O @",
"O @++++++++++++++++++++XX.....oO++++++++++++++++++++++++++++++++O @",
"O @+++++++++++++++++++XX.....ooOO+++++++++++++++++++++++++++++++O @",
"O @++++++++++++++++++XX.....ooOOO+++++++++++++++++++++++++++++++O @",
"O @+++++++++++++++++XX.....ooOOOO+++++++++++++++++++++++++++++++O @",
"O @+++++++XXXX+++++XX.....ooOOOO++++++++++++++++++++++++++++++++O @",
"O @++++++XX...o+++XX.....ooOOOO+++++++++++++++++++++++++++++++++O @",
"O @++++++X....oO+XX.....ooOOOO+++++++++++++    +++ +++ +++++++++O @",
"O @++++++X....oOXX.....ooOOOO+++++++++++++ ++++ ++ ++ ++++++++++O @",
"O @++++++X....oXX.....ooOOOO+++++++++++++ ++++++ + + +++++++++++O @",
"O @++++++X....XX.....ooOOOO++++++++++++++ ++++++ + + +++++++++++O @",
"O @++++++X..........ooOOOO+++++++++++++++ ++++++ +  ++++++++++++O @",
"O @++++++X.........ooOOOO++++++++++++++++ ++++++ + + +++++++++++O @",
"O @++++++X........ooOOOO+++++++++++++++++ ++++++ + ++ ++++++++++O @",
"O @++++++X.......ooOOOO+++++++++++++++++++ ++++ ++ +++ +++++++++O @",
"O @++++++X......ooOOOO+++++++++++++++++++++    +++ +++ +++++++++O @",
"O @++++++X.....ooOOOO+++++++++++++++++++++++++++++++++++++++++++O @",
"O @++++++X....ooOOOO++++++++++++++++++++++++++++++++++++++++++++O @",
"O @++++++X...ooOOOO+++++++++++++++++++++++++++++++++++++++++++++O @",
"O @+++++++..ooOOOO++++++++++++++++++++++++++++++++++++++++++++++O @",
"O @++++++++ooOOOO+++++++++++++++++++++++++++++++++++++++++++++++O @",
"O @+++++++++OOOO++++++++++++++++++++++++++++++++++++++++++++++++O @",
"O @++++++++++OO+++++++++++++++++++++++++++++++++++++++++++++++++O @",
"O @+++++++++++++++++++++++++++++++++++++++++++++++++++++++++++++O @",
"O @+++++++++++++++++++++++++++++++++++++++++++++++++++++++++++++O @",
"O @+++++++++++++++++++++++++++++++++++++++++++++++++++++++++++++O @",
"O +OOOOOOOOOOOOOOOOOOOOOOOOOOOOOOOOOOOOOOOOOOOOOOOOOOOOOOOOOOOOOO @",
"O                                                                 @",
"+@@@@@@@@@@@@@@@@@@@@@@@@@@@@@@@@@@@@@@@@@@@@@@@@@@@@@@@@@@@@@@@@@@"
};
