/* XPM */
static char *_3aee649e5c542d3d69c4e95cac0d9f0r1ckpoczfxtM5ERK[] = {
/* columns rows colors chars-per-pixel */
"67 37 6 1 ",
"  c black",
". c #C00000",
"X c red",
"o c #808080",
"O c #C0C0C0",
"+ c white",
/* pixels */
"ooooooooooooooooooooooooooooooooooooooooooooooooooooooooooooooooooO",
"o                                                                 +",
"o ooooooooooooooooooooooooooooooooooooooooooooooooooooooooooooooo +",
"o oOOOOOOOOOOOOOOOOOOOOOOOOOOOOOOOOOOOOOOOOOOOOOOOOOOOOOOOOOOOOOO +",
"o oOOOOOOOOOOOOOOOOOOOOOOOOOOOOOOOOOOOOOOOOOOOOOOOOOOOOOOOOOOOOOO +",
"o oOOOOOOOOOOOOOOOOOOOOOOOOOOOOOOOOOOOOOOOOOOOOOOOOOOOOOOOOOOOOOO +",
"o oOOOOOOOOOOOOOOOOOOOOOOOOOOOOOOOOOOOOOOOOOOOOOOOOOOOOOOOOOOOOOO +",
"o oOOOOOOOOOOOOOOOOOOOXXOOOOOOOOOOOOOOOOOOOOOOOOOOOOOOOOOOOOOOOOO +",
"o oOOOOOOXXXOOOOOOOOOXX..OOOOOOOOOOOOOOOOOOOOOOOOOOOOOOOOOOOOOOOO +",
"o oOOOOOX... OOOOOOOXX....OOOOOOOOOOOOOOOOOOOOOOOOOOOOOOOOOOOOOOO +",
"o oOOOOX.... oOOOOOXX.... oOOOOOOOOOOOOOOOOOOOOOOOOOOOOOOOOOOOOOO +",
"o oOOOOX..... oOOOXX....  ooOOOOOOOOOOOOOOOOOOOOOOOOOOOOOOOOOOOOO +",
"o oOOOOX..... ooOXX....  ooooOOOOOOOOOOOOOOOOOOOOOOOOOOOOOOOOOOOO +",
"o oOOOOOX..... oXX....  ooooooOOOOOOOOOOOOOOOOOOOOOOOOOOOOOOOOOOO +",
"o oOOOOOOX.....XX....  ooooooOOOOOOOOOOOOOOOOOOOOOOOOOOOOOOOOOOOO +",
"o oOOOOOOOX.........  ooooooOOOOOOOOOOOOOOOOOOOOOOOOOOOOOOOOOO OO +",
"o oOOOOOOOX........  ooooooOOO   OOOOOOOOOOOOOOOOOOOOOOOOOOOOO OO +",
"o oOOOOOOOOX......  ooooooOOO OOO OOOOOOOOOOOOOOOOOOOOOOOOOOOO OO +",
"o oOOOOOOOOX...... ooooooOOO OOOOOOO   OOO O  OOOO   OOO    OO OO +",
"o oOOOOOOOXX...... oooooOOOO OOOOOO OOO OO  OO OO OOO O OOOO O OO +",
"o oOOOOOOXX........ oooOOOOO OOOOOOOOOO OO OOO OO OOOOO OOOO O OO +",
"o oOOOOOXX.......... oOOOOOO OOOOOOO    OO OOO OO OOOOO      O OO +",
"o oOOOOXX............ OOOOOO OOOOOO OOO OO OOO OO OOOOO OOOOOO OO +",
"o oOOOXX.....  ....... OOOOOO OOO O OOO OO OOO OO OOO O OOOOOO OO +",
"o oOOXX.....  oX......  OOOOOO   OOO    OO OOO OOO   OOO     O OO +",
"o oOOX.....  oooX....  ooOOOOOOOOOOOOOOOOOOOOOOOOOOOOOOOOOOOOOOOO +",
"o oOOX....  oooooX..  ooooOOOOOOOOOOOOOOOOOOOOOOOOOOOOOOOOOOOOOOO +",
"o oOOOX..  ooooooX.  ooooooOOOOOOOOOOOOOOOOOOOOOOOOOOOOOOOOOOOOOO +",
"o oOOOX.  oooooooO  ooooooOOOOOOOOOOOOOOOOOOOOOOOOOOOOOOOOOOOOOOO +",
"o oOOOO  ooooooOOOOooooooOOOOOOOOOOOOOOOOOOOOOOOOOOOOOOOOOOOOOOOO +",
"o oOOOOOooooooOOOOOOooooOOOOOOOOOOOOOOOOOOOOOOOOOOOOOOOOOOOOOOOOO +",
"o oOOOOOOooooOOOOOOOOooOOOOOOOOOOOOOOOOOOOOOOOOOOOOOOOOOOOOOOOOOO +",
"o oOOOOOOOooOOOOOOOOOOOOOOOOOOOOOOOOOOOOOOOOOOOOOOOOOOOOOOOOOOOOO +",
"o oOOOOOOOOOOOOOOOOOOOOOOOOOOOOOOOOOOOOOOOOOOOOOOOOOOOOOOOOOOOOOO +",
"o oOOOOOOOOOOOOOOOOOOOOOOOOOOOOOOOOOOOOOOOOOOOOOOOOOOOOOOOOOOOOOO +",
"o                                                                 +",
"O++++++++++++++++++++++++++++++++++++++++++++++++++++++++++++++++++"
};
