/* XPM */
static char *coin_51737908250[] = {
/* columns rows colors chars-per-pixel */
"70 70 199 2 ",
"   c #1D0D1E",
".  c #38181C",
"X  c #0B0C24",
"o  c #070923",
"O  c #161325",
"+  c #191425",
"@  c #221A25",
"#  c #2C1C24",
"$  c #321F24",
"%  c #2F2326",
"&  c #2F292A",
"*  c #332526",
"=  c #3A2A27",
"-  c #332A2A",
";  c #571E14",
":  c #43211E",
">  c #58271A",
",  c #612918",
"<  c #793317",
"1  c #752911",
"2  c #412321",
"3  c #453227",
"4  c #453328",
"5  c #5B3224",
"6  c #5F3C27",
"7  c #553D29",
"8  c #723F21",
"9  c #683421",
"0  c #5D4229",
"q  c #5C4C32",
"w  c #604429",
"e  c #714F2A",
"r  c #74532B",
"t  c #79552B",
"y  c #655635",
"u  c #7C5E32",
"i  c #3A4466",
"p  c #8C2C06",
"a  c #8B2C0A",
"s  c #872C0C",
"d  c #902E0A",
"f  c #8E310D",
"g  c #95380F",
"h  c #91330C",
"j  c #8E3610",
"k  c #8C3B16",
"l  c #923710",
"z  c #953B12",
"x  c #9A3E14",
"c  c #974014",
"v  c #9A4416",
"b  c #9D4B19",
"n  c #9F4C15",
"m  c #8A461D",
"M  c #A24C1A",
"N  c #A44618",
"B  c #A4541C",
"V  c #A6591F",
"C  c #B85018",
"Z  c #8F4923",
"A  c #914923",
"S  c #9D4C24",
"D  c #974924",
"F  c #865E2C",
"G  c #955A28",
"H  c #A04B21",
"J  c #A75A20",
"K  c #A85C20",
"L  c #A75C2D",
"P  c #AC572C",
"I  c #8D622C",
"U  c #94662D",
"Y  c #95692D",
"T  c #9C6D2D",
"R  c #9E702E",
"E  c #93783B",
"W  c #946E32",
"Q  c #AC6123",
"!  c #A3682B",
"~  c #B16927",
"^  c #B36D29",
"/  c #B7722A",
"(  c #B77E2F",
")  c #BA782E",
"_  c #B56537",
"`  c #BB7A32",
"'  c #C75B1F",
"]  c #CF601D",
"[  c #D8621B",
"{  c #EF721E",
"}  c #FC721E",
"|  c #C65E22",
" . c #C66022",
".. c #C96423",
"X. c #CC792A",
"o. c #CC6B32",
"O. c #E06E27",
"+. c #EC7122",
"@. c #EE7D25",
"#. c #F67521",
"$. c #FC7620",
"%. c #F77C24",
"&. c #FC7C23",
"*. c #AB6741",
"=. c #B16F46",
"-. c #B2734B",
";. c #BD822F",
":. c #B7802F",
">. c #BE8231",
",. c #CB892F",
"<. c #C18333",
"1. c #CB8D31",
"2. c #C78D37",
"3. c #CB953A",
"4. c #CE993D",
"5. c #C79238",
"6. c #DD9932",
"7. c #D49636",
"8. c #FB8326",
"9. c #FE8A27",
"0. c #FB872A",
"q. c #FA8C2A",
"w. c #F58628",
"e. c #FC922C",
"r. c #FD9B2D",
"t. c #F3982D",
"y. c #F28330",
"u. c #F89B35",
"i. c #FEA22F",
"p. c #EDA433",
"a. c #F2A632",
"s. c #FDA631",
"d. c #F2AA33",
"f. c #FDAD33",
"g. c #FCA439",
"h. c #FBAC3D",
"j. c #FFB234",
"k. c #FFB935",
"l. c #FFBC3D",
"z. c #F2B13C",
"x. c #FFC23F",
"c. c #998543",
"v. c #B69140",
"b. c #BA8256",
"n. c #A88D43",
"m. c #CF804B",
"M. c #CB9B42",
"N. c #C79656",
"B. c #ED9048",
"V. c #D6A542",
"C. c #D9AC46",
"Z. c #CCB34F",
"A. c #DDB148",
"S. c #DBB047",
"D. c #D8B955",
"F. c #CDB24E",
"G. c #E3BA4C",
"H. c #FDB445",
"J. c #F9BB45",
"K. c #E1BC50",
"L. c #FDB056",
"P. c #CA9569",
"I. c #C79A70",
"U. c #D7B57A",
"Y. c #F1AE6C",
"T. c #E6C14F",
"R. c #FBC24B",
"E. c #FFCD49",
"W. c #FEC546",
"Q. c #FFD04A",
"!. c #E7C350",
"~. c #E8C451",
"^. c #E9CA59",
"/. c #FCCD52",
"(. c #FAC754",
"). c #FFDC55",
"_. c #F3D559",
"`. c #FED65B",
"'. c #F5DC5C",
"]. c #FCDC5B",
"[. c #F9D355",
"{. c #FCE45E",
"}. c #FFEA5F",
"|. c #F7E15E",
" X c #F6D373",
".X c #FEE661",
"XX c #FFEC63",
"oX c #FEE669",
"OX c #F7E262",
"+X c #FFF265",
"@X c #FDE879",
"#X c #D9B98C",
"$X c #E7B982",
"%X c #F4DA98",
"&X c #E6CA97",
"*X c #FBE589",
"=X c #FFE993",
"-X c #F9E6A6",
";X c None",
/* pixels */
";X;X;X;X;X;X;X;X;X;X;X;X;X;X;X;X;X;X;X;X;X;X;X;X;X;X;X;X;X;X;X;X;X;X;X;X;X;X;X;X;X;X;X;X;X;X;X;X;X;X;X;X;X;X;X;X;X;X;X;X;X;X;X;X;X;X;X;X;X;X",
";X;X;X;X;X;X;X;X;X;X;X;X;X;X;X;X;X;X;X;X;X;X;X;X;X;X;X;X;X;X;X;X;X;X;X;X;X;X;X;X;X;X;X;X;X;X;X;X;X;X;X;X;X;X;X;X;X;X;X;X;X;X;X;X;X;X;X;X;X;X",
";X;X;X;X;X;X;X;X;X;X;X;X;X;X;X;X;X;X;X;X;X;X;X;X;X;X;X;X;X;X;X;X;X;X;X;X;X;X;X;X;X;X;X;X;X;X;X;X;X;X;X;X;X;X;X;X;X;X;X;X;X;X;X;X;X;X;X;X;X;X",
";X;X;X;X;X;X;X;X;X;X;X;X;X;X;X;X;X;X;X;X;X;X;X;X;X;X;X;X;X;X;X;X;X;X;X;X;X;X;X;X;X;X;X;X;X;X;X;X;X;X;X;X;X;X;X;X;X;X;X;X;X;X;X;X;X;X;X;X;X;X",
";X;X;X;X;X;X;X;X;X;X;X;X;X;X;X;X;X;X;X;X;X;X;X;X;X;X;X;X;X;X;X;X;Xa a a a ;X;X;X;X;X;X;X;X;X;X;X;X;X;X;X;X;X;X;X;X;X;X;X;X;X;X;X;X;X;X;X;X;X",
";X;X;X;X;X;X;X;X;X;X;X;X;X;X;X;X;X;X;X;X;X;X;X;X;X;X;X;X;X;X;Xa f f f f f f f ;X;X;X;X;X;X;X;X;X;X;X;X;X;X;X;X;X;X;X;X;X;X;X;X;X;X;X;X;X;X;X",
";X;X;X;X;X;X;X;X;X;X;X;X;X;X;X;X;X;X;X;X;X;X;X;X;X;X;X;X;X;X;Xx z c c c c z x ;X;X;X;X;X;X;X;X;X;X;X;X;X;X;X;X;X;X;X;X;X;X;X;X;X;X;X;X;X;X;X",
";X;X;X;X;X;X;X;X;X;X;X;X;X;X;X;X;X;X;X;X;X;X;X;X;X;X;X;X;X;XB V J K K K J J V B ;X;X;X;X;X;X;X;X;X;X;X;X;X;X;X;X;X;X;X;X;X;X;X;X;X;X;X;X;X;X",
";X;X;X;X;X;X;X;X;X;X;X;X;X;X;X;X;X;X;X;X;X;X;X;X;X;X;X;X;XM Q / ` <.<.<.>.` / Q M ;X;X;X;X;X;X;X;X;X;X;X;X;X;X;X;X;X;X;X;X;X;X;X;X;X;X;X;X;X",
";X;X;X;X;X;X;X;X;X;X;X;X;X;X;X;X;X;X;X;X;X;X;X;X;X;X;Xp g B / 5.V.C.A.A.C.V.2./ V z a ;X;X;X;X;X;X;X;X;X;X;X;X;X;X;X;X;X;X;X;X;X;X;X;X;X;X;X",
";X;X;X;X;X;X;X;X;X;X;X;X;X;X;X;X;X;X;X;X;X;X;X;X;X;X;Xl v Q >.F.!._.'.'._.T.C.<.K v h ;X;X;X;X;X;X;X;X;X;X;X;X;X;X;X;X;X;X;X;X;X;X;X;X;X;X;X",
";X;X;X;X;X;X;X;X;X;X;X;X;X;X;X;X;X;X;X;X;X;X;X;X;X;XD S L ` M.D._.}.+XXX}._.G.3./ J b v ;X;X;X;X;X;X;X;X;X;X;X;X;X;X;X;X;X;X;X;X;X;X;X;X;X;X",
";X;X;X;X;X;X;X;X;X;X;X;X;X;X;X;X;X;X;X;X;X;X;X;X;XL *.-.b.b.D.^.OXXX+X+X+X|.~.C.5.) ~ K B ;X;X;X;X;X;X;X;X;X;X;X;X;X;X;X;X;X;X;X;X;X;X;X;X;X",
";X;X;X;X;X;X;X;X;X;X;X;X;X;X;X;X;X;X;X;X;X;X;Xl S *.b.I.U.U. X XoXXX+XXXXX|._.T.A.M.2./ K M l ;X;X;X;X;X;X;X;X;X;X;X;X;X;X;X;X;X;X;X;X;X;X;X",
";X;X;X;X;X;X;X;X;X;X;X;X;X;X;X;X;X;X;X;X;X;Xa l H -.I.#X&X=X*X@XoX.X}.}..X.X|.'._.!.C.2.~ M l a ;X;X;X;X;X;X;X;X;X;X;X;X;X;X;X;X;X;X;X;X;X;X",
";X;X;X;X;X;X;X;X;X;X;X;X;X;X;X;X;X;X;X;X;X;Xa l H -.I.#X-X-X=X@XoX}.}.}.}.}..X.X}._.G.3.^ b l a ;X;X;X;X;X;X;X;X;X;X;X;X;X;X;X;X;X;X;X;X;X;X",
";X;X;X;X;X;X;X;X;X;X;X;X;X;X;X;X;X;X;X;X;X;Xp z H =.P.Y.%X%X*X@X.X.X}.}..X.XXXXX+X|.!.4./ M g a ;X;X;X;X;X;X;X;X;X;X;X;X;X;X;X;X;X;X;X;X;X;X",
";X;X;X;X;X;X;X;X;X;X;X;X;X;X;X;X;X;X;X;X;X;Xd g N _ m.Y.Y. X X@XoXXX.X.X.X.XXX+X+X|.!.4.^ M g d ;X;X;X;X;X;X;X;X;X;X;X;X;X;X;X;X;X;X;X;X;X;X",
";X;X;X;X;X;X;X;X;X;X;X;X;X;X;X;X;X;X;X;X;X;Xd g x C o.B.L.L.L.`..X.XXXXX.X.XXX+XXX|.!.4.^ M g f ;X;X;X;X;X;X;X;X;X;X;X;X;X;X;X;X;X;X;X;X;X;X",
";X;X;X;X;X;X;X;X;X;X;X;X;X;X;X;X;X;X;X;X;X;Xf j x N ' O.%.B.H.(.`.}..XXX.X.X.XXXXX'.T.3.^ b f p ;X;X;X;X;X;X;X;X;X;X;X;X;X;X;X;X;X;X;X;X;X;X",
";X;X;X;X;X;X;X;X;X;X;X;X;X;X;X;X;X;X;X;X;X;X< < k v C [ %.0.g.H.(.[.].}..X.X.X+XXX'.!.5.! m < 1 ;X;X;X;X;X;X;X;X;X;X;X;X;X;X;X;X;X;X;X;X;X;X",
";X;X;X;X;X;X;X;X;X;X;X;X;X;X;X;X;X;X;X;X;X;X> , < m C [ +.0.e.g.H.R./.`.|..XXX+XXXOXD.v.I 8 , ; ;X;X;X;X;X;X;X;X;X;X;X;X;X;X;X;X;X;X;X;X;X;X",
";X;X;X;X;X;X;X;X;X;X;X;X;X;X;X;X;X;X;X;X;X;X. : > < N ] +.&.9.e.u.g.J./.]..X+X+X+XOXD.n.u 5 : . ;X;X;X;X;X;X;X;X;X;X;X;X;X;X;X;X;X;X;X;X;X;X",
";X;X;X;X;X;X;X;X;X;X;X;X;X;X;X;X;X;X;X;X;X;X  # 2 9 S ..+.$.&.&.y.u.h.R.).|.XX+X+XOXZ.c.y 3 #   ;X;X;X;X;X;X;X;X;X;X;X;X;X;X;X;X;X;X;X;X;X;X",
";X;X;X;X;X;X;X;X;X;X;X;X;X;X;X;X;X;X;X;X;X;XO O % 5 A  .+.$.$.$.%.0.u.J./.{.}.}.}._.Z.c.q - + X ;X;X;X;X;X;X;X;X;X;X;X;X;X;X;X;X;X;X;X;X;X;X",
";X;X;X;X;X;X;X;X;X;X;X;X;X;X;X;X;X;X;X;X;X;XX O % 5 Z  .+.$.} } #.8.u.H.R./.).).).~.F.E q & O o ;X;X;X;X;X;X;X;X;X;X;X;X;X;X;X;X;X;X;X;X;X;X",
";X;X;X;X;X;X;X;X;X;X;X;X;X;X;X;X;X;X;X;X;X;XX O # 5 Z  .+.$.} } #.%.e.g.J.W.E.Q.E.J.4.E q & O o ;X;X;X;X;X;X;X;X;X;X;X;X;X;X;X;X;X;X;X;X;X;X",
";X;X;X;X;X;X;X;X;X;X;X;X;X;X;X;X;X;X;X;X;X;XX + * 5 Z  .+.$.$.} #.%.q.u.f.k.x.x.x.z.3.W q * O X ;X;X;X;X;X;X;X;X;X;X;X;X;X;X;X;X;X;X;X;X;X;X",
";X;X;X;X;X;X;X;X;X;X;X;X;X;X;X;X;X;X;X;X;X;XX + $ 5 D | +.$.&.&.%.8.q.r.s.f.k.k.j.d.1.Y 0 * + X ;X;X;X;X;X;X;X;X;X;X;X;X;X;X;X;X;X;X;X;X;X;X",
";X;X;X;X;X;X;X;X;X;X;X;X;X;X;X;X;X;X;X;X;X;XX + $ 5 Z | +.$.&.&.8.0.t.r.s.f.f.j.f.a.1.U w * + X ;X;X;X;X;X;X;X;X;X;X;X;X;X;X;X;X;X;X;X;X;X;X",
";X;X;X;X;X;X;X;X;X;X;X;X;X;X;X;X;X;X;X;X;X;XX + $ 5 Z | +.&.8.9.q.t.r.i.s.f.f.j.f.a.1.U 0 * + X ;X;X;X;X;X;X;X;X;X;X;X;X;X;X;X;X;X;X;X;X;X;X",
";X;X;X;X;X;X;X;X;X;X;X;X;X;X;X;X;X;X;X;X;X;XX + $ 5 Z | +.&.9.e.r.r.i.s.f.f.j.j.f.a.1.Y 0 * + X ;X;X;X;X;X;X;X;X;X;X;X;X;X;X;X;X;X;X;X;X;X;X",
";X;X;X;X;X;X;X;X;X;X;X;X;X;X;X;X;X;X;X;X;X;XX + * 5 Z ' { 9.e.r.i.s.f.f.f.f.j.j.j.a.1.U 0 * + X ;X;X;X;X;X;X;X;X;X;X;X;X;X;X;X;X;X;X;X;X;X;X",
";X;X;X;X;X;X;X;X;X;X;X;X;X;X;X;X;X;X;X;X;X;XX + * 5 A ] @.9.r.r.s.j.f.f.f.j.j.j.j.a.1.Y w * + X ;X;X;X;X;X;X;X;X;X;X;X;X;X;X;X;X;X;X;X;X;X;X",
";X;X;X;X;X;X;X;X;X;X;X;X;X;X;X;X;X;X;X;X;X;XX + $ 5 G X.w.r.i.f.f.f.j.j.f.f.j.j.k.d.1.Y w * + X ;X;X;X;X;X;X;X;X;X;X;X;X;X;X;X;X;X;X;X;X;X;X",
";X;X;X;X;X;X;X;X;X;X;X;X;X;X;X;X;X;X;X;X;X;XX + * w G ,.t.s.f.f.f.j.f.f.f.j.j.j.k.d.1.Y w * + X ;X;X;X;X;X;X;X;X;X;X;X;X;X;X;X;X;X;X;X;X;X;X",
";X;X;X;X;X;X;X;X;X;X;X;X;X;X;X;X;X;X;X;X;X;XX + * 0 U ,.p.i.f.j.f.j.f.f.f.f.k.f.j.a.1.Y w * + X ;X;X;X;X;X;X;X;X;X;X;X;X;X;X;X;X;X;X;X;X;X;X",
";X;X;X;X;X;X;X;X;X;X;X;X;X;X;X;X;X;X;X;X;X;XX + * 6 I ) 6.p.s.f.f.f.f.j.f.f.f.d.p.6.>.I 0 * + X ;X;X;X;X;X;X;X;X;X;X;X;X;X;X;X;X;X;X;X;X;X;X",
";X;X;X;X;X;X;X;X;X;X;X;X;X;X;X;X;X;X;X;X;X;X;X+ * 7 t T :.1.6.p.f.j.j.k.j.d.p.6.1.( T t 7 * + ;X;X;X;X;X;X;X;X;X;X;X;X;X;X;X;X;X;X;X;X;X;X;X",
";X;X;X;X;X;X;X;X;X;X;X;X;X;X;X;X;X;X;X;X;X;X;X;X% 4 0 r I R >.6.d.j.k.k.j.d.6.>.T F e 6 4 % ;X;X;X;X;X;X;X;X;X;X;X;X;X;X;X;X;X;X;X;X;X;X;X;X",
";X;X;X;X;X;X;X;X;X;X;X;X;X;X;X;X;X;X;X;X;X;X;X;X;X;X= 4 0 t T 1.p.j.k.k.j.p.1.T t 7 4 = ;X;X;X;X;X;X;X;X;X;X;X;X;X;X;X;X;X;X;X;X;X;X;X;X;X;X",
";X;X;X;X;X;X;X;X;X;X;X;X;X;X;X;X;X;X;X;X;X;X;X;X;X;X+ @ * 7 F ( 6.a.f.f.a.6.( F 7 * @ + ;X;X;X;X;X;X;X;X;X;X;X;X;X;X;X;X;X;X;X;X;X;X;X;X;X;X",
";X;X;X;X;X;X;X;X;X;X;X;X;X;X;X;X;X;X;X;X;X;X;X;X;X;X;XX @ 4 r T <.,.7.7.1.;.T e 4 @ X ;X;X;X;X;X;X;X;X;X;X;X;X;X;X;X;X;X;X;X;X;X;X;X;X;X;X;X",
";X;X;X;X;X;X;X;X;X;X;X;X;X;X;X;X;X;X;X;X;X;X;X;X;X;X;X;XO = 0 r I Y Y T Y I t 0 = + ;X;X;X;X;X;X;X;X;X;X;X;X;X;X;X;X;X;X;X;X;X;X;X;X;X;X;X;X",
";X;X;X;X;X;X;X;X;X;X;X;X;X;X;X;X;X;X;X;X;X;X;X;X;X;X;X;X;X;X4 7 6 0 w w 0 0 7 4 ;X;X;X;X;X;X;X;X;X;X;X;X;X;X;X;X;X;X;X;X;X;X;X;X;X;X;X;X;X;X",
";X;X;X;X;X;X;X;X;X;X;X;X;X;X;X;X;X;X;X;X;X;X;X;X;X;X;X;X;X;X% * * * $ $ * * * % ;X;X;X;X;X;X;X;X;X;X;X;X;X;X;X;X;X;X;X;X;X;X;X;X;X;X;X;X;X;X",
";X;X;X;X;X;X;X;X;X;X;X;X;X;X;X;X;X;X;X;X;X;X;X;X;X;X;X;X;X;X;X+ + + + + + + + ;X;X;X;X;X;X;X;X;X;X;X;X;X;X;X;X;X;X;X;X;X;X;X;X;X;X;X;X;X;X;X",
";X;X;X;X;X;X;X;X;X;X;X;X;X;X;X;X;X;X;X;X;X;X;X;X;X;X;X;X;X;X;X;XX X X o X X ;X;X;X;X;X;X;X;X;X;X;X;X;X;X;X;X;X;X;X;X;X;X;X;X;X;X;X;X;X;X;X;X",
";X;X;X;X;X;X;X;X;X;X;X;X;X;X;X;X;X;X;X;X;X;X;X;X;X;X;X;X;X;X;X;X;X;X;X;X;X;X;X;X;X;X;X;X;X;X;X;X;X;X;X;X;X;X;X;X;X;X;X;X;X;X;X;X;X;X;X;X;X;X",
";X;X;X;X;X;X;X;X;X;X;X;X;X;X;X;X;X;X;X;X;X;X;X;X;X;X;X;X;X;X;X;X;X;X;X;X;X;X;X;X;X;X;X;X;X;X;X;X;X;X;X;X;X;X;X;X;X;X;X;X;X;X;X;X;X;X;X;X;X;X",
";X;X;X;X;X;X;X;X;X;X;X;X;X;X;X;X;X;X;X;X;X;X;X;X;X;X;X;X;X;X;X;X;X;X;X;X;X;X;X;X;X;X;X;X;X;X;X;X;X;X;X;X;X;X;X;X;X;X;X;X;X;X;X;X;X;X;X;X;X;X",
";X;X;X;X;X;X;X;X;X;X;X;X;X;X;X;X;X;X;X;X;X;X;X;X;X;X;X;X;X;X;X;X;X;X;X;X;X;X;X;X;X;X;X;X;X;X;X;X;X;X;X;X;X;X;X;X;X;X;X;X;X;X;X;X;X;X;X;X;X;X",
";X;X;X;X;X;X;X;X;X;X;X;X;X;X;X;X;X;X;X;X;X;X;X;X;X;X;X;X;Xi ;X;X;X;X;X;X;X;X;X;Xi ;X;X;X;X;X;X;X;X;X;X;X;X;X;X;X;X;X;X;X;X;X;X;X;X;X;X;X;X;X",
";X;X;X;X;X;X;X;X;X;X;X;X;X;X;X;X;X;X;X;X;X;X;X;X;X;X;Xi i i i i i i i i i i i i i i i ;X;X;X;X;X;X;X;X;X;X;X;X;X;X;X;X;X;X;X;X;X;X;X;X;X;X;X",
";X;X;X;X;X;X;X;X;X;X;X;X;X;X;X;X;X;X;X;X;X;X;X;X;X;Xi i i i i i i i i i i i i i i i i i ;X;X;X;X;X;X;X;X;X;X;X;X;X;X;X;X;X;X;X;X;X;X;X;X;X;X",
";X;X;X;X;X;X;X;X;X;X;X;X;X;X;X;X;X;X;X;X;X;X;X;X;X;Xi i i i i i i i i i i i i i i i i i ;X;X;X;X;X;X;X;X;X;X;X;X;X;X;X;X;X;X;X;X;X;X;X;X;X;X",
";X;X;X;X;X;X;X;X;X;X;X;X;X;X;X;X;X;X;X;X;X;X;X;X;Xi i i i i i i i i i i i i i i i i i i i ;X;X;X;X;X;X;X;X;X;X;X;X;X;X;X;X;X;X;X;X;X;X;X;X;X",
";X;X;X;X;X;X;X;X;X;X;X;X;X;X;X;X;X;X;X;X;X;X;Xi i i i i i i i i i i i i i i i i i i i i i i i ;X;X;X;X;X;X;X;X;X;X;X;X;X;X;X;X;X;X;X;X;X;X;X",
";X;X;X;X;X;X;X;X;X;X;X;X;X;X;X;X;X;X;X;X;X;Xi i i i i i i i i i i i i i i i i i i i i i i i i i ;X;X;X;X;X;X;X;X;X;X;X;X;X;X;X;X;X;X;X;X;X;X",
";X;X;X;X;X;X;X;X;X;X;X;X;X;X;X;X;X;X;X;X;X;Xi i i i i i i i i i i i i i i i i i i i i i i i i i ;X;X;X;X;X;X;X;X;X;X;X;X;X;X;X;X;X;X;X;X;X;X",
";X;X;X;X;X;X;X;X;X;X;X;X;X;X;X;X;X;X;X;X;X;X;Xi i i i i i i i i i i i i i i i i i i i i i i i ;X;X;X;X;X;X;X;X;X;X;X;X;X;X;X;X;X;X;X;X;X;X;X",
";X;X;X;X;X;X;X;X;X;X;X;X;X;X;X;X;X;X;X;X;X;X;X;Xi i i i i i i i i i i i i i i i i i i i i i ;X;X;X;X;X;X;X;X;X;X;X;X;X;X;X;X;X;X;X;X;X;X;X;X",
";X;X;X;X;X;X;X;X;X;X;X;X;X;X;X;X;X;X;X;X;X;X;X;X;X;Xi i i i i i i i i i i i i i i i i i ;X;X;X;X;X;X;X;X;X;X;X;X;X;X;X;X;X;X;X;X;X;X;X;X;X;X",
";X;X;X;X;X;X;X;X;X;X;X;X;X;X;X;X;X;X;X;X;X;X;X;X;X;Xi i i i i i i i i i i i i i i i i i ;X;X;X;X;X;X;X;X;X;X;X;X;X;X;X;X;X;X;X;X;X;X;X;X;X;X",
";X;X;X;X;X;X;X;X;X;X;X;X;X;X;X;X;X;X;X;X;X;X;X;X;X;X;Xi i i i i i i i i i i i i i i i ;X;X;X;X;X;X;X;X;X;X;X;X;X;X;X;X;X;X;X;X;X;X;X;X;X;X;X",
";X;X;X;X;X;X;X;X;X;X;X;X;X;X;X;X;X;X;X;X;X;X;X;X;X;X;X;Xi i i i i i i i i i i i i i ;X;X;X;X;X;X;X;X;X;X;X;X;X;X;X;X;X;X;X;X;X;X;X;X;X;X;X;X",
";X;X;X;X;X;X;X;X;X;X;X;X;X;X;X;X;X;X;X;X;X;X;X;X;X;X;X;X;X;X;X;X;X;X;X;X;X;X;X;X;X;X;X;X;X;X;X;X;X;X;X;X;X;X;X;X;X;X;X;X;X;X;X;X;X;X;X;X;X;X",
";X;X;X;X;X;X;X;X;X;X;X;X;X;X;X;X;X;X;X;X;X;X;X;X;X;X;X;X;X;X;X;X;X;X;X;X;X;X;X;X;X;X;X;X;X;X;X;X;X;X;X;X;X;X;X;X;X;X;X;X;X;X;X;X;X;X;X;X;X;X",
";X;X;X;X;X;X;X;X;X;X;X;X;X;X;X;X;X;X;X;X;X;X;X;X;X;X;X;X;X;X;X;X;X;X;X;X;X;X;X;X;X;X;X;X;X;X;X;X;X;X;X;X;X;X;X;X;X;X;X;X;X;X;X;X;X;X;X;X;X;X",
";X;X;X;X;X;X;X;X;X;X;X;X;X;X;X;X;X;X;X;X;X;X;X;X;X;X;X;X;X;X;X;X;X;X;X;X;X;X;X;X;X;X;X;X;X;X;X;X;X;X;X;X;X;X;X;X;X;X;X;X;X;X;X;X;X;X;X;X;X;X"
};
