/* XPM */
static char *digits_31737359961[] = {
/* columns rows colors chars-per-pixel */
"13 21 3 1 ",
"  c black",
". c #0000C0",
"X c cyan",
/* pixels */
".............",
"..XXXXXXXXX..",
". .XXXXXXX.X.",
".. .XXXXX.XX.",
". . .....XXX.",
".. ......XXX.",
". . .....XXX.",
".. ......XXX.",
". ........XX.",
"...XXXXXXX.X.",
"..XXXXXXXXX..",
"...XXXXXXX.X.",
". ........XX.",
".. ......XXX.",
". . .....XXX.",
".. ......XXX.",
". . .....XXX.",
".. .XXXXX.XX.",
". .XXXXXXX.X.",
"..XXXXXXXXX..",
"............."
};
