/* XPM */
static char *digits_71737359960[] = {
/* columns rows colors chars-per-pixel */
"13 21 3 1 ",
"  c black",
". c #0000C0",
"X c cyan",
/* pixels */
".............",
"..XXXXXXXXX..",
". .XXXXXXX.X.",
".. .XXXXX.XX.",
". . .....XXX.",
".. ......XXX.",
". . .....XXX.",
".. ......XXX.",
". . ......XX.",
".. . . . ..X.",
". . . . . ...",
".. . . . ..X.",
". . ......XX.",
".. ......XXX.",
". . .....XXX.",
".. ......XXX.",
". . .....XXX.",
".. . . . .XX.",
". . . . . .X.",
".. . . . . ..",
"............."
};
