/* XPM */
static char *digits_51737359961[] = {
/* columns rows colors chars-per-pixel */
"13 21 3 1 ",
"  c black",
". c #0000C0",
"X c cyan",
/* pixels */
".............",
"..XXXXXXXXX..",
".X.XXXXXXX. .",
".XX.XXXXX. ..",
".XXX..... . .",
".XXX...... ..",
".XXX..... . .",
".XXX...... ..",
".XX........ .",
".X.XXXXXXX...",
"..XXXXXXXXX..",
"...XXXXXXX.X.",
". ........XX.",
".. ......XXX.",
". . .....XXX.",
".. ......XXX.",
". . .....XXX.",
".. .XXXXX.XX.",
". .XXXXXXX.X.",
"..XXXXXXXXX..",
"............."
};
