/* XPM */
static char *digits_61737359961[] = {
/* columns rows colors chars-per-pixel */
"13 21 3 1 ",
"  c black",
". c #0000C0",
"X c cyan",
/* pixels */
".............",
"..XXXXXXXXX..",
".X.XXXXXXX. .",
".XX.XXXXX. ..",
".XXX..... . .",
".XXX...... ..",
".XXX..... . .",
".XXX...... ..",
".XX........ .",
".X.XXXXXXX...",
"..XXXXXXXXX..",
".X.XXXXXXX.X.",
".XX.......XX.",
".XXX.....XXX.",
".XXX.....XXX.",
".XXX.....XXX.",
".XXX.....XXX.",
".XX.XXXXX.XX.",
".X.XXXXXXX.X.",
"..XXXXXXXXX..",
"............."
};
