/* XPM */
static char *digits_11737359962[] = {
/* columns rows colors chars-per-pixel */
"13 21 3 1 ",
"  c black",
". c #0000C0",
"X c cyan",
/* pixels */
".............",
".. . . . . ..",
". . . . . .X.",
".. . . . .XX.",
". . .....XXX.",
".. ......XXX.",
". . .....XXX.",
".. ......XXX.",
". . ......XX.",
".. . . . ..X.",
". . . . . ...",
".. . . . ..X.",
". . ......XX.",
".. ......XXX.",
". . .....XXX.",
".. ......XXX.",
". . .....XXX.",
".. . . . .XX.",
". . . . . .X.",
".. . . . . ..",
"............."
};
