/* XPM */
static char *digits_41737359961[] = {
/* columns rows colors chars-per-pixel */
"13 21 3 1 ",
"  c black",
". c #0000C0",
"X c cyan",
/* pixels */
".............",
".. . . . . ..",
".X. . . . .X.",
".XX. . . .XX.",
".XXX.....XXX.",
".XXX.....XXX.",
".XXX.....XXX.",
".XXX.....XXX.",
".XX.......XX.",
".X.XXXXXXX.X.",
"..XXXXXXXXX..",
"...XXXXXXX.X.",
". ........XX.",
".. ......XXX.",
". . .....XXX.",
".. ......XXX.",
". . .....XXX.",
".. . . . .XX.",
". . . . . .X.",
".. . . . . ..",
"............."
};
