/* XPM */
static char *digits_101737359960[] = {
/* columns rows colors chars-per-pixel */
"13 21 2 1 ",
"  c black",
". c #0000C0",
/* pixels */
".............",
".. . . . . ..",
". . . . . . .",
".. . . . . ..",
". . ..... . .",
".. ....... ..",
". . ..... . .",
".. ....... ..",
". . ..... . .",
".. . . . . ..",
". . . . . . .",
".. . . . . ..",
". . ..... . .",
".. ....... ..",
". . ..... . .",
".. ....... ..",
". . ..... . .",
".. . . . . ..",
". . . . . . .",
".. . . . . ..",
"............."
};
