/* XPM */
static char *digits_01737359962[] = {
/* columns rows colors chars-per-pixel */
"13 21 3 1 ",
"  c black",
". c #0000C0",
"X c cyan",
/* pixels */
".............",
"..XXXXXXXXX..",
".X.XXXXXXX.X.",
".XX.XXXXX.XX.",
".XXX.....XXX.",
".XXX.....XXX.",
".XXX.....XXX.",
".XXX.....XXX.",
".XX.......XX.",
".X. . . . .X.",
".. . . . . ..",
".X. . . . .X.",
".XX.......XX.",
".XXX.....XXX.",
".XXX.....XXX.",
".XXX.....XXX.",
".XXX.....XXX.",
".XX.XXXXX.XX.",
".X.XXXXXXX.X.",
"..XXXXXXXXX..",
"............."
};
