/* XPM */
static char *doors_2_01737359958[] = {
/* columns rows colors chars-per-pixel */
"28 28 4 1 ",
"  c black",
". c #808080",
"X c #C0C0C0",
"o c None",
/* pixels */
"oooooooooooooooooooooooooooo",
"oooooooooooooooooooooooooooo",
"oo.........................o",
"oo.oooooooooooooooooooooo...",
"oo.o....... ooooooooooooo...",
"oo.o....... ooooooooooooo...",
"oo.o...XX.. ooooooooooooo...",
"oo.o.XXXX.. ooooooooooooo...",
"oo.o...XX.. ooooooooooooo...",
"oo.o...XX.. ooooooooooooo...",
"oo.o...XX.. ooooooooooooo...",
"oo.o...XX.. ooooooooooooo...",
"oo.o...XX.. ooooooooooooo...",
"oo.o...XX.. ooooooooooooo...",
"oo.o...XX.. ooooo...ooooo...",
"oo.o....... oooo.....oooo...",
"oo.o....... ooo.......ooo...",
"oo.ooooooooooo...ooo..ooo...",
"oo.oooooo...o...ooooooooo...",
"oo.ooooo.XX....oooooooooo...",
"oo.ooooo.X....ooooooooooo...",
"oo.ooooo.....oooooooooooo...",
"oo.oooooo...ooooooooooooo...",
"oo.oooooooooooooooooooooo...",
"oo.oooooooooooooooooooooo...",
"oo..........................",
"oo..........................",
"ooo........................."
};
