/* XPM */
static char *doors_1_51737359958[] = {
/* columns rows colors chars-per-pixel */
"28 28 5 1 ",
"  c black",
". c #808080",
"X c #C0C0C0",
"o c white",
"O c None",
/* pixels */
"OOOOOOOOOOOOOOOOOOOOOOOOOOOO",
"O                         OO",
"O ooooooooooooooooooooooX  O",
"O o........XXXXXXXXXXXXX. . ",
"O o..oooo..XXXXXXXXXXXXX. . ",
"O o.oo..oo.XXXXXXXXXXXXX. . ",
"O o.oo.....XXXXXXXXXXXXX. . ",
"O o.oo.....XXXXXXXXXXXXX. . ",
"O o.ooooo..XXXXXXXXXXXXX. . ",
"O o.oo..oo.XXXXXXXXXXXXX. . ",
"O o.oo..oo.XXXXXXXXXXXXX. . ",
"O o.oo..oo.XXXXXXXXXXXXX. . ",
"O o.oo..oo.XXXXXXXXXXXXX. . ",
"O o..oooo..XXXXX...XXXXX. . ",
"O o........XXXX.....XXXX. . ",
"O o........XXX.......XXX. . ",
"O oXXXXXXXXXX...   ..XXX. . ",
"O oXXXXX...X... .....XXX. . ",
"O oXXXX.oo.... ..XX..XXX. . ",
"O oXXXX.o.... ..XXXXXXXX. . ",
"O oXXXX..... ..XXXXXXXXX. . ",
"O oXXXXX...  .XXXXXXXXXX. . ",
"O oXXXXXX.  .XXXXXXXXXXX. . ",
"O oXXXXXX...XXXXXXXXXXXX. . ",
"O X...................... . ",
"O                         . ",
"OO .......................  ",
"OOO                         "
};
