/* XPM */
static char *player_0_01737469638[] = {
/* columns rows colors chars-per-pixel */
"50 50 226 2 ",
"   c #010100",
".  c #090900",
"X  c #0C0C0C",
"o  c #040A08",
"O  c #171700",
"+  c #171717",
"@  c #061715",
"#  c #2B2B00",
"$  c #303B0B",
"%  c #003131",
"&  c #242525",
"*  c gray16",
"=  c #383838",
"-  c #2F3030",
";  c #205030",
":  c #4C4C00",
">  c #575803",
",  c #5A6408",
"<  c #606000",
"1  c #696900",
"2  c #7E7E00",
"3  c #67671A",
"4  c #004949",
"5  c #1C4A4A",
"6  c #295757",
"7  c #066C69",
"8  c #166060",
"9  c #007070",
"0  c #236B47",
"q  c #484A4A",
"w  c #555656",
"e  c #626262",
"r  c #6A6A6A",
"t  c #696964",
"y  c #7B7B7B",
"u  c gray45",
"i  c #6B7777",
"p  c #B13A3A",
"a  c #AF3D3A",
"s  c #FD0400",
"d  c #FD1900",
"f  c #FA1400",
"g  c #C32204",
"h  c #C82706",
"j  c #C12E03",
"k  c #C83A01",
"l  c #FE2B02",
"z  c #F62600",
"x  c #F83700",
"c  c #A1673A",
"v  c #9C763A",
"b  c #CA5800",
"n  c #C84800",
"m  c #F15803",
"M  c #C46600",
"N  c #C46B01",
"B  c #D76500",
"V  c #DC7500",
"C  c #D67900",
"Z  c #EF6E02",
"A  c #CB6230",
"S  c #FF732A",
"D  c #DA6B6B",
"F  c #D97266",
"G  c #DB7373",
"H  c #FD7767",
"J  c #67A23B",
"K  c #57913A",
"L  c #28976E",
"P  c #6DB649",
"I  c #5BBE62",
"U  c #5FC05F",
"Y  c #67C057",
"T  c #70C04F",
"R  c #51C270",
"E  c #72DB6A",
"W  c #878700",
"Q  c #ABAB00",
"!  c #BEBE01",
"~  c #B4B705",
"^  c #B9B91A",
"/  c #9F9F3F",
"(  c #87B33C",
")  c #AFAF32",
"_  c #C18400",
"`  c #C28D00",
"'  c #D58D00",
"]  c #E88800",
"[  c #E39A00",
"{  c #E99200",
"}  c #FF9E00",
"|  c #F99300",
" . c #CCBD01",
".. c #C1BF00",
"X. c #D3B500",
"o. c #D2BB01",
"O. c #D0A509",
"+. c #E9A900",
"@. c #E7A501",
"#. c #FEA400",
"$. c #FBAA00",
"%. c #F4B300",
"&. c #E0AB2E",
"*. c #AFC718",
"=. c #85C03A",
"-. c #97C028",
";. c #A4CA25",
":. c #B5EC37",
">. c #B3E32F",
",. c #C2C301",
"<. c #CECE00",
"1. c #C7C406",
"2. c #D3D300",
"3. c #DDDD01",
"4. c #C4C411",
"5. c #D4D40B",
"6. c #F9C800",
"7. c #F4D400",
"8. c #FCDA00",
"9. c #DDE305",
"0. c #E4E400",
"q. c #EAE600",
"w. c #EBEB00",
"e. c #F8E400",
"r. c #F3F300",
"t. c #FBF500",
"y. c #FEFE00",
"u. c #FCFC0B",
"i. c #F7FB03",
"p. c #E6E618",
"a. c #E5F713",
"s. c #FAFA1A",
"d. c #D2D232",
"f. c #C3E825",
"g. c #CCF229",
"h. c #EEEE2B",
"j. c #FAF927",
"k. c #E8E83A",
"l. c #FDFD30",
"z. c #F5F538",
"x. c #E5F830",
"c. c #9C9C48",
"v. c #B3B35F",
"b. c #818379",
"n. c #8F8F6C",
"m. c #9FAC51",
"M. c #EDA773",
"N. c #87CB44",
"B. c #95E34D",
"V. c #A8D767",
"C. c #D8D84B",
"Z. c #DDDD5A",
"A. c #D7D75F",
"S. c #D3C752",
"D. c #FCFC45",
"F. c #FFFF54",
"G. c #FFFF5C",
"H. c #EBE65A",
"J. c #D9D964",
"K. c #DDDD7C",
"L. c #CCCA7A",
"P. c #F4F465",
"I. c #FEFE7D",
"U. c #FFFF71",
"Y. c #EBEB7E",
"T. c #008C8C",
"R. c #2FBB93",
"E. c #01A9A9",
"W. c #18BBA4",
"Q. c #01BFBE",
"!. c #06B2B2",
"~. c #05B2AC",
"^. c #24A6A2",
"/. c #14A38E",
"(. c #408989",
"). c #38C38B",
"_. c #2CC89A",
"`. c #37CD95",
"'. c #1CC0A2",
"]. c #16C3AB",
"[. c #03C0BB",
"{. c #07C0B7",
"}. c #10C1B0",
"|. c #25C8A2",
" X c #00C0C0",
".X c #0FC3C3",
"XX c #10C3C3",
"oX c #38CDCD",
"OX c #6EDADA",
"+X c #4BD1D1",
"@X c #818181",
"#X c #8A8A8A",
"$X c #989898",
"%X c #ACAC8C",
"&X c #ABABAB",
"*X c #A7A7A7",
"=X c #B5B5B3",
"-X c #FFFF83",
";X c #F9F99C",
":X c #EEF691",
">X c #C7C7A3",
",X c #CFCFB3",
"<X c #FEFEA3",
"1X c #ECECB6",
"2X c #FEFEBC",
"3X c #F8F8B6",
"4X c #E7E7A3",
"5X c #D8D290",
"6X c #82DFDF",
"7X c #8FE3E3",
"8X c #A6E9E9",
"9X c #CDCDCD",
"0X c #C5C5C5",
"qX c #D3D3D3",
"wX c #F5DBDB",
"eX c #F1D7C9",
"rX c #F8F8C2",
"tX c #FAFAD6",
"yX c #F8F8D8",
"uX c #ECE7D9",
"iX c #E7E7E7",
"pX c #F9F8EB",
"aX c #FCFEFD",
"sX c #E9F9F9",
"dX c #C7F0F0",
"fX c None",
/* pixels */
"fXfXfXfXfXfXfXfXfXfXfXfXfXfXfXfXfXfXfXfXfXfXfXfXfXfXfXfXfXfXfXfXfXfXfXfXfXfXfXfXfXfXfXfXfXfXfXfXfXfX",
"fXfXfXfXfXfXfXfXfXfXfXfXfXfXfXfXfXfXfXfXfXfXfXfXfXfXfXfXfXfXfXfXfXfXfXfXfXfXfXfXfXfXfXfXfXfXfXfXfXfX",
"fXfXfXfXfXfXfXfXfXfXfXfXfXfXfXfXfXfXaXaXsXOX.X X.X X X X X X X X X XfXfXfXfXfXfXfXfXfXfXfXfXfXfXfXfX",
"fXfXfXfXfXfXfXfXfXfXfXfXfXfXfXfXfXdX7X6X6XoX X X X X X X X X X X X X XfXfXfXfXfXfXfXfXfXfXfXfXfXfXfX",
"fXfXfXfXfXfXfXfXfXfXfXfXfXfXfXfXsX8XoX.X.X X X X X X X X X X X X X XQ.Q.fXfXfXfXfXfXfXfXfXfXfXfXfXfX",
"fXfXfXfXfXfXfXfXfXfXfXfXfXfXfXfXOX+XXX X X X X X X X X[. X X X X X X X XfXfXfXfXfXfXfXfXfXfXfXfXfXfX",
"fXfXfXfXfXfXfXfXfXfXfXfXfXfXfXfX X X X X X{.W.^.^.^.^.^.^.'.'.'.'.}.[.Q.fXfXfXfXfXfXfXfXfXfXfXfXfXfX",
"fXfXfXfXfXfXfXfXfX X X X X X[.Q. X X X X{.R ( c p p a a v ( =.=.=.Y '.Q.fXfXfXfXfXfXfXfXfXfXfXfXfXfX",
"fXfXfXfXfXfXfXfXfX X X X XQ._.R.).).).).).N.1.Z x x z s B o.2.2.2.;.R ).fXfXfXfXfXfXfXfXfXfXfXfXfXfX",
"fXfXfXfXfXfXfX X XQ. X X[.Q.I ;.>.f.;.( ;.5.e.8.%.O.B f Z e.r.r.r.9.*.( b.fXfXfXfXfXfXfXfXfXfXfXfXfX",
"fXfXfXfXfXfXfXfXQ. XQ.[.`.E V.C.p.p.C.J.C.h.y.y.i.3.{ z S F.P.F.s.r.0.^ c.c.fXfXfXfXfXfXfXfXfXfXfXfX",
"fXfXfXfXfXfXfXfXfXfXfXfXg.x.:X1Xd.C.1XpXyXU.u.y.y.t.} z H tXpXrXF.u.r.0.1.^ fXfXfXfXfXfXfXfXfXfXfXfX",
"fXfXfXfXfXfXfXfXfXfXfXfXF.I.Y.K.K.4XpXaXaX2XU.l.e.} Z Z M.pXaXpX<XG.s.0.1.! fXfXfXfXfXfXfXfXfXfXfXfX",
"fXfXfXfXfXfXfXfXfXfXfXu.I.tXJ.d.1XpXiXiXiXpXtXF.6.m m +.L.uXiXiXpX2Xl.w.<.1...fXfXfXfXfXfXfXfXfXfXfX",
"fXfXfXfXfXfXfXfXfXfX3.u.I.yXA.d.1X9Xy e r =XtXG.e.%.&.5X%Xt e u 9X2Xl.r.0.2.! / b.fXfXfXfXfXfXfXfXfX",
"fXfXfXfXfXfXfXfXfX<.p.j.I.3XC.d.rX=X*   X #XtXG.y.u.F.tX#XX   * =X2Xl.y.i.3.~ / n.fXfXfXfXfXfXfXfXfX",
"fXfXfXfXfXfXfXfXfXw.D.<XI.D.s.h.3X&X&   X #XyXG.y.y.F.yX#XX   & &XrXl.y.y.3...^ ^ fXfXfXfXfXfXfXfXfX",
"fXfXfXfXfXfXfXfXfXy.D.;XG.u.y.s.-X5X3 : > v.4XP.k.k.P.;Xv.> : 3 L.-Xj.y.y.9...! ~ fXfXfXfXfXfXfXfXfX",
"fXfXfXfXfXfXfXfXfXy.u.j.u.y.y.u.s.s.3.2.3.p.z.L.>X>XK.z.p.3.2.3.s.s.u.y.t.3...! ! fXfXfXfXfXfXfXfXfX",
"fXfXfXfXfXfXfXfXfXy.8.} | } 8.y.y.y.y.y.y.h.Z.4XqX0X5XZ.h.u.y.y.y.y.y.8.} ] V O...fXfXfXfXfXfXfXfXfX",
"fXfXfXfXfXfXfXfXfXy.#.l f l #.y.y.y.y.y.u.Z.,XiXiX9X=X,XZ.u.y.y.y.y.y.#.l f z C ! fXfXfXfXfXfXfXfXfX",
"fXfXfXfXfXfXfXfXfXy.#.d s d } y.y.y.y.y.u.J.0XqX9X&X%Xv.d.y.y.y.y.y.y.#.f s f C ! fXfXfXfXfXfXfXfXfX",
"fXfXfXfXfXfXfXfXfXy.$.x d z | e.t.y.y.y.u.Z.>X>X&X#Xm...9.y.y.y.y.t.e.| z d x C ..fXfXfXfXfXfXfXfXfX",
"fXfXfXfXfXfXfXfXfXy.8.$.{ C B V 7.y.y.y.y.j.C.d.d.) ..3.r.y.y.y.y.7.V B C { $.X.! fXfXfXfXfXfXfXfXfX",
"fXfXfXfXfXfXfXfXfXr.r.i.0. .M n [ 7.t.y.y.y.i.9.1.<.3.t.y.y.y.t.7.[ n M  .3.0.4.^ fXfXfXfXfXfXfXfXfX",
"fXfXfXfXfXfXfXfXfX<.9.t.t.w.X._ b V e.y.y.y.t.r.r.w.r.y.y.y.y.e.V b _ X.q.3.5./ n.fXfXfXfXfXfXfXfXfX",
"fXfXfXfXfXfXfXfXfX,.9.i.y.i.0.o.M b [ +.+.+.@.@.@.@.+.+.+.+.+.[ b M  .3.0.2.! c.y fXfXfXfXfXfXfXfXfX",
"fXfXfXfXfXfXfXfXfXfXfXu.i.y.t.w. ._ k h h h j g h h h h h h g k _  .q.0.<.,.! fXfXfXfXfXfXfXfXfXfXfX",
"fXfXfXfXfXfXfXfXfXfXfXB.g.i.y.t.0.X.N A F G G G G G G G G F A N X.0.i.0.,.-.T fXfXfXfXfXfXfXfXfXfXfX",
"fXfXfXfXfXfXfXfXfXfXfX].E a.i.y.t.q.1.S.eXwXwXwXwXwXwXwXwXeXS. .0.t.t.9.*.U }.fXfXfXfXfXfXfXfXfXfXfX",
"fXfXfXfXfXfXfXfXfXfX X[.`.E g.y.y.r.q.&.F D D D D D D D D F &.! w.r.3.;.U _.[. XfXfXfXfXfXfXfXfXfXfX",
"fXfXfXfXfXfXfXfXfX_.|.|.].'.B.y.y.y.y.@.k g g g g g g g g j C 1.q.9.Q J /.W.|.|._.fXfXfXfXfXfXfXfXfX",
"fXfXfXfXfXfXfXfXa.:.:.:.B.fXfXfXy.y.y.8.+.O._ _ ` _ _ ` _ ` <.q.2.Q > $ % K >.:.:.a.fXfXfXfXfXfXfXfX",
"fXfXfXfXfXfXfXy.y.y.y.y.u.fXfXfXy.y.r.r.t.0.<.<.<.<.<.<.<.2.3.0.Q 1 O     2 w.2.,.r.q.fXfXfXfXfXfXfX",
"fXfXfXfXfXfXfXy.y.fXfXy.fXfXfXfXfXfX<.9.i.t.r.r.r.r.r.r.r.w.3.Q > O o   . v 9.v > <...# fXfXfXfXfXfX",
"fXfXfXfXfXfXfXy.y.fXfXy.fXfXfXfXfX).T N.B.f.0.w.0.0.0.0.q.9.;.P 0 % o   . : J $ # *.~ #   fXfXfXfXfX",
"fXfXfXfXfXfXfXy.y.fXfXfXfXfXfXfX XQ.W.]._.T ! ,.! ! ,.! ! ~ U ].!.T.%     . O . # Q Q #     fXfXfXfX",
"fXfXfXfXfXfXfXfXfXfXfXfXfXfXfX X X X XT.7 ; < > < < < > , , L [.Q.E.9 % o       O > > O     fXfXfXfX",
"fXfXfXfXfXfXfXfXfXfXfXfXfXfXE.E.~.!.!.9 @ . . . . . . . . @ 7 !.E.E.E.7 @ o       . .       fXfXfXfX",
"fXfXfXfXfXfXfXfXfXfXfXfXfXi 6 4 4 8 (.6 o                 o 6 (.8 4 4 5 q *                 fXfXfXfX",
"fXfXfXfXfXfXfXfXfXfXfXfX#X@Xq & + = r q X                 X = w - + & q y w + X             fXfXfXfX",
"fXfXfXfXfXfXfXfXfXfXfX@X$X&X$X@Xr e fXfXfXfXfX              + * q r @X$X*X#Xw &       fXfXfXfXfXfXfX",
"fXfXfXfXfXfXfXfXfXfXfX@X$X&X&X*X#XfXfXfXfXfXfXfX              X = u $X&X*X$Xy =     fXfXfXfXfXfXfXfX",
"fXfXfXfXfXfXfXfXfXfXfX@X@X#X#X#XfXfXfXfXfXfXfXfXfXfXfX          X = u #X#X@Xy fXfXfXfXfXfXfXfXfXfXfX",
"fXfXfXfXfXfXfXfXfXfXfX@X@X@X@XfXfXfXfXfXfXfXfXfXfXfXfX            & e @X@Xy @XfXfXfXfXfXfXfXfXfXfXfX",
"fXfXfXfXfXfXfXfXfXfXfXfXfXfXfXfXfXfXfXfXfXfXfXfXfXfXfXfXfXfXfXfXfXfXfXfXfXfXfXfXfXfXfXfXfXfXfXfXfXfX",
"fXfXfXfXfXfXfXfXfXfXfXfXfXfXfXfXfXfXfXfXfXfXfXfXfXfXfXfXfXfXfXfXfXfXfXfXfXfXfXfXfXfXfXfXfXfXfXfXfXfX",
"fXfXfXfXfXfXfXfXfXfXfXfXfXfXfXfXfXfXfXfXfXfXfXfXfXfXfXfXfXfXfXfXfXfXfXfXfXfXfXfXfXfXfXfXfXfXfXfXfXfX",
"fXfXfXfXfXfXfXfXfXfXfXfXfXfXfXfXfXfXfXfXfXfXfXfXfXfXfXfXfXfXfXfXfXfXfXfXfXfXfXfXfXfXfXfXfXfXfXfXfXfX",
"fXfXfXfXfXfXfXfXfXfXfXfXfXfXfXfXfXfXfXfXfXfXfXfXfXfXfXfXfXfXfXfXfXfXfXfXfXfXfXfXfXfXfXfXfXfXfXfXfXfX"
};
