/* XPM */
static char *garbage_11737359957[] = {
/* columns rows colors chars-per-pixel */
"20 20 6 1 ",
"  c black",
". c red",
"X c #808080",
"o c #C0C0C0",
"O c white",
"+ c None",
/* pixels */
"++++++++++++++XXX+++",
"+++++++++++++XXXXX++",
"+++++++++++++XX oX++",
"+++++++++++oXXX oX++",
"+++++++++oOOOOOOXX++",
"++++X++XXoOOOOXOXX++",
"++X+oXXXXOOOOOXXXo +",
"++oXXXX oOOOOOOOOO  ",
"++oXX   OOO....OOO  ",
"+++++++oOOO.....Oo  ",
"+++++++OOOOOO...OX  ",
"++++++OOOOOO...Oo   ",
"+++++OOOOOO...OOX  +",
"++++OOOOOO...OOo  ++",
"+++++OOOO...OOOX +++",
"++++++oOOO.OOOo ++++",
"++++++++oOOOOO +++++",
"++++++++++OOO+++++++",
"+++++++++++O++++++++",
"++++++++++++++++++++"
};
