/* XPM */
static char *garbage_21737359957[] = {
/* columns rows colors chars-per-pixel */
"20 20 6 1 ",
"  c black",
". c red",
"X c #808080",
"o c #C0C0C0",
"O c white",
"+ c None",
/* pixels */
"++++++++++++++XXX+++",
"+++++++++++++XXXXX++",
"+++++++++++++XX oX++",
"+++++++++++oXXX oX++",
"+++++++++oOOOOOOXX++",
"++++X++XXoOOO XOXX++",
"++X+oXXXXOOOO XXXo +",
"++oXXXX oOOOOOOOOO  ",
"++oXX   OO....OOOO  ",
"+++++++oO......OOo  ",
"+++++++OOOOOO..OOX  ",
"++++++OOOOOOO..Oo   ",
"+++++OOO.......OX  +",
"++++OOO.......Oo  ++",
"+++++OO...OOOOOX +++",
"++++++oO....OOo ++++",
"++++++++oO..OO +++++",
"++++++++++OOO+++++++",
"+++++++++++O++++++++",
"++++++++++++++++++++"
};
