/* XPM */
static char *garbage_31737359957[] = {
/* columns rows colors chars-per-pixel */
"20 20 6 1 ",
"  c black",
". c red",
"X c #808080",
"o c #C0C0C0",
"O c white",
"+ c None",
/* pixels */
"++++++++++++++XXX+++",
"+++++++++++++XXXXX++",
"+++++++++++++XX oX++",
"+++++++++++oXXX oX++",
"+++++++++oOOOOOOXX++",
"++++X++XXoOOOOX XX++",
"++X+oXXXXOO.OOXXXo +",
"++oXXXX oO....OOOO  ",
"++oXX   OOO....OOO  ",
"+++++++oOOOOO...Oo  ",
"+++++++OOOOO....OX  ",
"++++++OOOO....OOo   ",
"+++++OOOOO...OOOX  +",
"++++OOO..OO..OOo  ++",
"+++++OO......OOX +++",
"++++++oO....OOo ++++",
"++++++++oO.OOO +++++",
"++++++++++OOO+++++++",
"+++++++++++O++++++++",
"++++++++++++++++++++"
};
