/* XPM */
static char *garbage_51737359956[] = {
/* columns rows colors chars-per-pixel */
"20 20 6 1 ",
"  c black",
". c red",
"X c #808080",
"o c #C0C0C0",
"O c white",
"+ c None",
/* pixels */
"++++++++++++++XXX+++",
"+++++++++++++XXXXX++",
"+++++++++++++XX oX++",
"+++++++++++oXXX oX++",
"+++++++++oOOOOOOXX++",
"++++X++XXoOOOOX XX++",
"++X+oXXXXOO.OOXXXo +",
"++oXXXX oO....OOOO  ",
"++oXX   O......OOO  ",
"+++++++o...OO...Oo  ",
"+++++++OO...OO..OX  ",
"++++++OOOO...OOOo   ",
"+++++OO.OOO..OOOX  +",
"++++OO...Oo..OOo  ++",
"+++++OO......OOX +++",
"++++++oOO...OOo ++++",
"++++++++oOOOOO +++++",
"++++++++++OOO+++++++",
"+++++++++++O++++++++",
"++++++++++++++++++++"
};
