/* XPM */
static char *garbage_71737359956[] = {
/* columns rows colors chars-per-pixel */
"20 20 6 1 ",
"  c black",
". c blue",
"X c #808080",
"o c #C0C0C0",
"O c white",
"+ c None",
/* pixels */
"++++++++++++++++++++",
"+++++++    .++++++++",
"++++++ oooX .+++++++",
"+++++ ooooO .+++++++",
"+++++XooooO .+++++++",
"++++ oooooO .+++++++",
"+++++ oooO .++++++++",
"+++ ++ OX .+++++++++",
"++ o ++ ..++++++++++",
"++ oO .+++++++++++++",
"+++  .++++    .+++++",
"+++++++++ oooX .++++",
"++++++++ ooooO .++++",
"++++++++XooooO .++++",
"+++++++ oooooO .++++",
"++++++++ oooO .+++++",
"++++++ ++ OX .++++++",
"+++++ o ++ ..+++++++",
"+++++ oO .++++++++++",
"++++++  .+++++++++++"
};
