/* XPM */
static char *garbage_61737359956[] = {
/* columns rows colors chars-per-pixel */
"20 20 6 1 ",
"  c black",
". c red",
"X c #808080",
"o c #C0C0C0",
"O c white",
"+ c None",
/* pixels */
"++++++++++++++XXX+++",
"+++++++++++++XXXXX++",
"+++++++++++++XX oX++",
"+++++++++++oXXX oX++",
"+++++++++oOOOOOOXX++",
"++++X++XXoOOO XOXX++",
"++X+oXXXXOOOO XXXo +",
"++oXXXX oOOOOOOOOO  ",
"++oXX   OOo.....OO  ",
"+++++++oO.......Oo  ",
"+++++++O....OOOOOX  ",
"++++++O......OOOo   ",
"+++++OO..OO..OOOX  +",
"++++OOO..OO..OOo  ++",
"+++++OO......OOX +++",
"++++++oO....OOo ++++",
"++++++++oOOOOO +++++",
"++++++++++OOO+++++++",
"+++++++++++O++++++++",
"++++++++++++++++++++"
};
