/* XPM */
static char *monster2_1_31737359951[] = {
/* columns rows colors chars-per-pixel */
"28 28 4 1 ",
"  c black",
". c #00C000",
"X c green",
"o c None",
/* pixels */
"oooooooooooooooooooooooooooo",
"oooooooooooooooooooooooooooo",
"oooooooooooooXXXXooooooooooo",
"ooooooooXXXXXXXXXXXXXooooooo",
"oooooooXXXXXXXXXXXXXXXoooooo",
"oooooooXXXXXXXXXXXXXXX.ooooo",
"ooooooXXXXXXXXXXXXXXXX.ooooo",
"ooooXXXXXXXXXXXXXXXXXXX.oooo",
"oooXXXXXXXXXXXXXXXXXXXX..ooo",
"oooXXXXXXXXXXXXXXXXXXXXX.ooo",
"ooXXXXXXXXXXXXXXXXXXXXXX..oo",
"ooXXXXXXXXXXXXXXXXXXXXXX..oo",
"oooXXXXXXXXXXXXXXXXXXXXX..oo",
"ooooXXXXXXXXXXXXXXXX......oo",
"oooooXXX...XXXXXXXX..o...ooo",
"ooooo.......XXXXX....o..oooo",
"ooooo........XXXX....oo.oooo",
"oooo....ooo.......o..oo.oooo",
"oooo...oooo....    ..  . ooo",
"oooo...ooo  ...    .   .  oo",
"ooooo..oo  ...     .   .   o",
"ooooo.ooo  .      ..   .   o",
"ooooo.ooo ..      .        o",
"ooooo.oooo.      .         o",
"ooooo.   .       .        oo",
"ooooooooo.o     o.       ooo",
"ooooooooo.  oooooooooooooooo",
"oooooooooooooooooooooooooooo"
};
