/* XPM */
static char *monster2_0_21737359952[] = {
/* columns rows colors chars-per-pixel */
"28 28 7 1 ",
"  c black",
". c #C00000",
"X c #00C000",
"o c green",
"O c #808080",
"+ c white",
"@ c None",
/* pixels */
"@@@@@@@@@@@@@@@@@@@@@@@@@@@@",
"@@@@@@@@@@@@@@@@@@@@@@@@@@@@",
"@@@@@@@@@@@@@oooo@@@@@@@@@@@",
"@@@@@@@@@ooooooooooooo@@@@@@",
"@@@@@@@@ooooooooooooooo@@@@@",
"@@@@@@@ooooooooooooooooo@@@@",
"@@@@@@@ooooOOoooooooOOoo@@@@",
"@@@@@@ooooO++OoooooO++Ooo@@@",
"@@@@@oooooX+ .oooooX+ .oooX@",
"@@@@@ooooooXXXooooooXXooooX@",
"@@@@ooooooooooooooooooooooXX",
"@@@@ooooooooooooooooooooooXX",
"@@@@XoooooooooooooooooooooX@",
"@@@@XXXXXXoooooooOOOooooXXX@",
"@@@@@XXX@XXoooooO+++OXoXXX@@",
"@@@@@@XX@XXXXoooO   OXXXX@@@",
"@@@@@@X@@XXXXooooXXXXXXXX@@@",
"@@@@@@X@@XX@XXXXXXX@@@XXXX@@",
"@@@@@@X@XX     XXXX    XXX@@",
"@@@@@@X@X@@    XXX     XXX @",
"@@@@@@X@X@@@    XX     XX   ",
"@@@@@@X XX      XX      X   ",
"@@@@@@@@@X@@    X       X   ",
"@@@@@@@@@X@@    X       X   ",
"@@@@@@@@@X      XX      X  @",
"@@@@@@@@@@@@@@@@@X      @@@@",
"@@@@@@@@@@@@@@@@@X@@@@@@@@@@",
"@@@@@@@@@@@@@@@@@@@@@@@@@@@@"
};
