/* XPM */
static char *monster1_1_61737359954[] = {
/* columns rows colors chars-per-pixel */
"28 28 8 1 ",
"  c black",
". c #C00000",
"X c red",
"o c #C0C000",
"O c #C000C0",
"+ c magenta",
"@ c white",
"# c None",
/* pixels */
"##########+#################",
"##########++#########++#####",
"###########O++######+#O+####",
"############O++++++++#######",
"###########++++++++++O######",
"##########++++++++++++O#####",
"#########+++++O..++++++.####",
"########+++++O@@@.++++.@+###",
"########+++++O@@ O.+++O O###",
"#######++++++++OO++Xo+OOOO##",
"#######+++++OOO+++++X@OOOO##",
"#######++++O..O+++++XX@OOO##",
"#######++++O..O++++O.XX@OO##",
"#######O+++OO  OOOOO....OO#O",
"########O++++O          O#OO",
"########OO++++O         OOOO",
"#########OO++++O       OOOO+",
"##########OO++++O  @@ OO##++",
"###########OO+++++++++++++++",
"###########OOOOO++++++++++++",
"###########+OOOOOOOOOOOOOOO#",
"###########+OO  OOOO       #",
"##########++O    +OO       #",
"#########++OO++O ++OOOOO ###",
"##########OOOOOOO++OOOOOO###",
"###########OOOOO#OOOOOO#####",
"############################",
"############################"
};
