/* XPM */
static char *monster1_3_11737359953[] = {
/* columns rows colors chars-per-pixel */
"28 28 8 1 ",
"  c black",
". c #C00000",
"X c red",
"o c #C0C000",
"O c #C000C0",
"+ c magenta",
"@ c white",
"# c None",
/* pixels */
"############################",
"########++#########++#######",
"#######+O#+######++OO#######",
"##########++++++++O#########",
"#########++++++++++O########",
"########++++++++++++O#######",
"#######.++++++..+++++O######",
"######+@.++++.@@@+++++O#####",
"######+ O+++.O @@+++++O#####",
"#####++OO+oX++OO+++++++O####",
"#####++++@X++++++OO++++O####",
"#####+++@XX+++++O..O+++O####",
"#####++@XX.+++++O..O++OO####",
"#####++....++++O OOO+OOO####",
"######++++++++O  OOOOOO#####",
"######O         O++OOOO#####",
"#######O       O+++OOO######",
"########O @@  O+++OOO#######",
"#########OOOOO+++OO++O  ####",
"###########+++++OO+ ++    ##",
"############OOOOO+++++     #",
"###########++OO  ++O++     #",
"###########++O    +OO++    #",
"#######++++++O ++++OOO   ###",
"######+++++++O+++++OO  #####",
"########OOOOOO#OOOOO########",
"############################",
"############################"
};
