/* XPM */
static char *monster1_0_11737359956[] = {
/* columns rows colors chars-per-pixel */
"28 28 8 1 ",
"  c black",
". c #C00000",
"X c red",
"o c #C0C000",
"O c #C000C0",
"+ c magenta",
"@ c white",
"# c None",
/* pixels */
"####################O#######",
"########++#########+O#######",
"#######+O#+######++O########",
"##########++++++++O#########",
"#########++++++++++O########",
"########++++++++++++O#######",
"#######.++++++..+++++O######",
"######+@.++++.@@@+++++O#####",
"######+ O+++.O @@+++++O#####",
"#####++OO+oX++OO+++++++O####",
"#####++++@X++++++OO++++O####",
"#####+++@XX+++++O..O+++O####",
"#####++@XX.+++++O..O++OO####",
"#####++....++++O  OOOOOO####",
"######+          O+OOOO#####",
"######O         O+++OOO#####",
"#######O       O+++OOO######",
"########O @@  O+++OO########",
"#########OOOOO+++OO     ####",
"##########O+O+++O+O       ##",
"############OOOOO+O        #",
"############  ++O+O        #",
"############  ++OO++       #",
"###########+++++OO       ###",
"###########OOOOOO      #####",
"############################",
"############################",
"############################"
};
