/* XPM */
static char *monster1_2_61737359953[] = {
/* columns rows colors chars-per-pixel */
"28 28 8 1 ",
"  c black",
". c #C00000",
"X c red",
"o c #C0C000",
"O c #C000C0",
"+ c magenta",
"@ c white",
"# c None",
/* pixels */
"############################",
"##########++#########++#####",
"##########OO++######+#O+####",
"############++++++++O#######",
"###########++++++++++O######",
"##########+++++++++++OO#####",
"#########+++++O..+++++OO####",
"########+++++O@@@.++++.@O###",
"########+++++O@@ O.++OO O###",
"#######+++++++OOO++XoOOOOO##",
"#######+++++OO++++++X@OOOO##",
"#######++++O..O+++++XX@OOO##",
"#######++++O..O++++O.XX@OO##",
"#######O++++OO +++OO....OO#O",
"########O+++++   OOOOOOOO#OO",
"########OO++++O         OOO+",
"#########O+++++O       OOOO+",
"##########OO++++O  @@ OO##++",
"###########OOO++++++++++++++",
"###########OOOOO++++++++++++",
"##########++OOOOOOOOOOOOOOO#",
"#########++OO    OOOO OOOO #",
"########+++O      OO+++OO  #",
"########++OO++++   OOOOO ###",
"#########OOOOOOOO  OOOO#####",
"##########OOOOOO####OO######",
"############################",
"############################"
};
