/* XPM */
static char *monster1_1_01737359955[] = {
/* columns rows colors chars-per-pixel */
"28 28 7 1 ",
"  c black",
". c #C00000",
"X c red",
"o c #C000C0",
"O c magenta",
"+ c white",
"@ c None",
/* pixels */
"@@@@@@@@@@@@@@@@@@@@@@@@@@@@",
"@@@@@@@OO@@@@@@@@@@OO@@@@@@@",
"@@@@@@@OOO@@@@@@@@Ooo@@@@@@@",
"@@@@@@@@@OOOOOOOOoO@@@@@@@@@",
"@@@@@@@@@OOOOOOOOOo@@@@@@@@@",
"@@@@@@@@OOOOOOOOOOOo@@@@@@@@",
"@@@@@@@O...OOOOOO...o@@@@@@@",
"@@@@@@OO+++.OOOO.+++oo@@@@@@",
"@@@@@@OOO+ o.OO.o +oOo@@@@@@",
"@@@@@OOOOooOOXXOOooOOOo@@@@@",
"@@@@@OOOOOOOOXXOOOOOOOo@@@@@",
"@@@@@OOOOOOoX+XXoOOOOOo@@@@@",
"@@@@@oOOOOoOXX..OoOOOoo@@@@@",
"@@@@@oooooOOO..OOOooooo@@@@@",
"@@@@@@oo            oo@@@@@@",
"@@@@@@Oo            oo@@@@@@",
"@@@@@@@Oo          oo@@@@@@@",
"@@@@@@@@oo  ++++  oo@@@@@@@@",
"@@@@@@@@@oooooooooo    @@@@@",
"@@@@@@@@@@oOOOOOOo       @@@",
"@@@@@@@@@ooo    Ooo       @@",
"@@@@@@@@oOo      ooo      @@",
"@@@@@@@OOOo      oOOo     @@",
"@@@@@@OOOo@@@     OOOo  @@@@",
"@@@@@@OOo@@@@@@    OOO@@@@@@",
"@@@@@@@@@@@@@@@@@@@@@@@@@@@@",
"@@@@@@@@@@@@@@@@@@@@@@@@@@@@",
"@@@@@@@@@@@@@@@@@@@@@@@@@@@@"
};
