/* XPM */
static char *monster1_2_31737359954[] = {
/* columns rows colors chars-per-pixel */
"28 28 4 1 ",
"  c black",
". c #C000C0",
"X c magenta",
"o c None",
/* pixels */
"oooooooooooooooooooooooooooo",
"ooooooooX.ooooooooooX.oooooo",
"ooooooooXX.ooooooooXX.oooooo",
"ooooooooooXXXXXXXXX.oooooooo",
"ooooooooooXXXXXXXX..oooooooo",
"oooooooooXXXXXXXXXX..ooooooo",
"ooooooooXXXXXXXXXXXX..oooooo",
"oooooooXXXXXXXXXXXXXX..ooooo",
"oooooooXXXXXXXXXXXXXXX.ooooo",
"ooooooXXXXXXXXXXXXXXXX..oooo",
"ooooooXXXXXXXXXXXXXXXX..oooo",
"ooooooXXXXXXXXXXXXXXXX..oooo",
"ooooooXXXXXXXXXXXXXXXX..oooo",
"ooooooXXXXXXXXXXXXXXXX..oooo",
"ooooooXXXXXXXXXXXXXXXX..oooo",
"oooooooXXXXXXXXXXXXXX..ooooo",
"oooooooXXXXXXXXXXXXX....oooo",
"ooooooXX.XXXXXXXXXX...X.oooo",
"oooooXXX.XXXXXXXXX...X..oooo",
"oooooXXX..XXXXXXX.....    oo",
"oooooX.oo...XX.........    o",
"oooooooooo........X....    o",
"oooooooooooo     XX...     o",
"oooooooooooooo   X...    ooo",
"oooooooooooooooo ...   ooooo",
"oooooooooooooooooooooooooooo",
"oooooooooooooooooooooooooooo",
"oooooooooooooooooooooooooooo"
};
