/* XPM */
static char *monster1_2_51737359953[] = {
/* columns rows colors chars-per-pixel */
"28 28 8 1 ",
"  c black",
". c #C00000",
"X c red",
"o c #C0C000",
"O c #C000C0",
"+ c magenta",
"@ c white",
"# c None",
/* pixels */
"############################",
"######++#########++#########",
"#####+O#+######++OO#########",
"########++++++++O###########",
"#######++++++++++O##########",
"######++++++++++++O#########",
"#####.++++++..+++++O########",
"####+@.++++.@@@+++++O#######",
"####+ O+++.O @@+++++O#######",
"###++OO+oX++OO+++++++O######",
"###++++@X++++++OO++++O######",
"###+++@XX+++++O..O+++O######",
"###++@XX.O++++O..O++OO######",
"#O#++....+O+++ OOO+OOO######",
"#OO#+++++++O   +OOOOO#######",
"#OOO+         O+OOOOO#######",
"#+OOOO       O++OOOO########",
"#++##OO @@  O+++OOO#########",
"#++++++++++++++OOO      ####",
"#+++++++++++++OOOO        ##",
"##OOOOOOOOOOOOOOOOO        #",
"###OOOO#++OO    OOOO       #",
"####OO+++OO#     +OOO      #",
"#####OOOOO###+++++OOO    ###",
"######OOOO##+++++OO    #####",
"#######OO####OOOOO##########",
"############################",
"############################"
};
