/* XPM */
static char *monster2_2_21737359950[] = {
/* columns rows colors chars-per-pixel */
"28 28 7 1 ",
"  c black",
". c #C00000",
"X c #00C000",
"o c green",
"O c #808080",
"+ c white",
"@ c None",
/* pixels */
"@@@@@@@@@@@@@@@@@@@@@@@@@@@@",
"@@@@@@@@@@@@@@@@@@@@@@@@@@@@",
"@@@@@@@@@@@@@oooo@@@@@@@@@@@",
"@@@@@@@@@ooooooooooooo@@@@@@",
"@@@@@@@@ooooooooooooooo@@@@@",
"@@@@@@@ooooooooooooooooo@@@@",
"@@@@@@@oooooOOoooooooOOo@@@@",
"@@@@@@oooooO++OoooooO++Oo@@@",
"@@@@@ooooooX+ .oooooX+ .ooo@",
"@@@@@oooooooXXXooooooXXoooo@",
"@@@@XooooooooooooooooooooooX",
"@@@@XXoooooooooooooooooooooX",
"@@@@XXooooooooooooooooooooX@",
"@@@@XXXXXXoooooooOOOoooooX @",
"@@@@@XXX@XXoooooO+++OXooX @@",
"@@@@@@XX@XXXXoooO   OXXXX@@@",
"@@@@@@X@@XXXXooooXXXXXXXX@@@",
"@@@@@@X@@XX@XXXXXXX@@@XXXX@@",
"@@@@@@X@XX     XXXX    XXX@@",
"@@@@@@X@X@@    XXX     XXX @",
"@@@@@@ @X@@@    XX     XX   ",
"@@@@@@  XX      XX      X   ",
"@@@@@@@@@X@@    X       X   ",
"@@@@@@@@@X@@    X       X   ",
"@@@@@@@@@       XX         @",
"@@@@@@@@@@@@@@@@@X      @@@@",
"@@@@@@@@@@@@@@@@@X@@@@@@@@@@",
"@@@@@@@@@@@@@@@@@@@@@@@@@@@@"
};
