/* XPM */
static char *monster1_2_41737359953[] = {
/* columns rows colors chars-per-pixel */
"28 28 8 1 ",
"  c black",
". c #C00000",
"X c red",
"o c #C0C000",
"O c #C000C0",
"+ c magenta",
"@ c white",
"# c None",
/* pixels */
"############################",
"########++##########++######",
"########+++########+OO######",
"##########++++++++O+########",
"##########+++++++++O########",
"#########+++++++++++O#######",
"########+...++++++...O######",
"#######++@@@.++++.@@@OO#####",
"#######+++@ O.++oO @O+O#####",
"######++++OO++XX++OO+++O####",
"######++++++++XX+++++++O####",
"######++++++OX@XXO+++++O####",
"######O++++O+XX..+O+++OO####",
"######OOOOO+++..+++OOOOO####",
"#######OO ++++++++++ OO#####",
"#######+O            OO#####",
"######+OOO          OOO#####",
"#####++OOOO  @@@@  OOOOO####",
"#####++OOOOOOOOOOOOO  ++O###",
"#######OOOO+++++++++   +O ##",
"#######OOOO++++++++++  +O  #",
"########OOOO+     ++++     #",
"#########OOO       ++++    #",
"#########OOO##      ++++ ###",
"##########OO####     +++####",
"############################",
"############################",
"############################"
};
