/* XPM */
static char *monster1_3_81737359952[] = {
/* columns rows colors chars-per-pixel */
"28 28 8 1 ",
"  c black",
". c #C00000",
"X c red",
"o c #C0C000",
"O c #C000C0",
"+ c magenta",
"@ c white",
"# c None",
/* pixels */
"############################",
"########+O##########++######",
"########+++########+OO######",
"##########++++++++O+########",
"##########+++++++++O########",
"#########+++++++++++O#######",
"########+...++++++...O######",
"#######++@@@.++++.@@@OO#####",
"#######+++@ O.++oO @O+O#####",
"######++++OO++XX++OO+++O####",
"######++++++++XX+++++++O####",
"######++++++OX@XXO+++++O####",
"######O++++O+XX..+O+++OO####",
"######OOOOO+++..+++OOOOO####",
"#######OO  ++++++++  OO#####",
"#######+O            OO#####",
"########+O          OO######",
"#########+O  @@@@  OOO######",
"#####OO###+OOOOOOOO+O   ####",
"#####OOO##++++++++++O     ##",
"#####OOOO+++OOOOOO++O      #",
"#####OOOO+++O     ++O      #",
"######OOOO++O     ++OO     #",
"#######OOO++O#    ++OOO  ###",
"#######OOO++O###  +++OOO####",
"#########+++O#####++++OO####",
"############################",
"############################"
};
