/* XPM */
static char *monster2_3_31737359950[] = {
/* columns rows colors chars-per-pixel */
"28 28 4 1 ",
"  c black",
". c #00C000",
"X c green",
"o c None",
/* pixels */
"oooooooooooooooooooooooooooo",
"oooooooooooooooooooooooooooo",
"ooooooooooooooXXXXoooooooooo",
"oooooooooXXXXXXXXXXXXXoooooo",
"ooooooooXXXXXXXXXXXXXXXooooo",
"ooooooooXXXXXXXXXXXXXXXXoooo",
"oooooooXXXXXXXXXXXXXXXXXoooo",
"oooooXXXXXXXXXXXXXXXXXXX.ooo",
"ooooXXXXXXXXXXXXXXXXXXXX..oo",
"ooooXXXXXXXXXXXXXXXXXXXXX.oo",
"oooXXXXXXXXXXXXXXXXXXXXXX..o",
"oooXXXXXXXXXXXXXXXXXXXXXX..o",
"ooooXXXXXXXXXXXXXXXXXXXXX..o",
"oooooXXXXXXXXXXXXXXXX......o",
"ooooooXXX...XXXXXXXX......oo",
"oooooo.......XXXXX.......ooo",
"oooooo........XXXX......oooo",
"ooooo....ooo.......o...ooooo",
"ooooo...oooo....oo  ...   oo",
"ooooo..oooooo...   .. .    o",
"ooooo.ooooooo..    .  .     ",
"oooo..ooooo  ..    . ..     ",
"oooo.oooooo   .      .      ",
"oooo.oooooo   .      .      ",
"oooo.oo      ..      .     o",
"ooooooooo    .            oo",
"ooooooooooooo. ooooooooooooo",
"oooooooooooooooooooooooooooo"
};
