/* XPM */
static char *monster1_2_21737359954[] = {
/* columns rows colors chars-per-pixel */
"28 28 8 1 ",
"  c black",
". c #C00000",
"X c red",
"o c #C0C000",
"O c #C000C0",
"+ c magenta",
"@ c white",
"# c None",
/* pixels */
"############################",
"#########++#########++######",
"#########OO++######+#O+#####",
"###########O++++++++########",
"##########+++++++++++#######",
"#########+++++++++++++######",
"########++++++..++++++.#####",
"#######++++++@@@.++++.@O####",
"#######++++++@@ O.+++O O####",
"######O+++++++OO++Xo+OOOO###",
"######O++++OO++++++X@+++O###",
"######O+++O..O+++++XX@++O###",
"######OO++O..O+++++.XX@+O###",
"######OOO+OOO O++++....OO###",
"#######OO+OOO   +++++++O####",
"#######OOOO++O         O####",
"########OOO+++O       O#####",
"#######O++OO+++O  @@ O######",
"#####OO++++OO+++OOOOO   ####",
"#####O+###OOOOOOOOO    ++ ##",
"####O+###OOOOOOOO++   +++  #",
"#######OOOOO    OO++ ++OO  #",
"#######OOO+#     OO+++OO   #",
"#######OOO+++++   OOOOO  ###",
"#########OO+++++  OOOO #####",
"##########OOOOO####OO#######",
"############################",
"############################"
};
