/* XPM */
static char *monster2_1_41737359951[] = {
/* columns rows colors chars-per-pixel */
"28 28 7 1 ",
"  c black",
". c #C00000",
"X c #00C000",
"o c green",
"O c #808080",
"+ c white",
"@ c None",
/* pixels */
"@@@@@@@@@@@@@@@@@@@@@@@@@@@@",
"@@@@@@@@@@@@@@@@@@@@@@@@@@@@",
"@@@@@@@@@@@@@oooo@@@@@@@@@@@",
"@@@@@@@@@ooooooooooooo@@@@@@",
"@@@@@@@@ooooooooooooooo@@@@@",
"@@@@@@@oooooooooooooooo@@@@@",
"@@@@@@oooooooooooooooooo@@@@",
"@@@@@oooOOooooooooOOoooooo@@",
"@@@@@ooO++OooooooO++XoooooX@",
"@@@@@ooo+ .oooooo. +ooooooX@",
"@@@@XooooXXoooooooXXooooooXX",
"@@@@XXooooooooooooooooooooXX",
"@@@@XXoooooooooooooooooooXX@",
"@@@@XXXXXXoooooooooooooXXX@@",
"@@@@@XXXXXXOOOOOOOoXXXoXX@@@",
"@@@@@@XXXXXO+++++OXXXXXXX@@@",
"@@@@@@X@@XXX+++++XXXXXXXX@@@",
"@@@@@@X@@XX@XXXXXXX@@@XXXX@@",
"@@@@@@X@@XX    XXXX    XXX@@",
"@@@@@@X@@@X    XXX     XXX @",
"@@@@@@X@@ X     XXX    XX   ",
"@@@@@@@@  XX      X     X   ",
"@@@@@@@@@  X      XX    X   ",
"@@@@@@@@@@  X      X    X   ",
"@@@@@@@@@@@@X       X      @",
"@@@@@@@@@@@@@@@     X     @@",
"@@@@@@@@@@@@@@@@@@@@X@@@@@@@",
"@@@@@@@@@@@@@@@@@@@@@@@@@@@@"
};
