/* XPM */
static char *monster1_0_21737359956[] = {
/* columns rows colors chars-per-pixel */
"28 28 8 1 ",
"  c black",
". c #C00000",
"X c red",
"o c #C0C000",
"O c #C000C0",
"+ c magenta",
"@ c white",
"# c None",
/* pixels */
"############################",
"#########++#########++######",
"#########+O++######+#O+#####",
"###########O++++++++########",
"##########+++++++++++#######",
"#########+++++++++++++######",
"########++++++..++++++.#####",
"#######++++++@@@.++++.@+####",
"#######++++++@@ O.+++O +####",
"######O+++++++OO++Xo+OO++###",
"######O++++OO++++++X@++++###",
"######O+++O..O+++++XX@++O###",
"######OO++O..O+++++.XX@+O###",
"######OOOOOO  O++++....OO###",
"#######OOOO+O          O####",
"#######OOO+++O         O####",
"########OOO+++O       O#####",
"##########OO+++O  @@ O######",
"###########OO+++OOOOO   ####",
"###########O+O+++O+O      ##",
"###########O+OOOOO         #",
"###########O+O++           #",
"##########++OO++           #",
"############OO+++++      ###",
"#############OOOOOO    #####",
"############################",
"############################",
"############################"
};
