/* XPM */
static char *monster1_1_51737359954[] = {
/* columns rows colors chars-per-pixel */
"28 28 8 1 ",
"  c black",
". c #C00000",
"X c red",
"o c #C0C000",
"O c #C000C0",
"+ c magenta",
"@ c white",
"# c None",
/* pixels */
"############################",
"######++#########++#########",
"#####+O#+######++OO#########",
"########++++++++O###########",
"#######++++++++++O##########",
"######++++++++++++O#########",
"#####.++++++..+++++O########",
"####+@.++++.@@@+++++O#######",
"####+ O+++.O @@+++++O#######",
"###++OO+oX++OO++++++OO######",
"###++++@X++++++OO++++O######",
"###+++@XX+++++O..O+++O######",
"###++@XX.O++++O..O++OO######",
"#O#++....+O+++  OOOOOO######",
"#OO#+          O+OOOO#######",
"#OOO+         O+++OOO#######",
"#+OOO+       O+++OOO########",
"#++##OO @@  O+++OOO#########",
"#++++++++++++++OOO      ####",
"#++++++++++++OOOOO        ##",
"##OOOOOOOOOOOOOO+O         #",
"#########++OO  ++O         #",
"#########++O    +OO        #",
"#####++++++O#++++OOO     ###",
"####+++++++O+++++OO    #####",
"######OOOOOO#OOOOO##########",
"############################",
"############################"
};
