/* XPM */
static char *monster2_3_41737359950[] = {
/* columns rows colors chars-per-pixel */
"28 28 7 1 ",
"  c black",
". c #C00000",
"X c #00C000",
"o c green",
"O c #808080",
"+ c white",
"@ c None",
/* pixels */
"@@@@@@@@@@@@@@@@@@@@@@@@@@@@",
"@@@@@@@@@@@@@@@@@@@@@@@@@@@@",
"@@@@@@@@@@@@oooo@@@@@@@@@@@@",
"@@@@@@@@ooooooooooooo@@@@@@@",
"@@@@@@@ooooooooooooooo@@@@@@",
"@@@@@@ooooooooooooooooo@@@@@",
"@@@@@oooOOooooooooOOooo@@@@@",
"@@@@@ooO++OooooooO++Xoooo@@@",
"@@@@oooo+ .oooooo. +oooooX@@",
"@@@@oooooXXoooooooXXoooooX@@",
"@@@XoooooooooooooooooooooXX@",
"@@@XoooooooooooooooooooooXX@",
"@@@XXooooooooooooooooooXXX@@",
"@@@XXXXXXoooooooooooooXXX@@@",
"@@@@XXXXXXOOOOOOOoXXXoXX@@@@",
"@@@@@XXXXXO+++++OXXXXXXX@@@@",
"@@@@@@XXXXX+++++XXXXXXXX@@@@",
"@@@@@@@XXX@XXXXXXX@@@XXXX@@@",
"@@@@@@@XXX@@@@XXXX    XXX @@",
"@@@@@@@X@XX@  XXX      XX  @",
"@@@@@@@X@@X    XX       X   ",
"@@@@@@@XX@@@   XX       XX  ",
"@@@@@@@@X@@@   X         X  ",
"@@@@@@@@X      X         X  ",
"@@@@@@@@@@@@@  XX          @",
"@@@@@@@@@@@@@@@@X         @@",
"@@@@@@@@@@@@@@@@X@@@@@@@@@@@",
"@@@@@@@@@@@@@@@@@@@@@@@@@@@@"
};
