/* XPM */
static char *monster2_0_11737359952[] = {
/* columns rows colors chars-per-pixel */
"28 28 7 1 ",
"  c black",
". c #C00000",
"X c #00C000",
"o c green",
"O c #808080",
"+ c white",
"@ c None",
/* pixels */
"@@@@@@@@@@@@@@@@@@@@@@@@@@@@",
"@@@@@@@@@@@@@@@@@@@@@@@@@@@@",
"@@@@@@@@@@@@@oooo@@@@@@@@@@@",
"@@@@@@@@ooooooooooooo@@@@@@@",
"@@@@@@@ooooooooooooooo@@@@@@",
"@@@@@@@oooooooooooooooo@@@@@",
"@@@@@@ooooooooooooooooo@@@@@",
"@@@@ooooOOoooooooOOooooX@@@@",
"@@@ooooO++OoooooO++OoooXX@@@",
"@@@oooo. +Oooooo. +OooooX@@@",
"@@ooooooXXXooooooXXoooooXX@@",
"@@ooooooooooooooooooooooXX@@",
"@@@oooooooooooooooooooooXX@@",
"@@@@ooooooooooooooooXXXXXX@@",
"@@@@@oooXXXooooooooXX@XXX@@@",
"@@@@@XXXXXXXoooooXXXX@XX@@@@",
"@@@@@XXXXXXXXooooXXXX@@X@@@@",
"@@@@XXXXX@@XXXXXXX@XX@@X@@@@",
"@@@@XXXX   XXXXXXX  XX X  @@",
"@@@@XXX     XXX      X X  @@",
"@@@@@XX     XX       X X   @",
"@@@@@XX@@@@@XX      XX X    ",
"@@@@@X@@@@@@ X      X       ",
"@@@@@X@@@@@@@X      X       ",
"@@@@@X      XX      X       ",
"@@@@@@@@@@@@X       X  @@@@@",
"@@@@@@@@@@@@X@@@@@@@@@@@@@@@",
"@@@@@@@@@@@@@@@@@@@@@@@@@@@@"
};
