/* XPM */
static char *monster1_3_21737359953[] = {
/* columns rows colors chars-per-pixel */
"28 28 8 1 ",
"  c black",
". c #C00000",
"X c red",
"o c #C0C000",
"O c #C000C0",
"+ c magenta",
"@ c white",
"# c None",
/* pixels */
"############################",
"#########++#########++######",
"#########+O++######+#O+#####",
"###########O++++++++########",
"##########+++++++++++#######",
"#########+++++++++++++######",
"########++++++..++++++.#####",
"#######++++++@@@.++++.@O####",
"#######++++++@@ O.+++O O####",
"######O+++++++OO++Xo+OOOO###",
"######O++++OO++++++X@+++O###",
"######O+++O..O+++++XX@++O###",
"######OO++O..O+++++.XX@+O###",
"######OOO+OOO O++++....OO###",
"#######OOOOOO  O+++++++O####",
"#######OOOO++O         O####",
"########OOO+++O       O#####",
"#########OOO+++O  @@ O######",
"########O++OO+++OOOOO   ####",
"########++#+OO+++++       ##",
"########+++++OOOOO         #",
"########++O++  OO++        #",
"#######++OO+    O++        #",
"########OOO++++ O++++++  ###",
"#########OO+++++O+++++++####",
"##########OOOOO#OOOOOO######",
"############################",
"############################"
};
