/* XPM */
static char *monster2_0_31737359951[] = {
/* columns rows colors chars-per-pixel */
"28 28 4 1 ",
"  c black",
". c #00C000",
"X c green",
"o c None",
/* pixels */
"oooooooooooooooooooooooooooo",
"oooooooooooooooooooooooooooo",
"oooooooooooooXXXXooooooooooo",
"ooooooooXXXXXXXXXXXXXooooooo",
"oooooooXXXXXXXXXXXXXXXoooooo",
"oooooooXXXXXXXXXXXXXXXXooooo",
"ooooooXXXXXXXXXXXXXXXXXooooo",
"ooooXXXXXXXXXXXXXXXXXXXXoooo",
"oooXXXXXXXXXXXXXXXXXXXXXXooo",
"oooXXXXXXXXXXXXXXXXXXXXX.ooo",
"ooXXXXXXXXXXXXXXXXXXXXXX..oo",
"ooXXXXXXXXXXXXXXXXXXXXXX..oo",
"oooXXXXXXXXXXXXXXXXXXXXX..oo",
"ooooXXXXXXXXXXXXXXXX......oo",
"oooooXXXXXXXXXXXXXX..o...ooo",
"ooooo....XXXXXXXX....o..oooo",
"ooooo........XXXX....oo.oooo",
"oooo.....oo.......o..oo.oooo",
"oooo...oooo.......  .. .oooo",
"oooo...ooo  ...      . .  oo",
"ooooo..oo   ..       . .   o",
"ooooo.oooo  ..      ..     o",
"ooooo.oooo   .      .      o",
"ooooo.oo     .      .      o",
"ooooo.      ..      .    ooo",
"oooooooooooo.o  oooooooooooo",
"oooooooooooo. oooooooooooooo",
"oooooooooooooooooooooooooooo"
};
