/* XPM */
static char *monster2_3_01737359950[] = {
/* columns rows colors chars-per-pixel */
"28 28 7 1 ",
"  c black",
". c #00C000",
"X c green",
"o c #808080",
"O c #C0C0C0",
"+ c white",
"@ c None",
/* pixels */
"@@@@@@@@@@@@@@@@@@@@@@@@@@@@",
"@@@@@@@@@@XXXX@@@@@@@@@@@@@@",
"@@@@@@XXXXXXXXXXXXX@@@@@@@@@",
"@@@@@XXXXXXXXXXXXXXX@@@@@@@@",
"@@@@XXXXXXXXXXXXXXXX@@@@@@@@",
"@@@@XXXXXXXXXXXXXXXXX@@@@@@@",
"@@@XXXXXXXXXXXXXXXXXXXX@@@@@",
"@@XXXXooooXXXXXXooooXXXX@@@@",
"@@XXXXX+ ooXXXXoo+ XXXXX@@@@",
"@XXXXXX+ XXXXXXXX+ XXXXXX@@@",
"@.XXXXX...XXXXXXX..XXXXX.@@@",
"@...XXXXXXXXXXXXXXXXXXX..@@@",
"@@....XXXXXXXXXXXXXXXX..@@@@",
"@@.....XXXXXXXXoooXXXX.@@@@@",
"@@@..@....XXXXo+++o.X..@@@@@",
"@@@.@@........o   o....@@@@@",
"@@@.@@......X..OOO.....@@@@@",
"@@@.@..@@@@.....@@@@...@@@@@",
"@@@.@.@@@@  ...     ...@@@@@",
"@@@.@.       ..     ..   @@@",
"@@@. ..      ..      .    @@",
"@@@@@@.@@@   .       .    @@",
"@@@@@@.@@@   ..      .    @@",
"@@@@@@.@@     .     .     @@",
"@@@@@@.@      .     .     @@",
"@@@@@.        .     @@@@@@@@",
"@@@@@@@@@@@@@@.@@@@@@@@@@@@@",
"@@@@@@@@@@@@@.@@@@@@@@@@@@@@"
};
