/* XPM */
static char *monster1_2_71737359953[] = {
/* columns rows colors chars-per-pixel */
"28 28 4 1 ",
"  c black",
". c #C000C0",
"X c magenta",
"o c None",
/* pixels */
"oooooooooooooooooooooooooooo",
"ooooooX.X.ooooooooooXXXXoooo",
"oooooXX.XX.ooooooooXX.XX.ooo",
"oooooXX..oXXXXXXXXX.oXXX.ooo",
"oooooXX..oXXXXXXXXX.oXX..ooo",
"oooooo...XXXXXXXXXX..XX.oooo",
"oooooo..XXXXXXXXXXXX..X.oooo",
"oooooo.XXXXXXXXXXXXXX...oooo",
"oooooo.XXXXXXXXXXXXXXX..oooo",
"ooooooXXXXXXXXXXXXXXXX..oooo",
"ooooooXXXXXXXXXXXXXXXX..oooo",
"ooooooXXXXXXXXXXXXXXXX..oooo",
"ooooooXXXXXXXXXXXXXXXX..oooo",
"ooooooXXXXXXXXXXXXXXXX..oooo",
"ooooooXXXXXXXXXXXXXXXX..oooo",
"ooooooo.XXXXXXXXXXXXX..ooooo",
"ooooooo..XXXXXXXXXXX...ooooo",
"oooooooX.XXXXXXXXXX...oooooo",
"oooooooX..XXXXXXXX....  oooo",
"ooooooooX..XXXXXX....X    oo",
"ooooooooXX..........XX.    o",
"oooooooooXX........XX..    o",
"ooooooooo...     ..X..     o",
"oooooooooooooo   ....    ooo",
"oooooooooooooooo ...   ooooo",
"oooooooooooooooooooooooooooo",
"oooooooooooooooooooooooooooo",
"oooooooooooooooooooooooooooo"
};
