/* XPM */
static char *monster2_3_11737359950[] = {
/* columns rows colors chars-per-pixel */
"28 28 7 1 ",
"  c black",
". c #C00000",
"X c #00C000",
"o c green",
"O c #808080",
"+ c white",
"@ c None",
/* pixels */
"@@@@@@@@@@@@@@@@@@@@@@@@@@@@",
"@@@@@@@@@@@@@@@@@@@@@@@@@@@@",
"@@@@@@@@@@@@@@oooo@@@@@@@@@@",
"@@@@@@@@@@oooooooooooo@@@@@@",
"@@@@@@@@@oooooooooooooo@@@@@",
"@@@@@@@@oooooooooooooooo@@@@",
"@@@@@@@ooooooooooooooooo@@@@",
"@@@@@oooooooooooooooooooo@@@",
"@@@@oooooOOoooooooOOoooooX@@",
"@@@@ooooO++OoooooO++OooooX@@",
"@@@ooooo. +Oooooo. +OooooXX@",
"@@@ooooooXXXooooooXXoooooXX@",
"@@@@oooooooooooooooooooooXX@",
"@@@@@ooooooooooooooooXXXXXX@",
"@@@@@@oooXXXooooooooXXXXXX@@",
"@@@@@@XXXXXXXoooooXXXXXXX@@@",
"@@@@@@XXXXXXXXooooXXXXXX@@@@",
"@@@@@XXXX@@@XXXXXXX@XXX@@@@@",
"@@@@@XXX@@@@XXXX    XXX  @@@",
"@@@@@XX@@@@@@XXX   XX X   @@",
"@@@@@X@@@@@  XX    X  X    @",
"@@@@XX@@@@@  XX      XX    @",
"@@@@X@@@@@    X      X     @",
"@@@@X@        X      X     @",
"@@@@@@@@@@@@ XX           @@",
"@@@@@@@@@@@@@X           @@@",
"@@@@@@@@@@@@@X@@@@@@@@@@@@@@",
"@@@@@@@@@@@@@@@@@@@@@@@@@@@@"
};
