/* XPM */
static char *monster2_2_41737359950[] = {
/* columns rows colors chars-per-pixel */
"28 28 7 1 ",
"  c black",
". c #C00000",
"X c #00C000",
"o c green",
"O c #808080",
"+ c white",
"@ c None",
/* pixels */
"@@@@@@@@@@@@@@@@@@@@@@@@@@@@",
"@@@@@@@@@@@@@@@@@@@@@@@@@@@@",
"@@@@@@@@@@@@@oooo@@@@@@@@@@@",
"@@@@@@@@@ooooooooooooo@@@@@@",
"@@@@@@@@ooooooooooooooo@@@@@",
"@@@@@@@oooooooooooooooo@@@@@",
"@@@@@@@oOOOoooooooOOOooo@@@@",
"@@@@@@oO++OOoooooO++Xooooo@@",
"@@@@@ooo+ .oooooo. +XoooooX@",
"@@@@@ooooXXoooooooXXXoooooX@",
"@@@@XoooooooooooooooooooooXX",
"@@@@XXooooooooooooooooooooXX",
"@@@@XXoooooooooooooooooooXX@",
"@@@@XXXXXXooooooooooooooXX @",
"@@@@@XXXXXXOOOOOOOoXXXoXX @@",
"@@@@@@XXXXXO+++++OXXXXXXX@@@",
"@@@@@@X@@XXX     XXXXXXXX@@@",
"@@@@@@X@@XX XXXXXXX@@@XXXX@@",
"@@@@@@X@XX     XXXX    XXX @",
"@@@@@@X@X@@    XXX     XXX  ",
"@@@@@@ XX       XX     XX   ",
"@@@@@@@@XX      XX      X   ",
"@@@@@@@@@X@     X       X   ",
"@@@@@@@@@X@     X       X   ",
"@@@@@@@@@  @@@@@XX        @@",
"@@@@@@@@@@@@@@@@@X    @@@@@@",
"@@@@@@@@@@@@@@@@@X@@@@@@@@@@",
"@@@@@@@@@@@@@@@@@@@@@@@@@@@@"
};
