/* XPM */
static char *monster2_2_11737359951[] = {
/* columns rows colors chars-per-pixel */
"28 28 7 1 ",
"  c black",
". c #C00000",
"X c #00C000",
"o c green",
"O c #808080",
"+ c white",
"@ c None",
/* pixels */
"@@@@@@@@@@@@@@@@@@@@@@@@@@@@",
"@@@@@@@@@@@@@@@@@@@@@@@@@@@@",
"@@@@@@@@@@@@@oooo@@@@@@@@@@@",
"@@@@@@@@@oooooooooooo@@@@@@@",
"@@@@@@@@oooooooooooooo@@@@@@",
"@@@@@@@oooooooooooooooo@@@@@",
"@@@@@@ooooooooooooooooo@@@@@",
"@@@@oooooooooooooooooooX@@@@",
"@@@oooooOOoooooooOOooooXX@@@",
"@@@ooooO++OoooooO++OooooX@@@",
"@@ooooo. +Oooooo. +OooooXX@@",
"@@ooooooXXXooooooXXoooooXX@@",
"@@@oooooooooooooooooooooXX@@",
"@@@@ooooooooooooooooXXXXXX@@",
"@@@@@oooXXXooooooooXX@XXX@@@",
"@@@@@XXXXXXXoooooXXXX@XX@@@@",
"@@@@@XXXXXXXXooooXXXX@@X@@@@",
"@@@@XXXX@@@XXXXXXX@XX@@X@@@@",
"@@@@XXX@@@@@XXX     XX X @@@",
"@@@@XXX@@@@ XXX      X X  @@",
"@@@@@XX@@@  XX       X X   @",
"@@@@@X@@@@  XX      XX X   @",
"@@@@@X@@     X      X      @",
"@@@@@X       X      X      @",
"@@@@@@@@@@@@XX@     X     @@",
"@@@@@@@@@@@@X@@     X    @@@",
"@@@@@@@@@@@@X  @@@@@@@@@@@@@",
"@@@@@@@@@@@@@@@@@@@@@@@@@@@@"
};
