/* XPM */
static char *monster2_0_41737359951[] = {
/* columns rows colors chars-per-pixel */
"28 28 7 1 ",
"  c black",
". c #C00000",
"X c #00C000",
"o c green",
"O c #808080",
"+ c white",
"@ c None",
/* pixels */
"@@@@@@@@@@@@@@@@@@@@@@@@@@@@",
"@@@@@@@@@@@@@@@@@@@@@@@@@@@@",
"@@@@@@@@@@@@@oooo@@@@@@@@@@@",
"@@@@@@@@@ooooooooooooo@@@@@@",
"@@@@@@@@ooooooooooooooo@@@@@",
"@@@@@@@oooooooooooooooo@@@@@",
"@@@@@@@ooooooooooooooooo@@@@",
"@@@@@@ooOOOoooooooOOOooooo@@",
"@@@@@ooO++OOoooooO++XXooooX@",
"@@@@@ooo+ .oooooo. +XoooooX@",
"@@@@oooooXXoooooooXXXoooooXX",
"@@@@ooooooooooooooooooooooXX",
"@@@@XoooooooooooooooooooooX@",
"@@@@XXXXXXooooooooooooooXXX@",
"@@@@@XXXXXXOOOOOOOoXXXoXXX@@",
"@@@@@@XXXXXO+++++OXXXXXXX@@@",
"@@@@@@X@@XXX     XXXXXXXX@@@",
"@@@@@@X@@XXXXXXXXXX@@@XXXX@@",
"@@@@@@X@XX     XXXX    XXX @",
"@@@@@@X@X@@    XXX     XXX  ",
"@@@@@@X X       XX     XX   ",
"@@@@@@@@XX      XX      X   ",
"@@@@@@@@@X@     X       X   ",
"@@@@@@@@@X@     X       X   ",
"@@@@@@@@@X @@@@@XX      X @@",
"@@@@@@@@@@@@@@@@@X    @@@@@@",
"@@@@@@@@@@@@@@@@@X@@@@@@@@@@",
"@@@@@@@@@@@@@@@@@@@@@@@@@@@@"
};
