/* XPM */
static char *monster1_2_01737359954[] = {
/* columns rows colors chars-per-pixel */
"28 28 7 1 ",
"  c black",
". c #C00000",
"X c red",
"o c #C000C0",
"O c magenta",
"+ c white",
"@ c None",
/* pixels */
"@@@@@@@@@@@@@@@@@@@@@@@@@@@@",
"@@@@@@@OO@@@@@@@@@@OO@@@@@@@",
"@@@@@@@OOO@@@@@@@@Ooo@@@@@@@",
"@@@@@@@@@OOOOOOOOOo@@@@@@@@@",
"@@@@@@@@@OOOOOOOOOo@@@@@@@@@",
"@@@@@@@@OOOOOOOOOOOo@@@@@@@@",
"@@@@@@@O...OOOOOO...o@@@@@@@",
"@@@@@@OOO++.OOOO.++OOo@@@@@@",
"@@@@@@OOO+ o.OO.o +OOo@@@@@@",
"@@@@@OOOOooOOXXOOooOOOo@@@@@",
"@@@@@OOOOOOOOXXOOOOOOOo@@@@@",
"@@@@@OOOOOOoX+XXoOOOOOo@@@@@",
"@@@@@OOOOOoOXX..OoOOOoo@@@@@",
"@@@@@oooooOOO..OOOooooo@@@@@",
"@@@@@@Oo  oooooooo  oo@@@@@@",
"@@@@@@Oo            oo@@@@@@",
"@@@@@@@Oo          oo@@@@@@@",
"@@@@@@@@oo  ++++  oo@@@@@@@@",
"@@@@@@@@@oooooooooo    @@@@@",
"@@@@@@@@@@oOOOOOOo       @@@",
"@@@@@@@@@Ooo    Ooo       @@",
"@@@@@@@@OOo      ooo      @@",
"@@@@@@@OOOo      oOOo     @@",
"@@@@@@OOOo@@@     OOOo  @@@@",
"@@@@@@OOo@@@@@@    OOO@@@@@@",
"@@@@@@@@@@@@@@@@@@@@@@@@@@@@",
"@@@@@@@@@@@@@@@@@@@@@@@@@@@@",
"@@@@@@@@@@@@@@@@@@@@@@@@@@@@"
};
