/* XPM */
static char *monster2_3_21737359950[] = {
/* columns rows colors chars-per-pixel */
"28 28 7 1 ",
"  c black",
". c #C00000",
"X c #00C000",
"o c green",
"O c #808080",
"+ c white",
"@ c None",
/* pixels */
"@@@@@@@@@@@@@@@@@@@@@@@@@@@@",
"@@@@@@@@@@@@@@@@@@@@@@@@@@@@",
"@@@@@@@@@@@@oooo@@@@@@@@@@@@",
"@@@@@@@@ooooooooooooo@@@@@@@",
"@@@@@@@oooooooooooooooo@@@@@",
"@@@@@@oooooooooooooooooo@@@@",
"@@@@@@oooooOOoooooooOOoo@@@@",
"@@@@@oooooO++OoooooO++Ooo@@@",
"@@@@ooooooX+ .oooooX+ .ooo@@",
"@@@@oooooooXXXooooooXXoooo@@",
"@@@XooooooooooooooooooooooX@",
"@@@XoooooooooooooooooooooXX@",
"@@@XXoooooooooooooooooooXX@@",
"@@@XXXXXXooooooooOOOoooXX@@@",
"@@@@XXXXXXooooooO+++OooX@@@@",
"@@@@@XXXXXXXooooO+++OXXX@@@@",
"@@@@@@XXXXXXoooXXXXXXXXX@@@@",
"@@@@@@@XXX@XXXXXXX@@@XXXX@@@",
"@@@@@@@XXX@@@@XXXX    XXX @@",
"@@@@@@@X@XX@@@XXX      XX  @",
"@@@@@@@X@@X    XX       X   ",
"@@@@@@@XX@@@   XX       XX  ",
"@@@@@@@@X@@@@  X         X  ",
"@@@@@@@@X      X         X  ",
"@@@@@@@@@@@@@  XX          @",
"@@@@@@@@@@@@@@@@X         @@",
"@@@@@@@@@@@@@@@@X@@@@@@@@@@@",
"@@@@@@@@@@@@@@@@@@@@@@@@@@@@"
};
