/* XPM */
static char *monster1_0_41737359956[] = {
/* columns rows colors chars-per-pixel */
"28 28 7 1 ",
"  c black",
". c #C00000",
"X c red",
"o c #C000C0",
"O c magenta",
"+ c white",
"@ c None",
/* pixels */
"@@@@@@@@@@@@@@@@@@@@@@@@@@@@",
"@@@@@@@@OO@@@@@@@@@@OO@@@@@@",
"@@@@@@@@OOO@@@@@@@@Ooo@@@@@@",
"@@@@@@@@@@OOOOOOOOoO@@@@@@@@",
"@@@@@@@@@@OOOOOOOOOo@@@@@@@@",
"@@@@@@@@@OOOOOOOOOOOo@@@@@@@",
"@@@@@@@@O...OOOOOO...o@@@@@@",
"@@@@@@@OO+++.OOOO.+++oo@@@@@",
"@@@@@@@OOO+ o.OO.o +oOo@@@@@",
"@@@@@@OOOOooOOXXOOooOOOo@@@@",
"@@@@@@OOOOOOOOXXOOOOOOOo@@@@",
"@@@@@@OOOOOOoX+XXoOOOOOo@@@@",
"@@@@@@oOOOOoOXX..OoOOOoo@@@@",
"@@@@@@oooooOOO..OOOooooo@@@@",
"@@@@@@@oo            oo@@@@@",
"@@@@@@@Oo            oo@@@@@",
"@@@@@@@@Oo          oooO@@@@",
"@@@@@@OOOOoo  +++  ooooOO@@@",
"@@@@@OOO@@OOoooooooooooOOo@@",
"@@@@@OO@@@oOOOOOOOOoooo oo@@",
"@@@@@OO@@OOo ooooOooooo    @",
"@@@@@@@@OOOO     Ooooo     @",
"@@@@@@@OOOO@     ooooo     @",
"@@@@@@OOOO@@@@   oooo    @@@",
"@@@@@@OOO@@@@@@@ ooo   @@@@@",
"@@@@@@@@@@@@@@@@@oo@@@@@@@@@",
"@@@@@@@@@@@@@@@@@@@@@@@@@@@@",
"@@@@@@@@@@@@@@@@@@@@@@@@@@@@"
};
