/* XPM */
static char *player_0_31737359949[] = {
/* columns rows colors chars-per-pixel */
"28 28 8 1 ",
"  c black",
". c red",
"X c #C0C000",
"o c yellow",
"O c #00C0C0",
"+ c #808080",
"@ c white",
"# c None",
/* pixels */
"############################",
"###########@@OOOOOOO########",
"##########@OOOOOOOOOO#######",
"##########OOOOOOOOOOO#######",
"######OOOOOOOOOOOOOOO..#####",
"#####OOOOOOOOOOOOOOOO.######",
"######OOOOOOOOOOOOOO.X######",
"########XXXOOOOOOOOOXXX#####",
"#######o@oooOOOOOOOoXXX+####",
"######X@oooooooooooooXXX####",
"######oooooooooooooooXXX####",
"######oooooooooooooooXXX####",
"######oooooooooooooooXXX####",
"######XoooooooooooooXXXX####",
"#######oooooooooooooXXX+####",
"######oXoooooooooooXXXX#####",
"######ooXoooooooooXXXOO#####",
"######oOOXoooooooXXXOOOO####",
"########++XooooXXXXX+OooX###",
"#######+++OXXXXXXXX++ ooX ##",
"#######++ OOXXXXXX++   oX  #",
"########+++OO   +++        #",
"#########++++              #",
"##########+++ ##         ###",
"##################     #####",
"############################",
"############################",
"############################"
};
