/* XPM */
static char *player_0_51737359949[] = {
/* columns rows colors chars-per-pixel */
"28 28 10 1 ",
"  c black",
". c #C00000",
"X c red",
"o c #C0C000",
"O c yellow",
"+ c #00C0C0",
"@ c #808080",
"# c #C0C0C0",
"$ c white",
"% c None",
/* pixels */
"%%%%%%%%%%%%%%%%%%%%%%%%%%%%",
"%%%%%%%%%%%$$+++++++%%%%%%%%",
"%%%%%%%%%%$++++++++++%%%%%%%",
"%%%%%%%%%%+++++++++++%%%%%%%",
"%%%%%%+++++++ooooooo+%%%%%%%",
"%%%%%++++oXXXoOOOOOoo@%%%%%%",
"%%%%%%%o$oXX$$oOOOOOoo%%%%%%",
"%%%%%%%$$$oX$$$oOOOOOoo%%%%%",
"%%%%%%O @$oX @$oOOOOOoo@%%%%",
"%%%%%%$ @$o$ @$oOOOOOOoo%%%%",
"%%%%%%OOO#OOOOOOOOOOOOoo%%%%",
"%%%%%%OO#$@@OOOOOXXOOOoo%%%%",
"%%%%%%OO##@@OOOOOXXOOOoo%%%%",
"%%%%%%oOO@@oOOOO.oOOOOoo%%%%",
"%%%%o%@OOOOOOOO.oOOOOoo@%%%%",
"%%%%oo%@.......oOOOOOoo%%%%%",
"%%%%Oo++$$$$$$oOOOOOoo%%%%%%",
"%%%%Oo@@@.....oOOOOoo%%%%%%%",
"%%%%OO+++oooooOOOOoo   %%%%%",
"%%%%OO++++oOOOOOOoo      %%%",
"%%%%%%%%%%%@ooo+++         %",
"%%%%%%%%%%%%%%+++          %",
"%%%%%%%%%%%%%%+++          %",
"%%%%%%%%%%%##            %%%",
"%%%%%%%%%%%@@@@@@%     %%%%%",
"%%%%%%%%%%%%%%%%%%%%%%%%%%%%",
"%%%%%%%%%%%%%%%%%%%%%%%%%%%%",
"%%%%%%%%%%%%%%%%%%%%%%%%%%%%"
};
