/* XPM */
static char *player_0_71737359949[] = {
/* columns rows colors chars-per-pixel */
"28 28 8 1 ",
"  c black",
". c red",
"X c #C0C000",
"o c yellow",
"O c #00C0C0",
"+ c #808080",
"@ c white",
"# c None",
/* pixels */
"############################",
"######oooX#@@OOOOOOOoooX####",
"######ooX#@OOOOOOOOOOooX####",
"#######oX#OOOOOOOOOOOoX#####",
"######OOOOOOOOOOOOOOO..#####",
"#####OOOOOOOOOOOOOOOO.######",
"######OOOOOOOOOOOOOO.X######",
"########XXXOOOOOOOOOXXX#####",
"#######o@oooOOOOOOOoXXX+####",
"######X@oooooooooooooXXX####",
"######oooooooooooooooXXX####",
"######oooooooooooooooXXX####",
"######oooooooooooooooXXX####",
"######XoooooooooooooXXXX####",
"#######oooooooooooooXXX+####",
"#######XoooooooooooXXXX#####",
"########XoooooooooXXX++#####",
"#########XoooooooXXX++######",
"########++XooooXXXXX++ #####",
"#######+++OXXXXXXXX++    ###",
"#######++ OOXXXXXX++       #",
"########+++OO   +++        #",
"#########++++              #",
"##########+++ ##         ###",
"##################     #####",
"############################",
"############################",
"############################"
};
