
/* XPM */
static char *backround[] = {
/* columns rows colors chars-per-pixel */
"100 100 6 1 ",
"  c black",
". c #BF0000",
"X c #0000C0",
"o c #808080",
"O c #C0C0C0",
"+ c white",
"oooo............................oooo............................oooo............................oooo"
"oooo............................oooo............................oooo............................oooo"
"oooo............................oooo............................oooo............................oooo"
"oooo............................oooo............................oooo............................oooo"
"oooo............................oooo............................oooo............................oooo"
"oooo............................oooo............................oooo............................oooo"
"oooo............................oooo............................oooo............................oooo"
"oooo............................oooo............................oooo............................oooo"
"oooo............................oooo............................oooo............................oooo"
"oooo............................oooo............................oooo............................oooo"
"oooo............................oooo............................oooo............................oooo"
"oooo............................oooo............................oooo............................oooo"
"oooo............................oooo............................oooo............................oooo"
"oooo............................oooo............................oooo............................oooo"
"oooooooooooooooooooooooooooooooooooooooooooooooooooooooooooooooooooooooooooooooooooooooooooooooooooo"
"oooooooooooooooooooooooooooooooooooooooooooooooooooooooooooooooooooooooooooooooooooooooooooooooooooo"
"oooooooooooooooooooooooooooooooooooooooooooooooooooooooooooooooooooooooooooooooooooooooooooooooooooo"
"oooooooooooooooooooooooooooooooooooooooooooooooooooooooooooooooooooooooooooooooooooooooooooooooooooo"
"oooo............................oooo............................oooo............................oooo"
"oooo............................oooo............................oooo............................oooo"
"oooo............................oooo............................oooo............................oooo"
"oooo............................oooo............................oooo............................oooo"
"oooo............................oooo............................oooo............................oooo"
"oooo............................oooo............................oooo............................oooo"
"oooo............................oooo............................oooo............................oooo"
"oooo............................oooo............................oooo............................oooo"
"oooo............................oooo............................oooo............................oooo"
"oooo............................oooo............................oooo............................oooo"
"oooo............................oooo............................oooo............................oooo"
"oooo............................oooo............................oooo............................oooo"
"oooo............................oooo............................oooo............................oooo"
"oooo............................oooo............................oooo............................oooo"
"oooo............................oooo............................oooo............................oooo"
"oooo............................oooo............................oooo............................oooo"
"oooo............................oooo............................oooo............................oooo"
"oooo............................oooo............................oooo............................oooo"
"oooo............................oooo............................oooo............................oooo"
"oooo............................oooo............................oooo............................oooo"
"oooo............................oooo............................oooo............................oooo"
"oooo............................oooo............................oooo............................oooo"
"oooo............................oooo............................oooo............................oooo"
"oooo............................oooo............................oooo............................oooo"
"oooo............................oooo............................oooo............................oooo"
"oooo............................oooo............................oooo............................oooo"
"oooo............................oooo............................oooo............................oooo"
"oooo............................oooo............................oooo............................oooo"
"oooooooooooooooooooooooooooooooooooooooooooooooooooooooooooooooooooooooooooooooooooooooooooooooooooo"
"oooooooooooooooooooooooooooooooooooooooooooooooooooooooooooooooooooooooooooooooooooooooooooooooooooo"
"oooooooooooooooooooooooooooooooooooooooooooooooooooooooooooooooooooooooooooooooooooooooooooooooooooo"
"oooooooooooooooooooooooooooooooooooooooooooooooooooooooooooooooooooooooooooooooooooooooooooooooooooo"
"oooo............................oooo............................oooo............................oooo"
"oooo............................oooo............................oooo............................oooo"
"oooo............................oooo............................oooo............................oooo"
"oooo............................oooo............................oooo............................oooo"
"oooo............................oooo............................oooo............................oooo"
"oooo............................oooo............................oooo............................oooo"
"oooo............................oooo............................oooo............................oooo"
"oooo............................oooo............................oooo............................oooo"
"oooo............................oooo............................oooo............................oooo"
"oooo............................oooo............................oooo............................oooo"
"oooo............................oooo............................oooo............................oooo"
"oooo............................oooo............................oooo............................oooo"
"oooo............................oooo............................oooo............................oooo"
"oooo............................oooo............................oooo............................oooo"
"oooo............................oooo............................oooo............................oooo"
"oooo............................oooo............................oooo............................oooo"
"oooo............................oooo............................oooo............................oooo"
"oooo............................oooo............................oooo............................oooo"
"oooo............................oooo............................oooo............................oooo"
"oooo............................oooo............................oooo............................oooo"
"oooo............................oooo............................oooo............................oooo"
"oooo............................oooo............................oooo............................oooo"
"oooo............................oooo............................oooo............................oooo"
"oooo............................oooo............................oooo............................oooo"
"oooo............................oooo............................oooo............................oooo"
"oooo............................oooo............................oooo............................oooo"
"oooo............................oooo............................oooo............................oooo"
"oooo............................oooo............................oooo............................oooo"
"oooooooooooooooooooooooooooooooooooooooooooooooooooooooooooooooooooooooooooooooooooooooooooooooooooo"
"oooooooooooooooooooooooooooooooooooooooooooooooooooooooooooooooooooooooooooooooooooooooooooooooooooo"
"oooooooooooooooooooooooooooooooooooooooooooooooooooooooooooooooooooooooooooooooooooooooooooooooooooo"
"oooo............................oooo............................oooo............................oooo"
"oooo............................oooo............................oooo............................oooo"
"oooo............................oooo............................oooo............................oooo"
"oooo............................oooo............................oooo............................oooo"
"oooo............................oooo............................oooo............................oooo"
"oooo............................oooo............................oooo............................oooo"
"oooo............................oooo............................oooo............................oooo"
"oooo............................oooo............................oooo............................oooo"
"oooo............................oooo............................oooo............................oooo"
"oooo............................oooo............................oooo............................oooo"
"oooo............................oooo............................oooo............................oooo"
"oooo............................oooo............................oooo............................oooo"
"oooo............................oooo............................oooo............................oooo"
"oooo............................oooo............................oooo............................oooo"
"oooo............................oooo............................oooo............................oooo"
"oooo............................oooo............................oooo............................oooo"
"oooo............................oooo............................oooo............................oooo"
"oooo............................oooo............................oooo............................oooo"
"oooo............................oooo............................oooo............................oooo"
"oooo............................oooo............................oooo............................oooo"
"oooo............................oooo............................oooo............................oooo"
"oooo............................oooo............................oooo............................oooo"
"oooo............................oooo............................oooo............................oooo"
"oooo............................oooo............................oooo............................oooo"
"oooo............................oooo............................oooo............................oooo"
"oooo............................oooo............................oooo............................oooo"
"oooo............................oooo............................oooo............................oooo"
"oooo............................oooo............................oooo............................oooo"
"oooooooooooooooooooooooooooooooooooooooooooooooooooooooooooooooooooooooooooooooooooooooooooooooooooo"
"oooooooooooooooooooooooooooooooooooooooooooooooooooooooooooooooooooooooooooooooooooooooooooooooooooo"
"oooooooooooooooooooooooooooooooooooooooooooooooooooooooooooooooooooooooooooooooooooooooooooooooooooo"
"oooo............................oooo............................oooo............................oooo"
"oooo............................oooo............................oooo............................oooo"
"oooo............................oooo............................oooo............................oooo"
"oooo............................oooo............................oooo............................oooo"
"oooo............................oooo............................oooo............................oooo"
"oooo............................oooo............................oooo............................oooo"
"oooo............................oooo............................oooo............................oooo"
"oooo............................oooo............................oooo............................oooo"
"oooo............................oooo............................oooo............................oooo"
"oooo............................oooo............................oooo............................oooo"
"oooo............................oooo............................oooo............................oooo"
"oooo............................oooo............................oooo............................oooo"
"oooo............................oooo............................oooo............................oooo"
"oooo............................oooo............................oooo............................oooo"
/*
"ooooooooooooooooooooooooo"
"o.......o.......o.......o"
"o.......o.......o.......o"
"o.......o.......o.......o"
"o.......o.......o.......o"
"o.......o.......o.......o"
"o.......o.......o.......o"
"ooooooooooooooooooooooooo"
"o.......o.......o.......o"
"o.......o.......o.......o"
"o.......o.......o.......o"
"o.......o.......o.......o"
"o.......o.......o.......o"
"o.......o.......o.......o"
"o.......o.......o.......o"
"ooooooooooooooooooooooooo"
"o.......o.......o.......o"
"o.......o.......o.......o"
"o.......o.......o.......o"
"o.......o.......o.......o"
"o.......o.......o.......o"
"o.......o.......o.......o"
"o.......o.......o.......o"
"ooooooooooooooooooooooooo"*/
};
