/* XPM */
static char *rock1737713551[] = {
/* columns rows colors chars-per-pixel */
"70 70 111 2 ",
"   c #130F1E",
".  c #151120",
"X  c #141021",
"o  c #151021",
"O  c #151121",
"+  c #161122",
"@  c #161222",
"#  c #161223",
"$  c #171223",
"%  c #171324",
"&  c #181425",
"*  c #1A172A",
"=  c #1D192C",
"-  c #1D1A2C",
";  c #1D1A2F",
":  c #1F1E34",
">  c #221F34",
",  c #27253B",
"<  c #24243D",
"1  c #24253E",
"2  c #25253E",
"3  c #25253F",
"4  c #26263F",
"5  c #2D2D47",
"6  c #302F48",
"7  c #31314A",
"8  c #32314B",
"9  c #32324B",
"0  c #33324C",
"q  c #313556",
"w  c #3F3E54",
"e  c #323758",
"r  c #323759",
"t  c #373D61",
"y  c #3D456D",
"u  c #3D456E",
"i  c #3E466F",
"p  c #3E4771",
"a  c #3F4872",
"s  c #3F4974",
"d  c #454458",
"f  c #464458",
"g  c #4B4E6F",
"h  c #404973",
"j  c #404974",
"k  c #404A74",
"l  c #414A74",
"z  c #414A75",
"x  c #424B75",
"c  c #424C77",
"v  c #434D77",
"b  c #4C4F71",
"n  c #4D5172",
"m  c #4C547E",
"M  c #4D557F",
"N  c #525A84",
"B  c #5A628C",
"V  c #5B638D",
"C  c #5C638C",
"Z  c #5C648F",
"A  c #5E658F",
"S  c #636788",
"D  c #626891",
"F  c #646A93",
"G  c #646B93",
"H  c #636A95",
"J  c #646B96",
"K  c #666C94",
"L  c #646C96",
"P  c #656C96",
"I  c #666D97",
"U  c #666D98",
"Y  c #676E98",
"T  c #676E99",
"R  c #686F99",
"E  c #686F9A",
"W  c #686F9B",
"Q  c #69709A",
"!  c #68709B",
"~  c #69719B",
"^  c #6A719A",
"/  c #6B729B",
"(  c #6A719C",
")  c #6B729D",
"_  c #6C739C",
"`  c #6C749F",
"'  c #6F769E",
"]  c #7A80A5",
"[  c #7B81A6",
"{  c #7C82A7",
"}  c #7D83A8",
"|  c #7E83A8",
" . c #8C91B1",
".. c #8F94B4",
"X. c #9196B6",
"o. c #9298B8",
"O. c #959AB8",
"+. c #9B9FBC",
"@. c #9CA0BD",
"#. c #9EA3BF",
"$. c #9FA3BF",
"%. c #A0A4C0",
"&. c #A2A6C1",
"*. c #A3A7C2",
"=. c #A4A8C2",
"-. c #A4A8C3",
";. c #A6A9C4",
":. c #A6AAC4",
">. c #A6ABC6",
",. c #A8ACC7",
"<. c None",
/* pixels */
"<.<.<.<.<.<.<.<.<.<.<.<.<.<.<.<.<.<.<.& & & & & & & & & & & & & & & & & & & & & & & & & & & & & & & & <.<.<.<.<.<.<.<.<.<.<.<.<.<.<.<.<.<.<.",
"<.<.<.<.<.<.<.<.<.<.<.<.<.<.<.<.<.<.<.& & & $ * & & & & % % & & & & & & & & & & % % & & & & & & & & & <.<.<.<.<.<.<.<.<.<.<.<.<.<.<.<.<.<.<.",
"<.<.<.<.<.<.<.<.<.<.<.<.<.<.<.<.<.<.<.$ & $ & $ & % & & % * & % & % & % * % & & % * % % & % & % & & & <.<.<.<.<.<.<.<.<.<.<.<.<.<.<.<.<.<.<.",
"<.<.<.<.<.<.<.<.<.<.<.<.<.<.<.<.<.<.<.% % O $ o O o o O X X O O O X O X X X X O X X X X O X O % O % O <.<.<.<.<.<.<.<.<.<.<.<.<.<.<.<.<.<.<.",
"<.<.<.<.<.<.<.<.<.<.<.<.<.<.<.<.<.<., 0 9 9 9 w d d d d d d d d d d d d d d d d d d d d d d w 7 9 9 0 , <.<.<.<.<.<.<.<.<.<.<.<.<.<.<.<.<.<.",
"<.<.<.<.<.<.<.<.<.<.<.<.<.<.& & $ O 0 ` ( ( T X.,.>.>.>.>.>.>.>.>.>.>.>.;.;.>.>.>.;.>.>.;.>.o.T ( ( ` 0 % & & & <.<.<.<.<.<.<.<.<.<.<.<.<.<.",
"<.<.<.<.<.<.<.<.<.<.<.<.<.<.& & * o 9 ( T R I ..-.&.&.&.-.&.-.&.*.*.*.*.*.*.-.*.&.-.&.-.-.-...T R R ( 6 O $ * & <.<.<.<.<.<.<.<.<.<.<.<.<.<.",
"<.<.<.<.<.<.<.<.<.<.<.<.<.<.& & $ O 9 ( R R T ..&.;.;.&.&.-.&.-.*.*.*.*.*.*.*.*.-.&.-.&.-.-...T R R ( 9 % $ $ $ <.<.<.<.<.<.<.<.<.<.<.<.<.<.",
"<.<.<.<.<.<.<.<.<.<.<.<.<.<.O O O   5 ~ I I J ..-.-.&.-.&.-.&.-.*.*.*.*.*.*.*.*.*.*.*.*.*.-...J I I T 9   O . . <.<.<.<.<.<.<.<.<.<.<.<.<.<.",
"<.<.<.<.<.<.<.<.<.<.& & % = g n n n S X.......@.&.&.-.&.-.&.-.&.*.*.*.*.*.*.*.*.*.*.*.*.*.*.@.......X.S n n n g = $ & & <.<.<.<.<.<.<.<.<.<.",
"<.<.<.<.<.<.<.<.<.& & & % = G ~ ~ E | ;.=.=.;.-.&.-.&.-.&.-.&.-.*.*.*.*.*.*.*.*.*.*.*.*.*.&.*.-.=.=.=.| T ~ ~ K = & & & & <.<.<.<.<.<.<.<.<.",
"<.<.<.<.<.<.<.<.<.& & & % = D R T T ] -.&.=.&.&.-.&.-.&.-.&.-.&.*.*.*.*.*.*.*.*.*.*.*.*.*.*.*.*.=.&.=.] I ~ R D = & & & & <.<.<.<.<.<.<.<.<.",
"<.<.<.<.<.<.<.<.<.$ $ $ % * D I R I ] -.&.-.&.-.&.-.&.-.&.-.&.-.*.*.*.*.*.*.*.*.*.*.*.*.*.*.*.*.&.;.-.] I R R D = % % % & <.<.<.<.<.<.<.<.<.",
"<.<.<.<.<.<.<.<.<.- - - = , K ~ ~ ~ | ;.-.&.-.&.-.&.-.&.-.&.-.&.*.*.*.*.*.*.*.*.*.*.*.*.*.*.*.*.=.&.-.| ~ _ ^ K , = = = = <.<.<.<.<.<.<.<.<.",
"<.<.<.<.<.& & & O g G D D K @.$.%.#.%.-.&.-.&.-.&.-.&.-.&.-.&.-.*.*.*.*.*.*.*.*.*.*.*.*.*.*.*.*.*.*.&.&.$.$.$.@.D D D G b O & & & <.<.<.<.<.",
"<.<.<.<.<.& & & O n ~ R R ~ $.=.&.-.&.&.-.&.-.&.-.&.-.&.-.&.-.&.*.*.*.*.*.*.*.*.*.*.*.*.*.*.*.*.*.*.*.&.$.-.=.$.~ Y T ~ n O & & & <.<.<.<.<.",
"<.<.<.<.<.& & & O n ~ T I ^ #.&.&.;.&.-.&.-.&.-.&.-.&.-.&.-.&.-.-.&.-.&.-.&.-.&.-.&.-.&.-.&.-.&.*.*.*.*.*.*.*.#.( R T ~ n O % & & <.<.<.<.<.",
"<.<.<.<.<.$ $ O   g T T R ~ #.;.&.&.-.&.-.&.-.&.-.&.-.&.-.&.-.&.&.-.&.-.&.-.&.-.&.-.&.-.&.-.&.-.*.*.*.*.*.*.*.#.~ T T T b   O O O <.<.<.<.<.",
"<.<.<.<., 9 9 9 9 S } ] [ | &.&.;.-.&.-.&.-.&.-.&.-.&.-.&.-.&.-.-.&.-.&.-.&.-.&.-.&.-.&.-.&.-.&.*.*.*.*.*.*.*.%.[ [ [ | S 6 9 9 0 , <.<.<.<.",
"& & & O 0 ` ( ( ( X.=.-.=.=.&.&.&.&.-.&.-.&.-.&.-.&.-.&.-.&.-.&.&.-.&.-.&.-.&.-.&.-.&.-.&.-.&.-.*.*.*.*.*.*.*.*.;.=.;.;.X.( ( ( ` 0 $ * & & ",
"& & $ + 9 ` R R I ..-.-.&.;.;.&.&.-.&.-.&.-.&.-.&.-.&.-.&.-.&.-.-.&.-.&.-.&.-.&.-.&.-.&.-.&.-.&.*.*.*.*.*.*.*.*.;.&.&.=...I T R ` 6 $ $ & & ",
"& & $ + 9 W R R I ..-.&.&.&.&.&.-.&.-.&.-.&.-.&.-.&.-.&.-.&.-.&.&.-.&.-.&.-.&.-.&.-.&.-.&.-.&.-.*.*.*.*.*.*.*.*.&.&.;.=...T R R W 0 + $ & & ",
"& & * + 6 ` R R I ..-.-.;.&.&.;.&.-.&.-.&.-.&.-.&.-.&.-.&.-.&.-.-.&.-.&.-.&.-.&.-.&.-.&.-.&.-.&.*.*.*.*.*.*.*.*.&.;.=.=...I R R ` 6 $ & & & ",
"& & $ $ 6 R R R I ..-.&.-.&.&.;.-.&.-.&.-.&.-.&.-.&.-.&.-.&.-.&.&.-.&.-.&.-.&.-.&.-.&.-.&.-.&.-.*.*.*.*.*.*.*.*.&.&.&.&...I R R W 9 $ & & & ",
"& & & $ 6 ` R R I ..&.&.;.&.&.&.&.-.&.-.&.-.&.-.&.-.&.-.&.-.&.-.-.&.-.&.-.&.-.&.-.&.-.&.-.&.-.&.&.-.&.-.&.-.;.&.-.&.&.;...I T R ` 6 $ $ * $ ",
"& & $ $ 9 ~ R R I X.&.&.&.=.;.&.-.&.-.&.-.&.-.&.-.&.-.&.-.&.-.&.&.-.&.-.&.-.&.-.&.-.&.-.&.-.&.-.-.&.-.&.-.&.&.&.&.-.&.=...T R R W 9 + $ & & ",
"& & & $ 9 ~ R R I X.=.&.&.&.=.&.&.-.&.-.&.-.&.-.&.-.&.-.&.-.&.-.-.&.-.&.-.&.-.&.-.&.-.&.-.&.-.&.&.-.&.-.&.-.&.;.-.&.;.&...T R R W 9 % & & & ",
"& & $ $ 9 I I I D ..%.&.$.%.&.=.-.&.-.&.-.&.-.&.-.&.-.&.-.&.-.&.&.-.&.-.&.-.&.-.&.-.&.-.&.-.&.-.-.&.-.&.-.&.&.&.#.#.#.&. .D I I T 9 O & & & ",
"& & & $ 5 z z z j A ` ^ ^ ' $.&.&.-.&.-.&.-.&.-.&.-.&.-.&.-.&.-.-.&.-.&.-.&.-.&.-.&.-.&.-.&.-.&.&.-.&.-.=.&.;.$.' ^ ` ^ A h z x c 5   $ & & ",
"& & & $ < z h p p B R R R ^ $.=.-.&.-.&.-.&.-.&.-.&.-.&.-.&.-.&.&.-.&.-.&.-.&.-.&.-.&.-.&.-.&.-.-.&.-.&.&.=.&.%.^ Y Y R B p a a z < o % & & ",
"& & & $ < z z h p N ( R Y ` $.&.&.&.-.-.&.-.&.-.&.-.&.-.&.-.&.-.-.&.-.&.-.&.-.&.-.&.-.&.-.&.-.&.-.&.&.-.=.&.=.$.^ ~ R R B p h h z < $ & & & ",
"& & & $ < z h h p A ( R R ^ $.=.;.-.&.&.-.&.-.&.-.&.-.&.-.&.-.&.&.-.&.-.&.-.&.-.&.-.&.-.&.-.&.-.&.-.&.&.=.=.=.$._ Y R ~ B a h h p 5 $ & & & ",
"& & & $ < z h h a N V B B A  .......O.-.&.-.&.-.&.-.&.-.&.-.&.-.-.&.-.&.-.&.-.&.&.-.&.-.&.-.&.-.&.-.&.O....... .A B B B N a h h z < $ & & & ",
"& & & $ < z h h a a a a a h J I I L ] -.-.&.-.-.-.&.-.&.-.&.-.&.&.-.&.-.&.-.&.-.-.&.-.&.-.&.-.&.-.&.;.] I I I D z a a a a a h h z < $ $ & & ",
"& & % O < x h h a h h h a h I I Y I ] -.&.-.$.-.&.-.&.-.&.-.&.-.-.&.-.&.-.&.-.&.&.-.&.-.&.-.&.-.-.&.-.] I T I I z a a h h h h h s < $ & & & ",
"& & O X 5 x h h h h h h a x I E E I ] -.-.&.-.-.-.&.-.&.-.&.-.&.&.-.&.-.&.-.&.-.-.&.-.&.-.&.-.&.&.-.;.] I ~ T I x a h h h h h h p 5 $ & & & ",
"& & & $ < x z h h h h h a x I ~ ~ I } =.-.-.-.-.$.-.&.-.&.-.&.-.-.&.-.&.-.&.-.&.&.-.&.-.=.&.;.,.-.-.>.[ E ~ ~ I x a h h h h h h z < $ & & & ",
"& & & $ < x z a h h h h a h M M M m C } } ] ] O.=.-.-.&.-.&.-.&.&.-.&.-.&.-.&.-.-.&.-.&.&.=.O.' { ] ] C M M M M h a h h h h h h z < $ & & & ",
"& & & $ < x h h h h h h h a a a a p M T I I I ..-.-.&.-.&.-.&.-.-.&.-.&.-.&.-.&.&.-.&.-.=.;...J T T T m i a a a a h h h h h h h s < $ & & & ",
"& & & $ < z h h h h h h h h h h a a M ~ Y Y I ..&.&.-.&.-.&.-.&.&.-.&.-.&.-.&.-.-.&.-.&.&.-...I T E E M a a h h h h h h h h h h p 5 $ & & & ",
"& & & $ 5 s a h h h h h h h h h h a M ~ I I I X.=.=.-.-.-.$.-.-.-.&.;.&.=.&.=.&.&.&.&.-.&.;...I ~ I ~ M a h h h h h h h h h h h z < $ & & & ",
"& & & $ < a h h h h h h h h h h h a M I I I D  .$.$.$.$.$.$.$.$.#.#.%.#.$.$.%.$.&.$.$.%.#.&. .J I I I M a h h h h h h h h h h h z < $ $ & & ",
"& & & $ < z h h h h h h h h h h h a h x x x z A _ / / / _ / / / ^ ~ ~ ^ ^ ^ ^ ^ ^ ^ ^ ` ( ( S h h z x h a h h h h h h h h h h h z < $ & & & ",
"& & & $ < z h h h h h h h h h h h h a a a a a B R Y Y Y Y Y Y Y R R R R Y R R Y R Y Y Y T W B p a a a a h h h h h h h h h h h h p 5 $ & & & ",
"& & & $ < z a a h h h h h h h h h h h h a h a B R R R R R R R R R R R R R R R R R R R R R R B p h h h h h h h h h h h h h h h h z < O & & & ",
"& & & $ 5 p h h h h h h h h h h h h h h h h a B R R R R R R R R R R R R R R R R R R R R R R B p h h h h h h h h h h h h h h h h p < $ $ & & ",
"& & & $ < z h h h h h h h h h h h h h h a a i B R R R R R R R R R R R R R R R R R R R R R R B p h h h h h h h h h h h h h h h h z 5 $ & & & ",
"& & & $ < z h h h h h h h h h h h h h h h a a B R R R R R R R R R R R R R R R R R R R R R R B p h h h h h h h h h h h h h h h h z < $ & & & ",
"& & & $ < z h h h h h h h h h h h h h h h h a B I Y E Y R R R R R R R R R R R R R R R R R R B p h h h h h h h h h h h h h h h h s < O & & & ",
"& & & $ < z h h h h h h h h h h h h h h h h a B E E Y ~ R R R R R R R R R R R R R R R R R R B p h h h h h h h h h h h h h h h h p < $ & & & ",
"& & & $ < z z z z h a h h h h h h h h h h h a B R R R R R R R R R R R R R R R R R R R R R R B p h h h h h h h h h h h a h x z z c 5 % & & & ",
"<.<.<.<.: < 5 < < t z a h h h h h h h h h h a B R R R R R R R R R R R R R R R R R R R R R R B p h h h h h h h h h h h h t < < < < : <.<.<.<.",
"<.<.<.<.<.$ $ $ O e z h h h h h h h h h a a p B R R R R R R R R R R R R R R R R R R R R R R B p h h h h h h h h h h h h e O & $ % <.<.<.<.<.",
"<.<.<.<.<.& & & % e a h h h h h h h h h a a p B R R R R R R R R R R R R R R R R R R R R R R B p h h h h h h h h h h h z e O & & & <.<.<.<.<.",
"<.<.<.<.<.& & & O e a a h a h h h h h h s h a B R R R R R R R R R R R R R R R R R R R R R R B p h h h h h h h h h h h h e $ & & & <.<.<.<.<.",
"<.<.<.<.<.& & & % q i i i i a h h h h h h h i B R R R R R R R R R R R R R R R R R R R R R R B p h h h h h h h a i i i i q O & & & <.<.<.<.<.",
"<.<.<.<.<.<.<.<.<.* * * * = p a h h h h h h a B R R R R R R R R R R R R R R R R R R R R R R B p h h h h h h a i = * * * * <.<.<.<.<.<.<.<.<.",
"<.<.<.<.<.<.<.<.<.% % % % * i h h h h h h h a B R R R R R R R R R R R R R R R R R R R R R R B p h h h h h h a i * % % % % <.<.<.<.<.<.<.<.<.",
"<.<.<.<.<.<.<.<.<.& & & % * i a h h h h h h a B R R R R R R R R R R R R R R R R R R R R R R B p h h h h h h h i * % % & & <.<.<.<.<.<.<.<.<.",
"<.<.<.<.<.<.<.<.<.& & & % * p a a z h a h h a B R R R R R R R R R R R R R R R R R R R R R R B p h h a h k h h p * % % & & <.<.<.<.<.<.<.<.<.",
"<.<.<.<.<.<.<.<.<.<.& & % * q e e e t h h h p B R R R R R R R R R R R R R R R R R R R R Y E B p h h h t e e e q * % & & <.<.<.<.<.<.<.<.<.<.",
"<.<.<.<.<.<.<.<.<.<.<.<.<.<.% O % O < x h h p B R R R R R R R R R R R R R R R R R R R R E T B a h h x < O O % O <.<.<.<.<.<.<.<.<.<.<.<.<.<.",
"<.<.<.<.<.<.<.<.<.<.<.<.<.<.& & & $ < x h h p B R R R R R R R R R R R R R R R R R R R R Y ~ B a h h z < % & & & <.<.<.<.<.<.<.<.<.<.<.<.<.<.",
"<.<.<.<.<.<.<.<.<.<.<.<.<.<.& & & $ < h h h p B R R R R R R R R R R R R R R R R R R R R R Y B a h h x < % & & & <.<.<.<.<.<.<.<.<.<.<.<.<.<.",
"<.<.<.<.<.<.<.<.<.<.<.<.<.<.& & & O 5 s p z a Z ( ( ( ( ( W ` W W ` W ` W ` ` W W W ` W W ` A j z z s < O & & & <.<.<.<.<.<.<.<.<.<.<.<.<.<.",
"<.<.<.<.<.<.<.<.<.<.<.<.<.<.<.<.<.<.: < 5 < < 5 9 9 6 9 9 9 6 0 0 6 0 6 6 6 0 6 0 0 6 0 9 0 5 < < < 5 > <.<.<.<.<.<.<.<.<.<.<.<.<.<.<.<.<.<.",
"<.<.<.<.<.<.<.<.<.<.<.<.<.<.<.<.<.<.<.O $ $ $ O O % O % $ $ $ $ % + % $ $ $ $ $ $ $ $ $ $ $ $ $ $ $ $ <.<.<.<.<.<.<.<.<.<.<.<.<.<.<.<.<.<.<.",
"<.<.<.<.<.<.<.<.<.<.<.<.<.<.<.<.<.<.<.& & & & & & & $ & $ & & $ & & $ & & & $ & $ & & $ $ * $ & $ & & <.<.<.<.<.<.<.<.<.<.<.<.<.<.<.<.<.<.<.",
"<.<.<.<.<.<.<.<.<.<.<.<.<.<.<.<.<.<.<.& & & & & & & & & & & & & & & & & & & & & & & & & & & & & & & & <.<.<.<.<.<.<.<.<.<.<.<.<.<.<.<.<.<.<.",
"<.<.<.<.<.<.<.<.<.<.<.<.<.<.<.<.<.<.<.& & & & & & & & & & & & & & & & & & & & & & & & & & & & & & & & <.<.<.<.<.<.<.<.<.<.<.<.<.<.<.<.<.<.<."
};
