/* XPM */
static char *coin_61737908250[] = {
/* columns rows colors chars-per-pixel */
"70 70 221 2 ",
"   c #32171D",
".  c #0D0C23",
"X  c #060823",
"o  c #0F1025",
"O  c #191524",
"+  c #181525",
"@  c #110D22",
"#  c #201724",
"$  c #211925",
"%  c #281E26",
"&  c #301D22",
"*  c #2D2226",
"=  c #332526",
"-  c #3C2C27",
";  c #392726",
":  c #3E352C",
">  c #542318",
",  c #762A11",
"<  c #662F1A",
"1  c #412624",
"2  c #412E27",
"3  c #4C2A22",
"4  c #413027",
"5  c #443228",
"6  c #4E3A2A",
"7  c #49372A",
"8  c #563E29",
"9  c #723B24",
"0  c #643722",
"q  c #5E4429",
"w  c #624529",
"e  c #6A4B2A",
"r  c #65492A",
"t  c #774827",
"y  c #72512B",
"u  c #79562B",
"i  c #705C35",
"p  c #78673A",
"a  c #3A4466",
"s  c #8B2A05",
"d  c #8A2D0B",
"f  c #8E310C",
"g  c #91310C",
"h  c #803716",
"j  c #953C12",
"k  c #9B3D12",
"l  c #923710",
"z  c #A03F12",
"x  c #974015",
"c  c #974119",
"v  c #9B4716",
"b  c #A54213",
"n  c #AA4513",
"m  c #A64D19",
"M  c #B34B15",
"N  c #B44B15",
"B  c #A4551D",
"V  c #A9591E",
"C  c #A7581E",
"Z  c #BD5116",
"A  c #BF5518",
"S  c #AD621F",
"D  c #964A20",
"F  c #835C2C",
"G  c #8C5329",
"H  c #935121",
"J  c #A95423",
"K  c #A85B22",
"L  c #A65627",
"P  c #A85F35",
"I  c #A65B34",
"U  c #8C622C",
"Y  c #96692D",
"T  c #986A2D",
"R  c #95662D",
"E  c #957237",
"W  c #AA6629",
"Q  c #B26B27",
"!  c #AB752E",
"~  c #AA772E",
"^  c #BD7D2E",
"/  c #B8742C",
"(  c #AC7A33",
")  c #BD7E30",
"_  c #AB653E",
"`  c #C25316",
"'  c #C35518",
"]  c #CC5C1A",
"[  c #C95819",
"{  c #D55C17",
"}  c #D6621C",
"|  c #DA621B",
" . c #DC6D1E",
".. c #CE621C",
"X. c #E66B1F",
"o. c #EA6C1E",
"O. c #E6661A",
"+. c #F06E1C",
"@. c #F6711E",
"#. c #EE701F",
"$. c #D66621",
"%. c #D76923",
"&. c #DB7324",
"*. c #C77F2C",
"=. c #EA6E20",
"-. c #EC7221",
";. c #ED7C24",
":. c #E07122",
">. c #F67521",
",. c #FA7521",
"<. c #F67A23",
"1. c #F77A29",
"2. c #B27147",
"3. c #BA7F54",
"4. c #BF832F",
"5. c #BF8131",
"6. c #BF823C",
"7. c #A9853B",
"8. c #D88A2D",
"9. c #C18331",
"0. c #CC8D30",
"q. c #C58933",
"w. c #D88D33",
"e. c #CB943A",
"r. c #CD993D",
"t. c #DC9731",
"y. c #DE9A32",
"u. c #D29131",
"i. c #D38C2F",
"p. c #E88429",
"a. c #FA8526",
"s. c #FD8927",
"d. c #F38D2A",
"f. c #FA8C2A",
"g. c #F68427",
"h. c #FC942B",
"j. c #FD9C2D",
"k. c #F4982D",
"l. c #F68330",
"z. c #E89932",
"x. c #F99534",
"c. c #F79B36",
"v. c #D9A33C",
"b. c #FEA22F",
"n. c #E7A032",
"m. c #F3A532",
"M. c #FDA530",
"N. c #FDAC33",
"B. c #F8A737",
"V. c #FFB334",
"C. c #FDB73B",
"Z. c #FFC13F",
"A. c #BF8548",
"S. c #BE8658",
"D. c #AC9546",
"F. c #B9A049",
"G. c #C0895C",
"H. c #CD9E5F",
"J. c #FA984D",
"K. c #C9A346",
"L. c #D5A542",
"P. c #D9AC45",
"I. c #D6A84A",
"U. c #DFB54A",
"Y. c #DCB94C",
"T. c #DAB058",
"R. c #FAAE42",
"E. c #F6A841",
"W. c #FBB947",
"Q. c #FBA952",
"!. c #EAB34B",
"~. c #C49367",
"^. c #DAB678",
"/. c #D1A878",
"(. c #FCB875",
"). c #E0BD6E",
"_. c #DEC655",
"`. c #FFCD4A",
"'. c #FBC44B",
"]. c #ECCB54",
"[. c #E8C957",
"{. c #FDC855",
"}. c #EFD257",
"|. c #F1D356",
" X c #FCD255",
".X c #FCDC5C",
"XX c #F8D858",
"oX c #FDE35E",
"OX c #FFE95F",
"+X c #FDC473",
"@X c #F6D976",
"#X c #F8D269",
"$X c #FDE661",
"%X c #FFEB62",
"&X c #FEE76C",
"*X c #FFF065",
"=X c #FEED73",
"-X c #FEE97A",
";X c #DAB98B",
":X c #DCBD90",
">X c #DFC18D",
",X c #F7DE8B",
"<X c #FEDA99",
"1X c #EBD492",
"2X c #FEEA85",
"3X c #FFF28C",
"4X c #FCEB96",
"5X c #ECD9A6",
"6X c #FDD7A0",
"7X c #FAEAA8",
"8X c #FFF6A5",
"9X c #F5E9B6",
"0X c #FDF1BD",
"qX c #FDF7B6",
"wX c #EFE1AE",
"eX c #FEFBC3",
"rX c #FEFCCC",
"tX c #FEF1C1",
"yX c #FFFFD2",
"uX c #FFFFDA",
"iX c None",
/* pixels */
"iXiXiXiXiXiXiXiXiXiXiXiXiXiXiXiXiXiXiXiXiXiXiXiXiXiXiXiXiXiXiXiXiXiXiXiXiXiXiXiXiXiXiXiXiXiXiXiXiXiXiXiXiXiXiXiXiXiXiXiXiXiXiXiXiXiXiXiXiXiX",
"iXiXiXiXiXiXiXiXiXiXiXiXiXiXiXiXiXiXiXiXiXiXiXiXiXiXiXiXiXiXiXiXiXiXiXiXiXiXiXiXiXiXiXiXiXiXiXiXiXiXiXiXiXiXiXiXiXiXiXiXiXiXiXiXiXiXiXiXiXiX",
"iXiXiXiXiXiXiXiXiXiXiXiXiXiXiXiXiXiXiXiXiXiXiXiXiXiXiXiXiXiXiXiXiXiXiXiXiXiXiXiXiXiXiXiXiXiXiXiXiXiXiXiXiXiXiXiXiXiXiXiXiXiXiXiXiXiXiXiXiXiX",
"iXiXiXiXiXiXiXiXiXiXiXiXiXiXiXiXiXiXiXiXiXiXiXiXiXiXiXiXiXiXiXiXiXiXiXiXiXiXiXiXiXiXiXiXiXiXiXiXiXiXiXiXiXiXiXiXiXiXiXiXiXiXiXiXiXiXiXiXiXiX",
"iXiXiXiXiXiXiXiXiXiXiXiXiXiXiXiXiXiXiXiXiXiXiXiXiXiXiXiXiXs s s s s s d d d d d d iXiXiXiXiXiXiXiXiXiXiXiXiXiXiXiXiXiXiXiXiXiXiXiXiXiXiXiXiX",
"iXiXiXiXiXiXiXiXiXiXiXiXiXiXiXiXiXiXiXiXiXiXiXiXiXiXiXf f f f f f f f f f f f d f f f iXiXiXiXiXiXiXiXiXiXiXiXiXiXiXiXiXiXiXiXiXiXiXiXiXiXiX",
"iXiXiXiXiXiXiXiXiXiXiXiXiXiXiXiXiXiXiXiXiXiXiXiXiXiXc x x c c c c j j c x x k x x x x x iXiXiXiXiXiXiXiXiXiXiXiXiXiXiXiXiXiXiXiXiXiXiXiXiXiX",
"iXiXiXiXiXiXiXiXiXiXiXiXiXiXiXiXiXiXiXiXiXiXiXiXiXiXI I P P P P P P W L K K K K V K C B iXiXiXiXiXiXiXiXiXiXiXiXiXiXiXiXiXiXiXiXiXiXiXiXiXiX",
"iXiXiXiXiXiXiXiXiXiXiXiXiXiXiXiXiXiXiXiXiXiXiXiXiXI 2.3.G.G.G.G.S.G.A.6.5.5.5.9.9.5./ Q B iXiXiXiXiXiXiXiXiXiXiXiXiXiXiXiXiXiXiXiXiXiXiXiXiX",
"iXiXiXiXiXiXiXiXiXiXiXiXiXiXiXiXiXiXiXiXiXiXiXf D _ G./.;X:X:X;X;X;X^.T.T.P.P.P.P.P.r.) W x d iXiXiXiXiXiXiXiXiXiXiXiXiXiXiXiXiXiXiXiXiXiXiX",
"iXiXiXiXiXiXiXiXiXiXiXiXiXiXiXiXiXiXiXiXiXiXf l D 2.~.>X5X9X9X9XwX5X,X@X#X}.|.|.|.[.U.e.Q m l f iXiXiXiXiXiXiXiXiXiXiXiXiXiXiXiXiXiXiXiXiXiX",
"iXiXiXiXiXiXiXiXiXiXiXiXiXiXiXiXiXiXiXiXiXiXv m P G./.5XtXyXyXyXeXqX8X3X&XOXOXOXOXXX[.L.) K B v iXiXiXiXiXiXiXiXiXiXiXiXiXiXiXiXiXiXiXiXiXiX",
"iXiXiXiXiXiXiXiXiXiXiXiXiXiXiXiXiXiXiXiXiXV W Q G.H.;XwXrXyXuXuXrXeX8X3X-X*X*X*X%X%X}.Y.r.5.Q W B iXiXiXiXiXiXiXiXiXiXiXiXiXiXiXiXiXiXiXiXiX",
"iXiXiXiXiXiXiXiXiXiXiXiXiXiXiXiXiXiXiXj m S ^ e.L.).1X7XrXuXuXuXyXeX8X3X-X*X%XOX%X$XXX[.U.L.e.5.Q B j iXiXiXiXiXiXiXiXiXiXiXiXiXiXiXiXiXiXiX",
"iXiXiXiXiXiXiXiXiXiXiXiXiXiXiXiXiXiXf x B / e.U.[.@X4XqXrXrXyXyXeXqX8X3X=X%XOXOXOX$XoXXX|.[.U.e./ B j f iXiXiXiXiXiXiXiXiXiXiXiXiXiXiXiXiXiX",
"iXiXiXiXiXiXiXiXiXiXiXiXiXiXiXiXiXiXf j B ^ v.[.&X-X4X7X9XtXtXtX0X8X4X2X=X%XOXoXOXOX$X%X%X.X[.v.) K j f iXiXiXiXiXiXiXiXiXiXiXiXiXiXiXiXiXiX",
"iXiXiXiXiXiXiXiXiXiXiXiXiXiXiXiXiXiXg x V ^ P.}.&X=X2X4X<X6X6X6X<X<X,X-X&X%XOXOXOX$X%X%X*XOX}.L.) B k g iXiXiXiXiXiXiXiXiXiXiXiXiXiXiXiXiXiX",
"iXiXiXiXiXiXiXiXiXiXiXiXiXiXiXiXiXiXg x V 9.P.|.&X&X#X+X(.(.(.(.(.+X+X#X$X$X%X%X$X%X%X*X*X%X}.P.) C k g iXiXiXiXiXiXiXiXiXiXiXiXiXiXiXiXiXiX",
"iXiXiXiXiXiXiXiXiXiXiXiXiXiXiXiXiXiXg j K 5.P.}.$X.X{.Q.J.J.J.J.J.Q.Q..X.X&X%X%X%XOX%X%X*X$X}.P.) K k g iXiXiXiXiXiXiXiXiXiXiXiXiXiXiXiXiXiX",
"iXiXiXiXiXiXiXiXiXiXiXiXiXiXiXiXiXiXd j B ^ P.]. X{.Q.c.l.1.1.1.l.f.E.W. X.X$X%X$X$X%X%X%XoX}.L.( B j f iXiXiXiXiXiXiXiXiXiXiXiXiXiXiXiXiXiX",
"iXiXiXiXiXiXiXiXiXiXiXiXiXiXiXiXiXiX, h H Q K.!.'.!.c.p.+.O.O.+.>.a.c.C.'. X.X.XoX$X$X%X*X$X_.P.( H h , iXiXiXiXiXiXiXiXiXiXiXiXiXiXiXiXiXiX",
"iXiXiXiXiXiXiXiXiXiXiXiXiXiXiXiXiXiX> < t R q.n.E.c.p.%.{ { { O.+.<.f.x.R.W.{. X.XOX%X*X*X$X[.F.~ t , > iXiXiXiXiXiXiXiXiXiXiXiXiXiXiXiXiXiX",
"iXiXiXiXiXiXiXiXiXiXiXiXiXiXiXiXiXiX  3 0 G / w.z.p. .[ ` ` { O.>.,.g.f.x.B.R.'.XX$X%X*X*XOX[.F.E w 1   iXiXiXiXiXiXiXiXiXiXiXiXiXiXiXiXiXiX",
"iXiXiXiXiXiXiXiXiXiXiXiXiXiXiXiXiXiX# & 3 G P &.;. .] N N z [ $.-.,.,.1.1.x.B.W. XoX%X*X*X*X_.F.p 6 = # iXiXiXiXiXiXiXiXiXiXiXiXiXiXiXiXiXiX",
"iXiXiXiXiXiXiXiXiXiXiXiXiXiXiXiXiXiXO # 1 9 J $.=.| ` n k n Z { -.>.,.,.,.g.x.R.`.XXoXOXOXXX_.7.p 7 $ @ iXiXiXiXiXiXiXiXiXiXiXiXiXiXiXiXiXiX",
"iXiXiXiXiXiXiXiXiXiXiXiXiXiXiXiXiXiX. # ; 9 J | =.{ ` z k b Z $.=.,.,.,.,.<.f.B.W. X XoXXX X_.7.i 7 + o iXiXiXiXiXiXiXiXiXiXiXiXiXiXiXiXiXiX",
"iXiXiXiXiXiXiXiXiXiXiXiXiXiXiXiXiXiX. + ; 9 J $.=.| ` z k b ' { -.,.,.,.,.1.f.c.C.W.`.`.`.Z.v.7.i : + . iXiXiXiXiXiXiXiXiXiXiXiXiXiXiXiXiXiX",
"iXiXiXiXiXiXiXiXiXiXiXiXiXiXiXiXiXiXo $ 1 9 J $.=.| ` z k n Z $.#.,.,.,.>.,.f.x.N.C.C.Z.Z.C.v.7.i : $ . iXiXiXiXiXiXiXiXiXiXiXiXiXiXiXiXiXiX",
"iXiXiXiXiXiXiXiXiXiXiXiXiXiXiXiXiXiXo # 1 9 J %.=.{ ` z z z N { =.-.>.,.>.<.a.h.M.N.V.V.C.N.y.! e 5 + o iXiXiXiXiXiXiXiXiXiXiXiXiXiXiXiXiXiX",
"iXiXiXiXiXiXiXiXiXiXiXiXiXiXiXiXiXiXo # 1 9 J $.=.{ [ n z z M [ { O.=.=.>.<.a.h.j.M.V.V.V.B.t.! y - $ @ iXiXiXiXiXiXiXiXiXiXiXiXiXiXiXiXiXiX",
"iXiXiXiXiXiXiXiXiXiXiXiXiXiXiXiXiXiXo # 1 9 J $.=.| ` z k k z N Z ] | O.o.<.a.h.b.N.N.V.V.N.t.! y 4 $ o iXiXiXiXiXiXiXiXiXiXiXiXiXiXiXiXiXiX",
"iXiXiXiXiXiXiXiXiXiXiXiXiXiXiXiXiXiXo $ 1 9 J $.=.{ ' z l l l z n N [ | o.<.a.h.j.N.N.V.V.N.t.! y 4 $ @ iXiXiXiXiXiXiXiXiXiXiXiXiXiXiXiXiXiX",
"iXiXiXiXiXiXiXiXiXiXiXiXiXiXiXiXiXiXo $ - 9 K  .=.| [ n k f g l b n A } =.<.a.h.b.N.N.V.V.N.y.~ y - O + iXiXiXiXiXiXiXiXiXiXiXiXiXiXiXiXiXiX",
"iXiXiXiXiXiXiXiXiXiXiXiXiXiXiXiXiXiXo $ 1 9 K &.;.:...M b b k k b M ' | -.g.f.j.b.N.V.V.V.N.y.~ y - $ o iXiXiXiXiXiXiXiXiXiXiXiXiXiXiXiXiXiX",
"iXiXiXiXiXiXiXiXiXiXiXiXiXiXiXiXiXiXo $ 1 t W &.g.;. .] Z M M M M Z ..&.;.f.j.j.M.N.V.V.V.V.y.~ y 4 $ o iXiXiXiXiXiXiXiXiXiXiXiXiXiXiXiXiXiX",
"iXiXiXiXiXiXiXiXiXiXiXiXiXiXiXiXiXiXo + 2 t Q 8.k.s.;. .{ ] [ [ ] $.&.;.d.j.M.M.N.N.V.V.V.V.y.~ y - $ o iXiXiXiXiXiXiXiXiXiXiXiXiXiXiXiXiXiX",
"iXiXiXiXiXiXiXiXiXiXiXiXiXiXiXiXiXiX@ $ 4 y ! t.k.h.a.;.X.X.O.X.X.=.g.d.j.M.N.N.N.N.V.V.V.N.t.! y 4 $ . iXiXiXiXiXiXiXiXiXiXiXiXiXiXiXiXiXiX",
"iXiXiXiXiXiXiXiXiXiXiXiXiXiXiXiXiXiX@ $ 4 e W 0.z.k.d.g.g.@.@.<.@.g.d.j.M.B.V.N.N.V.N.N.m.z.0.! e 4 $ . iXiXiXiXiXiXiXiXiXiXiXiXiXiXiXiXiXiX",
"iXiXiXiXiXiXiXiXiXiXiXiXiXiXiXiXiXiX. $ - q U ! 4.8.p.d.s.s.s.s.h.h.j.M.N.V.V.V.V.N.m.n.u.4.! F r - $ o iXiXiXiXiXiXiXiXiXiXiXiXiXiXiXiXiXiX",
"iXiXiXiXiXiXiXiXiXiXiXiXiXiXiXiXiXiXiXiX; 6 w u U ! 9.8.h.j.b.j.j.j.M.N.V.V.V.V.V.N.v.q.~ U u w 6 ; iXiXiXiXiXiXiXiXiXiXiXiXiXiXiXiXiXiXiXiX",
"iXiXiXiXiXiXiXiXiXiXiXiXiXiXiXiXiXiXiXiXiX; : 7 w F ! 8.k.N.M.M.M.M.N.N.N.V.V.V.V.m.t.7.F w 7 2 ; iXiXiXiXiXiXiXiXiXiXiXiXiXiXiXiXiXiXiXiXiX",
"iXiXiXiXiXiXiXiXiXiXiXiXiXiXiXiXiXiXiXiXiXiXO % 2 r R 0.z.m.m.m.m.m.m.m.m.m.m.N.N.n.0.T e - % O iXiXiXiXiXiXiXiXiXiXiXiXiXiXiXiXiXiXiXiXiXiX",
"iXiXiXiXiXiXiXiXiXiXiXiXiXiXiXiXiXiXiXiXiXiXX + * 8 F ! q.u.u.u.0.0.0.0.0.0.0.i.u.4.! u 8 * + X iXiXiXiXiXiXiXiXiXiXiXiXiXiXiXiXiXiXiXiXiXiX",
"iXiXiXiXiXiXiXiXiXiXiXiXiXiXiXiXiXiXiXiXiXiXiXiX% 5 r F R T T T Y Y R R Y Y T T T R F e 7 $ iXiXiXiXiXiXiXiXiXiXiXiXiXiXiXiXiXiXiXiXiXiXiXiX",
"iXiXiXiXiXiXiXiXiXiXiXiXiXiXiXiXiXiXiXiXiXiXiXiXiX- 7 8 q q q q q q q q q q w q q q q 7 ; iXiXiXiXiXiXiXiXiXiXiXiXiXiXiXiXiXiXiXiXiXiXiXiXiX",
"iXiXiXiXiXiXiXiXiXiXiXiXiXiXiXiXiXiXiXiXiXiXiXiXiXiX= = = = = = = = = = = = = = = & = = iXiXiXiXiXiXiXiXiXiXiXiXiXiXiXiXiXiXiXiXiXiXiXiXiXiX",
"iXiXiXiXiXiXiXiXiXiXiXiXiXiXiXiXiXiXiXiXiXiXiXiXiXiXiXO + + + + O O O O O @ O @ O O O iXiXiXiXiXiXiXiXiXiXiXiXiXiXiXiXiXiXiXiXiXiXiXiXiXiXiX",
"iXiXiXiXiXiXiXiXiXiXiXiXiXiXiXiXiXiXiXiXiXiXiXiXiXiXiXiXX . . . . X X . . . . . . . iXiXiXiXiXiXiXiXiXiXiXiXiXiXiXiXiXiXiXiXiXiXiXiXiXiXiXiX",
"iXiXiXiXiXiXiXiXiXiXiXiXiXiXiXiXiXiXiXiXiXiXiXiXiXiXiXiXiXiXiXiXiXiXiXiXiXiXiXiXiXiXiXiXiXiXiXiXiXiXiXiXiXiXiXiXiXiXiXiXiXiXiXiXiXiXiXiXiXiX",
"iXiXiXiXiXiXiXiXiXiXiXiXiXiXiXiXiXiXiXiXiXiXiXiXiXiXiXiXiXiXiXiXiXiXiXiXiXiXiXiXiXiXiXiXiXiXiXiXiXiXiXiXiXiXiXiXiXiXiXiXiXiXiXiXiXiXiXiXiXiX",
"iXiXiXiXiXiXiXiXiXiXiXiXiXiXiXiXiXiXiXiXiXiXiXiXiXiXiXiXiXiXiXiXiXiXiXiXiXiXiXiXiXiXiXiXiXiXiXiXiXiXiXiXiXiXiXiXiXiXiXiXiXiXiXiXiXiXiXiXiXiX",
"iXiXiXiXiXiXiXiXiXiXiXiXiXiXiXiXiXiXiXiXiXiXiXiXiXiXiXiXiXiXiXiXiXiXiXiXiXiXiXiXiXiXiXiXiXiXiXiXiXiXiXiXiXiXiXiXiXiXiXiXiXiXiXiXiXiXiXiXiXiX",
"iXiXiXiXiXiXiXiXiXiXiXiXiXiXiXiXiXiXiXiXiXiXiXiXiXa iXiXiXiXiXiXiXiXiXiXiXiXiXiXiXiXiXiXa iXiXiXiXiXiXiXiXiXiXiXiXiXiXiXiXiXiXiXiXiXiXiXiXiX",
"iXiXiXiXiXiXiXiXiXiXiXiXiXiXiXiXiXiXiXiXiXiXiXa a a a a a a a a a a a a a a a a a a a a a a a iXiXiXiXiXiXiXiXiXiXiXiXiXiXiXiXiXiXiXiXiXiXiX",
"iXiXiXiXiXiXiXiXiXiXiXiXiXiXiXiXiXiXiXiXiXiXa a a a a a a a a a a a a a a a a a a a a a a a a a iXiXiXiXiXiXiXiXiXiXiXiXiXiXiXiXiXiXiXiXiXiX",
"iXiXiXiXiXiXiXiXiXiXiXiXiXiXiXiXiXiXiXiXiXa a a a a a a a a a a a a a a a a a a a a a a a a a a a iXiXiXiXiXiXiXiXiXiXiXiXiXiXiXiXiXiXiXiXiX",
"iXiXiXiXiXiXiXiXiXiXiXiXiXiXiXiXiXiXiXiXa a a a a a a a a a a a a a a a a a a a a a a a a a a a a a iXiXiXiXiXiXiXiXiXiXiXiXiXiXiXiXiXiXiXiX",
"iXiXiXiXiXiXiXiXiXiXiXiXiXiXiXiXiXiXiXa a a a a a a a a a a a a a a a a a a a a a a a a a a a a a a a iXiXiXiXiXiXiXiXiXiXiXiXiXiXiXiXiXiXiX",
"iXiXiXiXiXiXiXiXiXiXiXiXiXiXiXiXiXiXa a a a a a a a a a a a a a a a a a a a a a a a a a a a a a a a a a iXiXiXiXiXiXiXiXiXiXiXiXiXiXiXiXiXiX",
"iXiXiXiXiXiXiXiXiXiXiXiXiXiXiXiXiXiXa a a a a a a a a a a a a a a a a a a a a a a a a a a a a a a a a a iXiXiXiXiXiXiXiXiXiXiXiXiXiXiXiXiXiX",
"iXiXiXiXiXiXiXiXiXiXiXiXiXiXiXiXiXiXa a a a a a a a a a a a a a a a a a a a a a a a a a a a a a a a a a iXiXiXiXiXiXiXiXiXiXiXiXiXiXiXiXiXiX",
"iXiXiXiXiXiXiXiXiXiXiXiXiXiXiXiXiXiXiXiXa a a a a a a a a a a a a a a a a a a a a a a a a a a a a a iXiXiXiXiXiXiXiXiXiXiXiXiXiXiXiXiXiXiXiX",
"iXiXiXiXiXiXiXiXiXiXiXiXiXiXiXiXiXiXiXiXiXa a a a a a a a a a a a a a a a a a a a a a a a a a a a iXiXiXiXiXiXiXiXiXiXiXiXiXiXiXiXiXiXiXiXiX",
"iXiXiXiXiXiXiXiXiXiXiXiXiXiXiXiXiXiXiXiXiXiXa a a a a a a a a a a a a a a a a a a a a a a a a a iXiXiXiXiXiXiXiXiXiXiXiXiXiXiXiXiXiXiXiXiXiX",
"iXiXiXiXiXiXiXiXiXiXiXiXiXiXiXiXiXiXiXiXiXiXiXa a a a a a a a a a a a a a a a a a a a a a a a iXiXiXiXiXiXiXiXiXiXiXiXiXiXiXiXiXiXiXiXiXiXiX",
"iXiXiXiXiXiXiXiXiXiXiXiXiXiXiXiXiXiXiXiXiXiXiXiXa a a a a a a a a a a a a a a a a a a a a a iXiXiXiXiXiXiXiXiXiXiXiXiXiXiXiXiXiXiXiXiXiXiXiX",
"iXiXiXiXiXiXiXiXiXiXiXiXiXiXiXiXiXiXiXiXiXiXiXiXiXiXiXiXiXiXiXiXiXiXiXiXiXiXiXiXiXiXiXiXiXiXiXiXiXiXiXiXiXiXiXiXiXiXiXiXiXiXiXiXiXiXiXiXiXiX",
"iXiXiXiXiXiXiXiXiXiXiXiXiXiXiXiXiXiXiXiXiXiXiXiXiXiXiXiXiXiXiXiXiXiXiXiXiXiXiXiXiXiXiXiXiXiXiXiXiXiXiXiXiXiXiXiXiXiXiXiXiXiXiXiXiXiXiXiXiXiX",
"iXiXiXiXiXiXiXiXiXiXiXiXiXiXiXiXiXiXiXiXiXiXiXiXiXiXiXiXiXiXiXiXiXiXiXiXiXiXiXiXiXiXiXiXiXiXiXiXiXiXiXiXiXiXiXiXiXiXiXiXiXiXiXiXiXiXiXiXiXiX",
"iXiXiXiXiXiXiXiXiXiXiXiXiXiXiXiXiXiXiXiXiXiXiXiXiXiXiXiXiXiXiXiXiXiXiXiXiXiXiXiXiXiXiXiXiXiXiXiXiXiXiXiXiXiXiXiXiXiXiXiXiXiXiXiXiXiXiXiXiXiX"
};
