/* XPM */
static char *coin_01737908251[] = {
/* columns rows colors chars-per-pixel */
"70 70 217 2 ",
"   c #24111E",
".  c #060924",
"X  c #0A0921",
"o  c #050723",
"O  c #100C22",
"+  c #141124",
"@  c #191424",
"#  c #261D25",
"$  c #2A1D24",
"%  c #2A2126",
"&  c #322526",
"*  c #3B2C27",
"=  c #362827",
"-  c #421919",
";  c #5B301F",
":  c #4B211B",
">  c #662514",
",  c #7A3114",
"<  c #412B25",
"1  c #463328",
"2  c #4A3628",
"3  c #4E3A28",
"4  c #433027",
"5  c #543D29",
"6  c #5D4329",
"7  c #61452A",
"8  c #6A4B2A",
"9  c #674A2A",
"0  c #77542B",
"q  c #7A4E27",
"w  c #3A4466",
"e  c #8A2A05",
"r  c #8C2C0A",
"t  c #8E310C",
"y  c #91340E",
"u  c #93380A",
"i  c #863111",
"p  c #963D13",
"a  c #9C3E11",
"s  c #A23F11",
"d  c #974015",
"f  c #9B4415",
"g  c #974119",
"h  c #9E4B1C",
"j  c #98461F",
"k  c #8D4118",
"l  c #A44212",
"z  c #A94514",
"x  c #A64A15",
"c  c #A64C19",
"v  c #B44A15",
"b  c #BA4C14",
"n  c #B54E18",
"m  c #A4541B",
"M  c #AA5418",
"N  c #A7591D",
"B  c #BD5117",
"V  c #B85818",
"C  c #BF611C",
"Z  c #845D2C",
"A  c #895E2B",
"S  c #965126",
"D  c #A95D23",
"F  c #A65A2A",
"G  c #A85F35",
"H  c #A35735",
"J  c #AF5320",
"K  c #86612C",
"L  c #8C622D",
"P  c #996B2E",
"I  c #93692E",
"U  c #AD6324",
"Y  c #A7672A",
"T  c #B16A25",
"R  c #B36926",
"E  c #AB742D",
"W  c #A4722E",
"Q  c #BC7C2D",
"!  c #B8762B",
"~  c #AB663C",
"^  c #BC7D33",
"/  c #AB7038",
"(  c #C45215",
")  c #C55518",
"_  c #C65A1A",
"`  c #CD5C1B",
"'  c #C95818",
"]  c #D25C1A",
"[  c #D35A16",
"{  c #C14C10",
"}  c #C6681D",
"|  c #D6611B",
" . c #DA621C",
".. c #DB6A1E",
"X. c #D46B1C",
"o. c #D5741F",
"O. c #E36B1E",
"+. c #EA6D1E",
"@. c #C35B22",
"#. c #C36B21",
"$. c #D96C24",
"%. c #CE7822",
"&. c #D77922",
"*. c #CD7536",
"=. c #E66E21",
"-. c #ED7121",
";. c #ED7A23",
":. c #ED7F2A",
">. c #E27F2A",
",. c #F67E24",
"<. c #F97D24",
"1. c #F57622",
"2. c #A96642",
"3. c #B6784F",
"4. c #BF842F",
"5. c #BE8331",
"6. c #B98536",
"7. c #CB832D",
"8. c #DB8D2B",
"9. c #D7842A",
"0. c #C58A33",
"q. c #CD8D31",
"w. c #C38937",
"e. c #CA933A",
"r. c #CD9A3C",
"t. c #C89036",
"y. c #D19131",
"u. c #E58B2C",
"i. c #E78627",
"p. c #F68527",
"a. c #FC8326",
"s. c #F38B2A",
"d. c #FE8F29",
"f. c #F88928",
"g. c #E3932D",
"h. c #EB932C",
"j. c #F5962C",
"k. c #FF932B",
"l. c #F39D2E",
"z. c #FE9C2D",
"x. c #EA8536",
"c. c #EB9D31",
"v. c #E69A31",
"b. c #F89635",
"n. c #FDA12E",
"m. c #FFA82F",
"M. c #ECA232",
"N. c #EDAA3A",
"B. c #F4A431",
"V. c #FEA431",
"C. c #FFA931",
"Z. c #FDAB3B",
"A. c #FFA23A",
"S. c #FFB43F",
"D. c #D3A13D",
"F. c #BD8450",
"G. c #C08A5C",
"H. c #C08851",
"J. c #CC954F",
"K. c #EC924E",
"L. c #D7A945",
"P. c #DDB349",
"I. c #DEB547",
"U. c #DCB456",
"Y. c #D0A255",
"T. c #F5AB45",
"R. c #E1BB4C",
"E. c #EFB642",
"W. c #FDB746",
"Q. c #EFA755",
"!. c #C08A60",
"~. c #C6976B",
"^. c #DCB978",
"/. c #D5AC6E",
"(. c #F5B272",
"). c #FDC34B",
"_. c #F6C54C",
"`. c #EBC954",
"'. c #FACC56",
"]. c #EED359",
"[. c #FFD354",
"{. c #F6DC5C",
"}. c #FCDB5A",
"|. c #F6D658",
" X c #FEE25D",
".X c #F7E25F",
"XX c #F9C564",
"oX c #FADA69",
"OX c #F0CB73",
"+X c #FCE362",
"@X c #FFE861",
"#X c #FCEB6B",
"$X c #F9E26D",
"%X c #FFEF7A",
"&X c #FDE575",
"*X c #FFF67F",
"=X c #DAB98A",
"-X c #DEC498",
";X c #F8DC84",
":X c #E1C694",
">X c #F9D794",
",X c #EECE87",
"<X c #FCE889",
"1X c #FFF482",
"2X c #F9E59B",
"3X c #FFF896",
"4X c #ECDBA5",
"5X c #F9E5A8",
"6X c #FFF6A9",
"7X c #F6ECBD",
"8X c #F4E7B4",
"9X c #FEF8B8",
"0X c #FFFDCA",
"qX c #FFF9C1",
"wX c #FFFFD4",
"eX c #FFFFDA",
"rX c None",
/* pixels */
"rXrXrXrXrXrXrXrXrXrXrXrXrXrXrXrXrXrXrXrXrXrXrXrXrXrXrXrXrXrXrXrXrXrXrXrXrXrXrXrXrXrXrXrXrXrXrXrXrXrXrXrXrXrXrXrXrXrXrXrXrXrXrXrXrXrXrXrXrXrX",
"rXrXrXrXrXrXrXrXrXrXrXrXrXrXrXrXrXrXrXrXrXrXrXrXrXrXrXrXrXrXrXrXrXrXrXrXrXrXrXrXrXrXrXrXrXrXrXrXrXrXrXrXrXrXrXrXrXrXrXrXrXrXrXrXrXrXrXrXrXrX",
"rXrXrXrXrXrXrXrXrXrXrXrXrXrXrXrXrXrXrXrXrXrXrXrXrXrXrXrXrXrXrXrXrXrXrXrXrXrXrXrXrXrXrXrXrXrXrXrXrXrXrXrXrXrXrXrXrXrXrXrXrXrXrXrXrXrXrXrXrXrX",
"rXrXrXrXrXrXrXrXrXrXrXrXrXrXrXrXrXrXrXrXrXrXrXrXrXrXrXrXrXrXrXrXrXrXrXrXrXrXrXrXrXrXrXrXrXrXrXrXrXrXrXrXrXrXrXrXrXrXrXrXrXrXrXrXrXrXrXrXrXrX",
"rXrXrXrXrXrXrXrXrXrXrXrXrXrXrXrXrXrXrXrXrXrXrXrXrXrXrXrXrXr r r e e e e e e e e e rXrXrXrXrXrXrXrXrXrXrXrXrXrXrXrXrXrXrXrXrXrXrXrXrXrXrXrXrX",
"rXrXrXrXrXrXrXrXrXrXrXrXrXrXrXrXrXrXrXrXrXrXrXrXrXrXrXt t t r y t t r y t t t t t t t rXrXrXrXrXrXrXrXrXrXrXrXrXrXrXrXrXrXrXrXrXrXrXrXrXrXrX",
"rXrXrXrXrXrXrXrXrXrXrXrXrXrXrXrXrXrXrXrXrXrXrXrXrXrXp p p g p p g g g g g p p g g p d d rXrXrXrXrXrXrXrXrXrXrXrXrXrXrXrXrXrXrXrXrXrXrXrXrXrX",
"rXrXrXrXrXrXrXrXrXrXrXrXrXrXrXrXrXrXrXrXrXrXrXrXrXrXm D D F F Y G G G G G G Y F D D N m rXrXrXrXrXrXrXrXrXrXrXrXrXrXrXrXrXrXrXrXrXrXrXrXrXrX",
"rXrXrXrXrXrXrXrXrXrXrXrXrXrXrXrXrXrXrXrXrXrXrXrXrXm T ! w.6.F.F.G.G.G.G.F.F.F.F.6.6.Q T m rXrXrXrXrXrXrXrXrXrXrXrXrXrXrXrXrXrXrXrXrXrXrXrXrX",
"rXrXrXrXrXrXrXrXrXrXrXrXrXrXrXrXrXrXrXrXrXrXrXr f D Q r.L.U.U./.=X=X=X=X=X=X:XU.U.L.e.Q D d t rXrXrXrXrXrXrXrXrXrXrXrXrXrXrXrXrXrXrXrXrXrXrX",
"rXrXrXrXrXrXrXrXrXrXrXrXrXrXrXrXrXrXrXrXrXrXt p h T t.I.].oX<X2X4X8X7X8X8X4X2X;XoX`.R.0.T h p t rXrXrXrXrXrXrXrXrXrXrXrXrXrXrXrXrXrXrXrXrXrX",
"rXrXrXrXrXrXrXrXrXrXrXrXrXrXrXrXrXrXrXrXrXrXf m U 4.r.`.+X<X3X6XqX0X0XwX0X9X6X3X%XoX`.L.*.~ S S rXrXrXrXrXrXrXrXrXrXrXrXrXrXrXrXrXrXrXrXrXrX",
"rXrXrXrXrXrXrXrXrXrXrXrXrXrXrXrXrXrXrXrXrXm U T ^ r.I.].#X*X3X9X0XwXeXeXwXqX9X3X1X#X].U.Y.F.F.2.H rXrXrXrXrXrXrXrXrXrXrXrXrXrXrXrXrXrXrXrXrX",
"rXrXrXrXrXrXrXrXrXrXrXrXrXrXrXrXrXrXrXt h U 4.t.L.I.`.{.#X*X3X9X0XwXeXeXeX0X6X3X1X#X+XOX^./.~.F.2.S y rXrXrXrXrXrXrXrXrXrXrXrXrXrXrXrXrXrXrX",
"rXrXrXrXrXrXrXrXrXrXrXrXrXrXrXrXrXrXr p m ! r.I._.]..X X#X%X3X6XqX0XwXwX0XqX6X3X%X#X$X<X2X4X:X~.3.H p t rXrXrXrXrXrXrXrXrXrXrXrXrXrXrXrXrXrX",
"rXrXrXrXrXrXrXrXrXrXrXrXrXrXrXrXrXy p h U 5.D.`..X X X XoX$X<X4X8X8XqXqX8X8X5X;X$X+X&X<X3X7X4X=X!.~ h a u rXrXrXrXrXrXrXrXrXrXrXrXrXrXrXrXrX",
"rXrXrXrXrXrXrXrXrXrXrXrXrXrXrXrXrXm D T Q e.R.{.@X X}.[.'.'.OXOX:X=X-X-X:X:XOXOX'.'.oX<X6X7X8X:X/.3.T N m rXrXrXrXrXrXrXrXrXrXrXrXrXrXrXrXrX",
"rXrXrXrXrXrXrXrXrXrXrXrXrXrXrXg m T Q 0.L.P.`.+X@X X[.W.W.Q.Q.~.~.~.~.~.~.~.~.Q.Q.W.(.>X5XqXqX4X^.Y.t.Q T N f rXrXrXrXrXrXrXrXrXrXrXrXrXrXrX",
"rXrXrXrXrXrXrXrXrXrXrXrXrXrXy f D ^ r.P.`.].+X+X X[.W.A.b.x.*.*.2.2.2.2.~ ~ *.*.x.b.T.OX5X7X9X5X,XOXP.e.Q N f y rXrXrXrXrXrXrXrXrXrXrXrXrXrX",
"rXrXrXrXrXrXrXrXrXrXrXrXrXr y f U w.P.`.{..X.X.X}.).T.b.:.$.X.V J h j j h M n ` =.:.K.(.>X5X6X5X1X$X`.P.0.U f y r rXrXrXrXrXrXrXrXrXrXrXrXrX",
"rXrXrXrXrXrXrXrXrXrXrXrXrXt y f U t.R.{. X@X X[.).T.b.i.o.[ ( V c c l l s s b ( ] =.x.Q.,X>X>X2X1X&XoXI.0.U f y r rXrXrXrXrXrXrXrXrXrXrXrXrX",
"rXrXrXrXrXrXrXrXrXrXrXrXrXt y f T e.R.{.@X X[.).T.v.9.$.[ ' ( C V V V V b b b { ( ` *.K.K.,X,X>X&X#X+XR.t.T f y r rXrXrXrXrXrXrXrXrXrXrXrXrX",
"rXrXrXrXrXrXrXrXrXrXrXrXrXt y h U e.R.{. X[.).Z.l.>.X._ V B _ } o.o.o.X.] ` ) { b ( @.*.K.K.Q.XXoX+X{.R.e.T h u t rXrXrXrXrXrXrXrXrXrXrXrXrX",
"rXrXrXrXrXrXrXrXrXrXrXrXrXr y f U t.R.|.}.).T.b.;...V v x V } 9.h.h.s.i.-. .] ( z s z ( $.a.K.W.'.[.|.R.t.U f t r rXrXrXrXrXrXrXrXrXrXrXrXrX",
"rXrXrXrXrXrXrXrXrXrXrXrXrX, i k F 6.P.'.[.).V.f.-.] b s f M C 8.B.n.z.k.,.+.| B z a l b ] -.f.A.W.[.`.P.6.Y p i , rXrXrXrXrXrXrXrXrXrXrXrXrX",
"rXrXrXrXrXrXrXrXrXrXrXrXrX> > , A ^ L._.).S.z.<.=.[ b s a m ! 8.B.m.m.k.a.-. .B s a s b [ +.<.z.S.)._.L.6.A , > > rXrXrXrXrXrXrXrXrXrXrXrXrX",
"rXrXrXrXrXrXrXrXrXrXrXrXrX- : ; 0 W r.E.W.Z.k.<.=.[ b s f M C 8.B.C.m.k.a.-. .b l a l b [ +.<.k.Z.S.E.r.W q ; : - rXrXrXrXrXrXrXrXrXrXrXrXrX",
"rXrXrXrXrXrXrXrXrXrXrXrXrX  $ < 7 I t.N.Z.V.k.,.+.[ b s f N #.u.B.m.n.k.a.-. .B l a l b ] +.<.d.m.S.N.t.I 7 < $   rXrXrXrXrXrXrXrXrXrXrXrXrX",
"rXrXrXrXrXrXrXrXrXrXrXrXrXO + % 5 L 4.N.m.n.d.a.+.] b s s J } 8.l.V.z.k.<.-.] ( l a l b | +.a.d.n.m.M.0.K 6 % @ O rXrXrXrXrXrXrXrXrXrXrXrXrX",
"rXrXrXrXrXrXrXrXrXrXrXrXrX. + % 3 K 4.M.m.n.d.<.+.] b s a c R i.j.z.k.d.<.-. .B l a l b [ +.<.d.z.m.c.4.K 5 % + . rXrXrXrXrXrXrXrXrXrXrXrXrX",
"rXrXrXrXrXrXrXrXrXrXrXrXrX. + # 3 K 4.M.m.z.d.<.+.] b s a x C &.s.k.d.a.<.-. .B l a f b [ =.<.d.m.m.c.4.K 3 # + . rXrXrXrXrXrXrXrXrXrXrXrXrX",
"rXrXrXrXrXrXrXrXrXrXrXrXrX. + % 5 K 4.M.m.n.d.<.+.] b s a z V $.:.a.a.a.<.-.| B l a l b ] +.<.d.n.m.M.4.K 3 % + . rXrXrXrXrXrXrXrXrXrXrXrXrX",
"rXrXrXrXrXrXrXrXrXrXrXrXrXX + % 6 K 4.v.V.z.d.,.-.| B l a z V  .-.,.<.<.1.+.] ( z f z B ] -.,.d.z.V.v.6.K 5 % + X rXrXrXrXrXrXrXrXrXrXrXrXrX",
"rXrXrXrXrXrXrXrXrXrXrXrXrXrX+ % 3 0 W 7.g.h.f.p.;..._ b z v B ] O.O.+.=.+. .] ( v z v _ ..;.p.s.s.8.q.E 0 2 % + rXrXrXrXrXrXrXrXrXrXrXrXrXrX",
"rXrXrXrXrXrXrXrXrXrXrXrXrXrX+ % 1 9 A W E *.u.s.p.;.X._ B B b ) ' ' [ ' ` ' ) ( b B _ X.;.p.s.u.7.! P K 9 2 $ + rXrXrXrXrXrXrXrXrXrXrXrXrXrX",
"rXrXrXrXrXrXrXrXrXrXrXrXrXrXrXrX= 3 6 8 A E 7.g.j.s.;.$.] ' ( b v v v v v v n ( _ ] ..;.f.j.h.7.E A 8 6 2 * rXrXrXrXrXrXrXrXrXrXrXrXrXrXrXrX",
"rXrXrXrXrXrXrXrXrXrXrXrXrXrXrXrXrX% = 4 6 Z Q g.z.k.f.;.O.| ( v z s a l s z v ) ] =.;.f.k.l.g.Q A 7 4 = % rXrXrXrXrXrXrXrXrXrXrXrXrXrXrXrXrX",
"rXrXrXrXrXrXrXrXrXrXrXrXrXrXrXrXrXrX+ # 4 0 W q.g.l.f.p.;.O.| V x f d f s c n ` =.;.p.f.l.v.q.W 0 4 $ + rXrXrXrXrXrXrXrXrXrXrXrXrXrXrXrXrXrX",
"rXrXrXrXrXrXrXrXrXrXrXrXrXrXrXrXrXrX. + = 6 Z E ^ 9.u.s.p.;.=.} V V M M M C #.=.:.p.s.u.9.5.W K 5 = @ . rXrXrXrXrXrXrXrXrXrXrXrXrXrXrXrXrXrX",
"rXrXrXrXrXrXrXrXrXrXrXrXrXrXrXrXrXrXrXrX% 1 9 0 L E 7.g.j.j.h.9.9.%.%.%.%.%.i.h.j.l.u.%.E L 0 9 2 % rXrXrXrXrXrXrXrXrXrXrXrXrXrXrXrXrXrXrXrX",
"rXrXrXrXrXrXrXrXrXrXrXrXrXrXrXrXrXrXrXrXrX& * 2 7 Z E 8.l.V.n.l.h.h.g.g.g.h.l.n.n.B.8.E Z 7 2 * & rXrXrXrXrXrXrXrXrXrXrXrXrXrXrXrXrXrXrXrXrX",
"rXrXrXrXrXrXrXrXrXrXrXrXrXrXrXrXrXrXrXrXrXrX@ % * 9 P 7.c.B.B.B.c.M.c.c.M.M.M.B.B.M.7.I 8 * $ @ rXrXrXrXrXrXrXrXrXrXrXrXrXrXrXrXrXrXrXrXrXrX",
"rXrXrXrXrXrXrXrXrXrXrXrXrXrXrXrXrXrXrXrXrXrXX + % 5 Z E 0.q.y.y.q.q.q.q.y.y.y.y.y.7.E Z 5 % + . rXrXrXrXrXrXrXrXrXrXrXrXrXrXrXrXrXrXrXrXrXrX",
"rXrXrXrXrXrXrXrXrXrXrXrXrXrXrXrXrXrXrXrXrXrXrXrX% 1 8 0 I P P P P P P P P P P P P L Z 9 1 % rXrXrXrXrXrXrXrXrXrXrXrXrXrXrXrXrXrXrXrXrXrXrXrX",
"rXrXrXrXrXrXrXrXrXrXrXrXrXrXrXrXrXrXrXrXrXrXrXrXrX* 3 6 6 6 6 7 7 6 7 7 7 7 7 7 6 6 6 2 * rXrXrXrXrXrXrXrXrXrXrXrXrXrXrXrXrXrXrXrXrXrXrXrXrX",
"rXrXrXrXrXrXrXrXrXrXrXrXrXrXrXrXrXrXrXrXrXrXrXrXrXrX& & = = = = & = & & & & & & & & & & rXrXrXrXrXrXrXrXrXrXrXrXrXrXrXrXrXrXrXrXrXrXrXrXrXrX",
"rXrXrXrXrXrXrXrXrXrXrXrXrXrXrXrXrXrXrXrXrXrXrXrXrXrXrX@ + + @ @ @ @ @ @ @ @ @ @ @ @ @ rXrXrXrXrXrXrXrXrXrXrXrXrXrXrXrXrXrXrXrXrXrXrXrXrXrXrX",
"rXrXrXrXrXrXrXrXrXrXrXrXrXrXrXrXrXrXrXrXrXrXrXrXrXrXrXrXX X X X X X X X X X X X X X rXrXrXrXrXrXrXrXrXrXrXrXrXrXrXrXrXrXrXrXrXrXrXrXrXrXrXrX",
"rXrXrXrXrXrXrXrXrXrXrXrXrXrXrXrXrXrXrXrXrXrXrXrXrXrXrXrXrXrXrXrXrXrXrXrXrXrXrXrXrXrXrXrXrXrXrXrXrXrXrXrXrXrXrXrXrXrXrXrXrXrXrXrXrXrXrXrXrXrX",
"rXrXrXrXrXrXrXrXrXrXrXrXrXrXrXrXrXrXrXrXrXrXrXrXrXrXrXrXrXrXrXrXrXrXrXrXrXrXrXrXrXrXrXrXrXrXrXrXrXrXrXrXrXrXrXrXrXrXrXrXrXrXrXrXrXrXrXrXrXrX",
"rXrXrXrXrXrXrXrXrXrXrXrXrXrXrXrXrXrXrXrXrXrXrXrXrXrXrXrXrXrXrXrXrXrXrXrXrXrXrXrXrXrXrXrXrXrXrXrXrXrXrXrXrXrXrXrXrXrXrXrXrXrXrXrXrXrXrXrXrXrX",
"rXrXrXrXrXrXrXrXrXrXrXrXrXrXrXrXrXrXrXrXrXrXrXrXrXrXrXrXrXrXrXrXrXrXrXrXrXrXrXrXrXrXrXrXrXrXrXrXrXrXrXrXrXrXrXrXrXrXrXrXrXrXrXrXrXrXrXrXrXrX",
"rXrXrXrXrXrXrXrXrXrXrXrXrXrXrXrXrXrXrXrXw w w w rXrXrXrXrXrXrXrXrXrXrXrXrXrXrXrXrXrXrXrXrXrXw w w w rXrXrXrXrXrXrXrXrXrXrXrXrXrXrXrXrXrXrXrX",
"rXrXrXrXrXrXrXrXrXrXrXrXrXrXrXrXrXrXw w w w w w w w w w w w w w w w w w w w w w w w w w w w w w w w w w rXrXrXrXrXrXrXrXrXrXrXrXrXrXrXrXrXrX",
"rXrXrXrXrXrXrXrXrXrXrXrXrXrXrXrXrXrXw w w w w w w w w w w w w w w w w w w w w w w w w w w w w w w w w w rXrXrXrXrXrXrXrXrXrXrXrXrXrXrXrXrXrX",
"rXrXrXrXrXrXrXrXrXrXrXrXrXrXrXrXrXw w w w w w w w w w w w w w w w w w w w w w w w w w w w w w w w w w w w rXrXrXrXrXrXrXrXrXrXrXrXrXrXrXrXrX",
"rXrXrXrXrXrXrXrXrXrXrXrXrXrXrXrXw w w w w w w w w w w w w w w w w w w w w w w w w w w w w w w w w w w w w w rXrXrXrXrXrXrXrXrXrXrXrXrXrXrXrX",
"rXrXrXrXrXrXrXrXrXrXrXrXrXrXw w w w w w w w w w w w w w w w w w w w w w w w w w w w w w w w w w w w w w w w w w rXrXrXrXrXrXrXrXrXrXrXrXrXrX",
"rXrXrXrXrXrXrXrXrXrXrXrXrXw w w w w w w w w w w w w w w w w w w w w w w w w w w w w w w w w w w w w w w w w w w w rXrXrXrXrXrXrXrXrXrXrXrXrX",
"rXrXrXrXrXrXrXrXrXrXrXrXrXw w w w w w w w w w w w w w w w w w w w w w w w w w w w w w w w w w w w w w w w w w w w rXrXrXrXrXrXrXrXrXrXrXrXrX",
"rXrXrXrXrXrXrXrXrXrXrXrXrXrXw w w w w w w w w w w w w w w w w w w w w w w w w w w w w w w w w w w w w w w w w w rXrXrXrXrXrXrXrXrXrXrXrXrXrX",
"rXrXrXrXrXrXrXrXrXrXrXrXrXrXrXrXw w w w w w w w w w w w w w w w w w w w w w w w w w w w w w w w w w w w w w rXrXrXrXrXrXrXrXrXrXrXrXrXrXrXrX",
"rXrXrXrXrXrXrXrXrXrXrXrXrXrXrXrXrXw w w w w w w w w w w w w w w w w w w w w w w w w w w w w w w w w w w w rXrXrXrXrXrXrXrXrXrXrXrXrXrXrXrXrX",
"rXrXrXrXrXrXrXrXrXrXrXrXrXrXrXrXrXrXw w w w w w w w w w w w w w w w w w w w w w w w w w w w w w w w w w rXrXrXrXrXrXrXrXrXrXrXrXrXrXrXrXrXrX",
"rXrXrXrXrXrXrXrXrXrXrXrXrXrXrXrXrXrXw w w w w w w w w w w w w w w w w w w w w w w w w w w w w w w w w w rXrXrXrXrXrXrXrXrXrXrXrXrXrXrXrXrXrX",
"rXrXrXrXrXrXrXrXrXrXrXrXrXrXrXrXrXrXrXrXw w w w w w w w w w w w w w w w w w w w w w w w w w w w w w rXrXrXrXrXrXrXrXrXrXrXrXrXrXrXrXrXrXrXrX",
"rXrXrXrXrXrXrXrXrXrXrXrXrXrXrXrXrXrXrXrXrXrXrXrXrXrXrXrXrXrXrXrXrXrXrXrXrXrXrXrXrXrXrXrXrXrXrXrXrXrXrXrXrXrXrXrXrXrXrXrXrXrXrXrXrXrXrXrXrXrX",
"rXrXrXrXrXrXrXrXrXrXrXrXrXrXrXrXrXrXrXrXrXrXrXrXrXrXrXrXrXrXrXrXrXrXrXrXrXrXrXrXrXrXrXrXrXrXrXrXrXrXrXrXrXrXrXrXrXrXrXrXrXrXrXrXrXrXrXrXrXrX",
"rXrXrXrXrXrXrXrXrXrXrXrXrXrXrXrXrXrXrXrXrXrXrXrXrXrXrXrXrXrXrXrXrXrXrXrXrXrXrXrXrXrXrXrXrXrXrXrXrXrXrXrXrXrXrXrXrXrXrXrXrXrXrXrXrXrXrXrXrXrX",
"rXrXrXrXrXrXrXrXrXrXrXrXrXrXrXrXrXrXrXrXrXrXrXrXrXrXrXrXrXrXrXrXrXrXrXrXrXrXrXrXrXrXrXrXrXrXrXrXrXrXrXrXrXrXrXrXrXrXrXrXrXrXrXrXrXrXrXrXrXrX"
};
