/* XPM */
static char *coin_21737908250[] = {
/* columns rows colors chars-per-pixel */
"70 70 199 2 ",
"   c #1D0D1E",
".  c #38181C",
"X  c #0B0C24",
"o  c #070923",
"O  c #161325",
"+  c #191425",
"@  c #221A25",
"#  c #2C1C24",
"$  c #321F24",
"%  c #2F2326",
"&  c #2F292A",
"*  c #332526",
"=  c #3A2A27",
"-  c #332A2A",
";  c #571E14",
":  c #43211E",
">  c #58271A",
",  c #612918",
"<  c #793317",
"1  c #752911",
"2  c #412321",
"3  c #453227",
"4  c #453328",
"5  c #5B3224",
"6  c #5F3C27",
"7  c #553D29",
"8  c #723F21",
"9  c #683421",
"0  c #5D4229",
"q  c #5C4C32",
"w  c #604429",
"e  c #714F2A",
"r  c #74532B",
"t  c #79552B",
"y  c #655635",
"u  c #7C5E32",
"i  c #3A4466",
"p  c #8C2C06",
"a  c #8B2C0A",
"s  c #872C0C",
"d  c #902E0A",
"f  c #8E310D",
"g  c #95380F",
"h  c #91330C",
"j  c #8E3610",
"k  c #8C3B16",
"l  c #923710",
"z  c #953B12",
"x  c #9A3E14",
"c  c #974014",
"v  c #9A4416",
"b  c #9D4B19",
"n  c #9F4C15",
"m  c #8A461D",
"M  c #A24C1A",
"N  c #A44618",
"B  c #A4541C",
"V  c #A6591F",
"C  c #B85018",
"Z  c #8F4923",
"A  c #914923",
"S  c #9D4C24",
"D  c #974924",
"F  c #865E2C",
"G  c #955A28",
"H  c #A04B21",
"J  c #A75A20",
"K  c #A85C20",
"L  c #A75C2D",
"P  c #AC572C",
"I  c #8D622C",
"U  c #94662D",
"Y  c #95692D",
"T  c #9C6D2D",
"R  c #9E702E",
"E  c #93783B",
"W  c #946E32",
"Q  c #AC6123",
"!  c #A3682B",
"~  c #B16927",
"^  c #B36D29",
"/  c #B7722A",
"(  c #B77E2F",
")  c #BA782E",
"_  c #B56537",
"`  c #BB7A32",
"'  c #C75B1F",
"]  c #CF601D",
"[  c #D8621B",
"{  c #EF721E",
"}  c #FC721E",
"|  c #C65E22",
" . c #C66022",
".. c #C96423",
"X. c #CC792A",
"o. c #CC6B32",
"O. c #E06E27",
"+. c #EC7122",
"@. c #EE7D25",
"#. c #F67521",
"$. c #FC7620",
"%. c #F77C24",
"&. c #FC7C23",
"*. c #AB6741",
"=. c #B16F46",
"-. c #B2734B",
";. c #BD822F",
":. c #B7802F",
">. c #BE8231",
",. c #CB892F",
"<. c #C18333",
"1. c #CB8D31",
"2. c #C78D37",
"3. c #CB953A",
"4. c #CE993D",
"5. c #C79238",
"6. c #DD9932",
"7. c #D49636",
"8. c #FB8326",
"9. c #FE8A27",
"0. c #FB872A",
"q. c #FA8C2A",
"w. c #F58628",
"e. c #FC922C",
"r. c #FD9B2D",
"t. c #F3982D",
"y. c #F28330",
"u. c #F89B35",
"i. c #FEA22F",
"p. c #EDA433",
"a. c #F2A632",
"s. c #FDA631",
"d. c #F2AA33",
"f. c #FDAD33",
"g. c #FCA439",
"h. c #FBAC3D",
"j. c #FFB234",
"k. c #FFB935",
"l. c #FFBC3D",
"z. c #F2B13C",
"x. c #FFC23F",
"c. c #998543",
"v. c #B69140",
"b. c #BA8256",
"n. c #A88D43",
"m. c #CF804B",
"M. c #CB9B42",
"N. c #C79656",
"B. c #ED9048",
"V. c #D6A542",
"C. c #D9AC46",
"Z. c #CCB34F",
"A. c #DDB148",
"S. c #DBB047",
"D. c #D8B955",
"F. c #CDB24E",
"G. c #E3BA4C",
"H. c #FDB445",
"J. c #F9BB45",
"K. c #E1BC50",
"L. c #FDB056",
"P. c #CA9569",
"I. c #C79A70",
"U. c #D7B57A",
"Y. c #F1AE6C",
"T. c #E6C14F",
"R. c #FBC24B",
"E. c #FFCD49",
"W. c #FEC546",
"Q. c #FFD04A",
"!. c #E7C350",
"~. c #E8C451",
"^. c #E9CA59",
"/. c #FCCD52",
"(. c #FAC754",
"). c #FFDC55",
"_. c #F3D559",
"`. c #FED65B",
"'. c #F5DC5C",
"]. c #FCDC5B",
"[. c #F9D355",
"{. c #FCE45E",
"}. c #FFEA5F",
"|. c #F7E15E",
" X c #F6D373",
".X c #FEE661",
"XX c #FFEC63",
"oX c #FEE669",
"OX c #F7E262",
"+X c #FFF265",
"@X c #FDE879",
"#X c #D9B98C",
"$X c #E7B982",
"%X c #F4DA98",
"&X c #E6CA97",
"*X c #FBE589",
"=X c #FFE993",
"-X c #F9E6A6",
";X c None",
/* pixels */
";X;X;X;X;X;X;X;X;X;X;X;X;X;X;X;X;X;X;X;X;X;X;X;X;X;X;X;X;X;X;X;X;X;X;X;X;X;X;X;X;X;X;X;X;X;X;X;X;X;X;X;X;X;X;X;X;X;X;X;X;X;X;X;X;X;X;X;X;X;X",
";X;X;X;X;X;X;X;X;X;X;X;X;X;X;X;X;X;X;X;X;X;X;X;X;X;X;X;X;X;X;X;X;X;X;X;X;X;X;X;X;X;X;X;X;X;X;X;X;X;X;X;X;X;X;X;X;X;X;X;X;X;X;X;X;X;X;X;X;X;X",
";X;X;X;X;X;X;X;X;X;X;X;X;X;X;X;X;X;X;X;X;X;X;X;X;X;X;X;X;X;X;X;X;X;X;X;X;X;X;X;X;X;X;X;X;X;X;X;X;X;X;X;X;X;X;X;X;X;X;X;X;X;X;X;X;X;X;X;X;X;X",
";X;X;X;X;X;X;X;X;X;X;X;X;X;X;X;X;X;X;X;X;X;X;X;X;X;X;X;X;X;X;X;X;X;X;X;X;X;X;X;X;X;X;X;X;X;X;X;X;X;X;X;X;X;X;X;X;X;X;X;X;X;X;X;X;X;X;X;X;X;X",
";X;X;X;X;X;X;X;X;X;X;X;X;X;X;X;X;X;X;X;X;X;X;X;X;X;X;X;X;X;X;X;X;Xa a a a ;X;X;X;X;X;X;X;X;X;X;X;X;X;X;X;X;X;X;X;X;X;X;X;X;X;X;X;X;X;X;X;X;X",
";X;X;X;X;X;X;X;X;X;X;X;X;X;X;X;X;X;X;X;X;X;X;X;X;X;X;X;X;X;X;Xf f f f f f f f ;X;X;X;X;X;X;X;X;X;X;X;X;X;X;X;X;X;X;X;X;X;X;X;X;X;X;X;X;X;X;X",
";X;X;X;X;X;X;X;X;X;X;X;X;X;X;X;X;X;X;X;X;X;X;X;X;X;X;X;X;X;X;Xx x c c c c c x ;X;X;X;X;X;X;X;X;X;X;X;X;X;X;X;X;X;X;X;X;X;X;X;X;X;X;X;X;X;X;X",
";X;X;X;X;X;X;X;X;X;X;X;X;X;X;X;X;X;X;X;X;X;X;X;X;X;X;X;X;X;XB B J J K J K J B B ;X;X;X;X;X;X;X;X;X;X;X;X;X;X;X;X;X;X;X;X;X;X;X;X;X;X;X;X;X;X",
";X;X;X;X;X;X;X;X;X;X;X;X;X;X;X;X;X;X;X;X;X;X;X;X;X;X;X;X;XM Q / ( <.<.<.<.X./ Q n ;X;X;X;X;X;X;X;X;X;X;X;X;X;X;X;X;X;X;X;X;X;X;X;X;X;X;X;X;X",
";X;X;X;X;X;X;X;X;X;X;X;X;X;X;X;X;X;X;X;X;X;X;X;X;X;X;Xa z B ) 5.V.C.A.A.C.V.5./ B g p ;X;X;X;X;X;X;X;X;X;X;X;X;X;X;X;X;X;X;X;X;X;X;X;X;X;X;X",
";X;X;X;X;X;X;X;X;X;X;X;X;X;X;X;X;X;X;X;X;X;X;X;X;X;X;Xl v K <.V.T._.'.'._.K.F.>.Q v l ;X;X;X;X;X;X;X;X;X;X;X;X;X;X;X;X;X;X;X;X;X;X;X;X;X;X;X",
";X;X;X;X;X;X;X;X;X;X;X;X;X;X;X;X;X;X;X;X;X;X;X;X;X;Xv b J / 3.G._.XXXXXX.X_.D.M.` L S D ;X;X;X;X;X;X;X;X;X;X;X;X;X;X;X;X;X;X;X;X;X;X;X;X;X;X",
";X;X;X;X;X;X;X;X;X;X;X;X;X;X;X;X;X;X;X;X;X;X;X;X;XB K ^ ) 5.C.~.|.XX+X+X+XOX^.Z.N.-.-.*.L ;X;X;X;X;X;X;X;X;X;X;X;X;X;X;X;X;X;X;X;X;X;X;X;X;X",
";X;X;X;X;X;X;X;X;X;X;X;X;X;X;X;X;X;X;X;X;X;X;Xl b K ) 2.4.C.~._.|.XX+XXXXX.X X XU.#XI.-.*.S l ;X;X;X;X;X;X;X;X;X;X;X;X;X;X;X;X;X;X;X;X;X;X;X",
";X;X;X;X;X;X;X;X;X;X;X;X;X;X;X;X;X;X;X;X;X;Xa z b ~ 2.V.T._.'.].XXXX}.}.XXoX@X*X=X&X#XP.-.S k a ;X;X;X;X;X;X;X;X;X;X;X;X;X;X;X;X;X;X;X;X;X;X",
";X;X;X;X;X;X;X;X;X;X;X;X;X;X;X;X;X;X;X;X;X;Xa l b ^ 3.G._.{.XXXX{..X{.}..XoX@X=X-X-X&XI.-.S l a ;X;X;X;X;X;X;X;X;X;X;X;X;X;X;X;X;X;X;X;X;X;X",
";X;X;X;X;X;X;X;X;X;X;X;X;X;X;X;X;X;X;X;X;X;Xa z b / 4.~.|.+X+XXXXX{.{.{..XoX@X=X%X%X$XP._ S g p ;X;X;X;X;X;X;X;X;X;X;X;X;X;X;X;X;X;X;X;X;X;X",
";X;X;X;X;X;X;X;X;X;X;X;X;X;X;X;X;X;X;X;X;X;Xd g b / 4.~.OXXXXXXX.X}.XX.X.XoXoX X XY.Y.m._ N g d ;X;X;X;X;X;X;X;X;X;X;X;X;X;X;X;X;X;X;X;X;X;X",
";X;X;X;X;X;X;X;X;X;X;X;X;X;X;X;X;X;X;X;X;X;Xd g b ^ 4.T.|.XXXXXX.X.XXXXXXX{.`.(.L.B.@.o.P N z f ;X;X;X;X;X;X;X;X;X;X;X;X;X;X;X;X;X;X;X;X;X;X",
";X;X;X;X;X;X;X;X;X;X;X;X;X;X;X;X;X;X;X;X;X;Xs j b ^ 3.T.|.XX+XXXXX{..X.X.X`.(.H.B.y.O.' C x j f ;X;X;X;X;X;X;X;X;X;X;X;X;X;X;X;X;X;X;X;X;X;X",
";X;X;X;X;X;X;X;X;X;X;X;X;X;X;X;X;X;X;X;X;X;X1 < m ! 2.T.'.XX+XXX.X{.].].[.(.H.g.e.%.[ ' N k 1 1 ;X;X;X;X;X;X;X;X;X;X;X;X;X;X;X;X;X;X;X;X;X;X",
";X;X;X;X;X;X;X;X;X;X;X;X;X;X;X;X;X;X;X;X;X;X; , e I v.D.|.XX+X}..X{.]./.J.H.g.e.0.{ ] C m < , > ;X;X;X;X;X;X;X;X;X;X;X;X;X;X;X;X;X;X;X;X;X;X",
";X;X;X;X;X;X;X;X;X;X;X;X;X;X;X;X;X;X;X;X;X;X. : 0 u n.D.|.XX+X+X.X]./.J.H.u.e.0.&.{ ] N < > : $ ;X;X;X;X;X;X;X;X;X;X;X;X;X;X;X;X;X;X;X;X;X;X",
";X;X;X;X;X;X;X;X;X;X;X;X;X;X;X;X;X;X;X;X;X;X  # 4 y c.Z.'.XX+X}..X`.J.H.u.0.&.&.$.+.| b 9 2 # + ;X;X;X;X;X;X;X;X;X;X;X;X;X;X;X;X;X;X;X;X;X;X",
";X;X;X;X;X;X;X;X;X;X;X;X;X;X;X;X;X;X;X;X;X;XX + - y c.Z._.}.}.}.]./.H.u.q.%.#.$.$.+.| A 5 $ O X ;X;X;X;X;X;X;X;X;X;X;X;X;X;X;X;X;X;X;X;X;X;X",
";X;X;X;X;X;X;X;X;X;X;X;X;X;X;X;X;X;X;X;X;X;Xo O - q E F.~.).).).[.R.h.u.w.#.} } #.+. .Z 5 # O X ;X;X;X;X;X;X;X;X;X;X;X;X;X;X;X;X;X;X;X;X;X;X",
";X;X;X;X;X;X;X;X;X;X;X;X;X;X;X;X;X;X;X;X;X;Xo O % q W M.R.E.E.E.W.J.g.e.%.} } $.$.+.| Z 5 $ O X ;X;X;X;X;X;X;X;X;X;X;X;X;X;X;X;X;X;X;X;X;X;X",
";X;X;X;X;X;X;X;X;X;X;X;X;X;X;X;X;X;X;X;X;X;Xo + & q W 3.z.l.x.x.l.f.i.q.%.#.} $.$.+.| A 5 $ O X ;X;X;X;X;X;X;X;X;X;X;X;X;X;X;X;X;X;X;X;X;X;X",
";X;X;X;X;X;X;X;X;X;X;X;X;X;X;X;X;X;X;X;X;X;XX + * 0 Y 1.d.k.k.j.j.s.r.q.8.%.$.$.$.+.| A 5 $ + X ;X;X;X;X;X;X;X;X;X;X;X;X;X;X;X;X;X;X;X;X;X;X",
";X;X;X;X;X;X;X;X;X;X;X;X;X;X;X;X;X;X;X;X;X;XX + * 0 U 1.a.f.j.j.f.s.r.t.0.w.8.&.&.+.| A 5 * + O ;X;X;X;X;X;X;X;X;X;X;X;X;X;X;X;X;X;X;X;X;X;X",
";X;X;X;X;X;X;X;X;X;X;X;X;X;X;X;X;X;X;X;X;X;XX + * 0 Y ,.a.f.j.f.f.s.i.r.e.q.9.8.$.+.| A 5 $ + X ;X;X;X;X;X;X;X;X;X;X;X;X;X;X;X;X;X;X;X;X;X;X",
";X;X;X;X;X;X;X;X;X;X;X;X;X;X;X;X;X;X;X;X;X;XX + * 0 U 1.a.f.j.j.f.f.s.i.i.r.e.9.&.+.| A 5 $ + X ;X;X;X;X;X;X;X;X;X;X;X;X;X;X;X;X;X;X;X;X;X;X",
";X;X;X;X;X;X;X;X;X;X;X;X;X;X;X;X;X;X;X;X;X;XX + * 0 Y 1.a.f.j.f.f.f.f.f.f.s.r.e.9.+. .A 5 * + X ;X;X;X;X;X;X;X;X;X;X;X;X;X;X;X;X;X;X;X;X;X;X",
";X;X;X;X;X;X;X;X;X;X;X;X;X;X;X;X;X;X;X;X;X;XX + * 0 Y 1.a.j.k.j.f.f.j.f.f.g.i.r.9.@...A 5 * + X ;X;X;X;X;X;X;X;X;X;X;X;X;X;X;X;X;X;X;X;X;X;X",
";X;X;X;X;X;X;X;X;X;X;X;X;X;X;X;X;X;X;X;X;X;XX + * w Y 1.d.k.k.j.f.f.j.j.j.f.i.i.r.w.X.G 6 * + X ;X;X;X;X;X;X;X;X;X;X;X;X;X;X;X;X;X;X;X;X;X;X",
";X;X;X;X;X;X;X;X;X;X;X;X;X;X;X;X;X;X;X;X;X;XX + * w Y 1.d.j.j.j.f.f.f.f.f.f.f.f.i.t.X.G 6 * + X ;X;X;X;X;X;X;X;X;X;X;X;X;X;X;X;X;X;X;X;X;X;X",
";X;X;X;X;X;X;X;X;X;X;X;X;X;X;X;X;X;X;X;X;X;Xo + - 0 Y 1.d.j.j.j.f.f.f.j.f.f.f.f.f.t.,.U w * + X ;X;X;X;X;X;X;X;X;X;X;X;X;X;X;X;X;X;X;X;X;X;X",
";X;X;X;X;X;X;X;X;X;X;X;X;X;X;X;X;X;X;X;X;X;XX + * 0 I ;.6.p.s.f.f.f.j.j.f.f.f.f.a.6.;.I 0 * + o ;X;X;X;X;X;X;X;X;X;X;X;X;X;X;X;X;X;X;X;X;X;X",
";X;X;X;X;X;X;X;X;X;X;X;X;X;X;X;X;X;X;X;X;X;X;X+ * 7 t T ( 1.6.p.d.j.j.j.j.d.p.6.1.:.T t 7 * + ;X;X;X;X;X;X;X;X;X;X;X;X;X;X;X;X;X;X;X;X;X;X;X",
";X;X;X;X;X;X;X;X;X;X;X;X;X;X;X;X;X;X;X;X;X;X;X;X% 3 0 e F T ;.6.d.j.k.k.j.d.6.;.W I e 0 4 % ;X;X;X;X;X;X;X;X;X;X;X;X;X;X;X;X;X;X;X;X;X;X;X;X",
";X;X;X;X;X;X;X;X;X;X;X;X;X;X;X;X;X;X;X;X;X;X;X;X;X;X= 4 7 t T ,.p.j.k.k.j.p.1.T t 0 3 = ;X;X;X;X;X;X;X;X;X;X;X;X;X;X;X;X;X;X;X;X;X;X;X;X;X;X",
";X;X;X;X;X;X;X;X;X;X;X;X;X;X;X;X;X;X;X;X;X;X;X;X;X;X+ @ * 7 F ( 6.d.f.f.d.6.( F 7 * @ + ;X;X;X;X;X;X;X;X;X;X;X;X;X;X;X;X;X;X;X;X;X;X;X;X;X;X",
";X;X;X;X;X;X;X;X;X;X;X;X;X;X;X;X;X;X;X;X;X;X;X;X;X;X;XX @ 4 r T <.,.7.7.1.;.T e 3 @ X ;X;X;X;X;X;X;X;X;X;X;X;X;X;X;X;X;X;X;X;X;X;X;X;X;X;X;X",
";X;X;X;X;X;X;X;X;X;X;X;X;X;X;X;X;X;X;X;X;X;X;X;X;X;X;X;X+ = 0 t I Y Y T Y I t 0 = + ;X;X;X;X;X;X;X;X;X;X;X;X;X;X;X;X;X;X;X;X;X;X;X;X;X;X;X;X",
";X;X;X;X;X;X;X;X;X;X;X;X;X;X;X;X;X;X;X;X;X;X;X;X;X;X;X;X;X;X4 7 6 w w w w 0 7 3 ;X;X;X;X;X;X;X;X;X;X;X;X;X;X;X;X;X;X;X;X;X;X;X;X;X;X;X;X;X;X",
";X;X;X;X;X;X;X;X;X;X;X;X;X;X;X;X;X;X;X;X;X;X;X;X;X;X;X;X;X;X* * * * * * * * * % ;X;X;X;X;X;X;X;X;X;X;X;X;X;X;X;X;X;X;X;X;X;X;X;X;X;X;X;X;X;X",
";X;X;X;X;X;X;X;X;X;X;X;X;X;X;X;X;X;X;X;X;X;X;X;X;X;X;X;X;X;X;X+ +   + + + + + ;X;X;X;X;X;X;X;X;X;X;X;X;X;X;X;X;X;X;X;X;X;X;X;X;X;X;X;X;X;X;X",
";X;X;X;X;X;X;X;X;X;X;X;X;X;X;X;X;X;X;X;X;X;X;X;X;X;X;X;X;X;X;X;Xo o X X o o ;X;X;X;X;X;X;X;X;X;X;X;X;X;X;X;X;X;X;X;X;X;X;X;X;X;X;X;X;X;X;X;X",
";X;X;X;X;X;X;X;X;X;X;X;X;X;X;X;X;X;X;X;X;X;X;X;X;X;X;X;X;X;X;X;X;X;X;X;X;X;X;X;X;X;X;X;X;X;X;X;X;X;X;X;X;X;X;X;X;X;X;X;X;X;X;X;X;X;X;X;X;X;X",
";X;X;X;X;X;X;X;X;X;X;X;X;X;X;X;X;X;X;X;X;X;X;X;X;X;X;X;X;X;X;X;X;X;X;X;X;X;X;X;X;X;X;X;X;X;X;X;X;X;X;X;X;X;X;X;X;X;X;X;X;X;X;X;X;X;X;X;X;X;X",
";X;X;X;X;X;X;X;X;X;X;X;X;X;X;X;X;X;X;X;X;X;X;X;X;X;X;X;X;X;X;X;X;X;X;X;X;X;X;X;X;X;X;X;X;X;X;X;X;X;X;X;X;X;X;X;X;X;X;X;X;X;X;X;X;X;X;X;X;X;X",
";X;X;X;X;X;X;X;X;X;X;X;X;X;X;X;X;X;X;X;X;X;X;X;X;X;X;X;X;X;X;X;X;X;X;X;X;X;X;X;X;X;X;X;X;X;X;X;X;X;X;X;X;X;X;X;X;X;X;X;X;X;X;X;X;X;X;X;X;X;X",
";X;X;X;X;X;X;X;X;X;X;X;X;X;X;X;X;X;X;X;X;X;X;X;X;X;X;X;X;Xi ;X;X;X;X;X;X;X;X;X;Xi ;X;X;X;X;X;X;X;X;X;X;X;X;X;X;X;X;X;X;X;X;X;X;X;X;X;X;X;X;X",
";X;X;X;X;X;X;X;X;X;X;X;X;X;X;X;X;X;X;X;X;X;X;X;X;X;X;Xi i i i i i i i i i i i i i i i ;X;X;X;X;X;X;X;X;X;X;X;X;X;X;X;X;X;X;X;X;X;X;X;X;X;X;X",
";X;X;X;X;X;X;X;X;X;X;X;X;X;X;X;X;X;X;X;X;X;X;X;X;X;Xi i i i i i i i i i i i i i i i i i ;X;X;X;X;X;X;X;X;X;X;X;X;X;X;X;X;X;X;X;X;X;X;X;X;X;X",
";X;X;X;X;X;X;X;X;X;X;X;X;X;X;X;X;X;X;X;X;X;X;X;X;X;Xi i i i i i i i i i i i i i i i i i ;X;X;X;X;X;X;X;X;X;X;X;X;X;X;X;X;X;X;X;X;X;X;X;X;X;X",
";X;X;X;X;X;X;X;X;X;X;X;X;X;X;X;X;X;X;X;X;X;X;X;X;Xi i i i i i i i i i i i i i i i i i i i ;X;X;X;X;X;X;X;X;X;X;X;X;X;X;X;X;X;X;X;X;X;X;X;X;X",
";X;X;X;X;X;X;X;X;X;X;X;X;X;X;X;X;X;X;X;X;X;X;Xi i i i i i i i i i i i i i i i i i i i i i i i ;X;X;X;X;X;X;X;X;X;X;X;X;X;X;X;X;X;X;X;X;X;X;X",
";X;X;X;X;X;X;X;X;X;X;X;X;X;X;X;X;X;X;X;X;X;Xi i i i i i i i i i i i i i i i i i i i i i i i i i ;X;X;X;X;X;X;X;X;X;X;X;X;X;X;X;X;X;X;X;X;X;X",
";X;X;X;X;X;X;X;X;X;X;X;X;X;X;X;X;X;X;X;X;X;Xi i i i i i i i i i i i i i i i i i i i i i i i i i ;X;X;X;X;X;X;X;X;X;X;X;X;X;X;X;X;X;X;X;X;X;X",
";X;X;X;X;X;X;X;X;X;X;X;X;X;X;X;X;X;X;X;X;X;X;Xi i i i i i i i i i i i i i i i i i i i i i i i ;X;X;X;X;X;X;X;X;X;X;X;X;X;X;X;X;X;X;X;X;X;X;X",
";X;X;X;X;X;X;X;X;X;X;X;X;X;X;X;X;X;X;X;X;X;X;X;Xi i i i i i i i i i i i i i i i i i i i i i ;X;X;X;X;X;X;X;X;X;X;X;X;X;X;X;X;X;X;X;X;X;X;X;X",
";X;X;X;X;X;X;X;X;X;X;X;X;X;X;X;X;X;X;X;X;X;X;X;X;X;Xi i i i i i i i i i i i i i i i i i ;X;X;X;X;X;X;X;X;X;X;X;X;X;X;X;X;X;X;X;X;X;X;X;X;X;X",
";X;X;X;X;X;X;X;X;X;X;X;X;X;X;X;X;X;X;X;X;X;X;X;X;X;Xi i i i i i i i i i i i i i i i i i ;X;X;X;X;X;X;X;X;X;X;X;X;X;X;X;X;X;X;X;X;X;X;X;X;X;X",
";X;X;X;X;X;X;X;X;X;X;X;X;X;X;X;X;X;X;X;X;X;X;X;X;X;X;Xi i i i i i i i i i i i i i i i ;X;X;X;X;X;X;X;X;X;X;X;X;X;X;X;X;X;X;X;X;X;X;X;X;X;X;X",
";X;X;X;X;X;X;X;X;X;X;X;X;X;X;X;X;X;X;X;X;X;X;X;X;X;X;X;Xi i i i i i i i i i i i i i ;X;X;X;X;X;X;X;X;X;X;X;X;X;X;X;X;X;X;X;X;X;X;X;X;X;X;X;X",
";X;X;X;X;X;X;X;X;X;X;X;X;X;X;X;X;X;X;X;X;X;X;X;X;X;X;X;X;X;X;X;X;X;X;X;X;X;X;X;X;X;X;X;X;X;X;X;X;X;X;X;X;X;X;X;X;X;X;X;X;X;X;X;X;X;X;X;X;X;X",
";X;X;X;X;X;X;X;X;X;X;X;X;X;X;X;X;X;X;X;X;X;X;X;X;X;X;X;X;X;X;X;X;X;X;X;X;X;X;X;X;X;X;X;X;X;X;X;X;X;X;X;X;X;X;X;X;X;X;X;X;X;X;X;X;X;X;X;X;X;X",
";X;X;X;X;X;X;X;X;X;X;X;X;X;X;X;X;X;X;X;X;X;X;X;X;X;X;X;X;X;X;X;X;X;X;X;X;X;X;X;X;X;X;X;X;X;X;X;X;X;X;X;X;X;X;X;X;X;X;X;X;X;X;X;X;X;X;X;X;X;X",
";X;X;X;X;X;X;X;X;X;X;X;X;X;X;X;X;X;X;X;X;X;X;X;X;X;X;X;X;X;X;X;X;X;X;X;X;X;X;X;X;X;X;X;X;X;X;X;X;X;X;X;X;X;X;X;X;X;X;X;X;X;X;X;X;X;X;X;X;X;X"
};
